<?xml version="1.0" encoding="UTF-8"?><svg xmlns="http://www.w3.org/2000/svg" width="251.83" height="120.93" viewBox="0 0 251.83 120.93"><g isolation="isolate"><g id="b"><g id="c"><text transform="translate(49.8 64.4)" fill="#fffefd" font-family="SatoshiVariable-Medium, &apos;Satoshi Variable&apos;" font-size="28" font-variation-settings="&apos;wght&apos; 500" font-weight="500" mix-blend-mode="lighten"><tspan x="0" y="0">Web Design</tspan><tspan x="35.83" y="32">Expert</tspan></text><text transform="translate(67.69 29.91)" fill="#fffefd" font-family="SatoshiVariable-Medium, &apos;Satoshi Variable&apos;" font-size="13.13" font-variation-settings="&apos;wght&apos; 500" font-weight="500" mix-blend-mode="lighten"><tspan x="0" y="0">SELF PROCLAIMED</tspan></text><path d="M9.83,65.13c0,.08.18.76.39.69.17-5.16-.64-10.32.31-15.43-1.8-1.47-3.22-2.46-4.4-4.55-2.7-4.77-2.03-10.18-.43-15.19,2.07,1.8,3.62,4.6,4.52,7.17.55,1.56,1.18,4.07,1.18,5.7,0,2.01-.95,4.16-.89,6.19.98-2.65,1.22-5.56,1.96-8.26.55-2.01,1.44-4.02,2.07-6.01.05-.59-.55-.83-.87-1.27-3.29-4.62-3.19-10-.99-15.11.59-1.37,1.49-2.56,2.06-3.94.97,1.14,1.56,2.98,1.97,4.42,1.29,4.57,1.06,7.92-.7,12.28-.32.78-.93,1.61-1.18,2.36-.06.19-.28.82.1.79.43-1.02.82-2.11,1.35-3.08.8-1.46,1.15-2.15,1.85-3.65,1.5-3.2,3.23-5,5.46-7.51,1.42-1.6,2.43-3.37,3.72-4.92.61-.73,3-2.7,3.24-3.25.34-.77.44-2.26.85-3.27C33.69,3.79,40.22.25,46,0c-2.03,6.6-7.66,13.21-15.13,12.86l-5.51,6.1c.61.12,1.1-.8,1.59-1.16,3.84-2.86,8.6-3.14,13.15-2.08.15.13-1.2,1.68-1.37,1.87-3.21,3.58-7.59,6.38-12.64,5.35-.99-.2-1.93-.82-2.96-.91-.61.15-5.28,7.97-5.64,9.21,3.26-4.8,8.67-6.74,14.35-6.48.38.37-2.41,4.21-2.85,4.72-1.92,2.25-5.28,4.57-8.28,4.89-1.61.17-3.18-.16-4.77-.15-1.29,3.88-2.87,7.71-3.56,11.76l1.68-3.72c2.46-3.79,6.73-6.2,11.09-7.09-1.13,6.7-6.03,13.18-13.37,13.16-.68,4.9-.99,9.88-.79,14.84,0,.24-.15.73.19.68-.54-7.06,3.72-12.91,9.83-15.91.2,6.45-2.01,13.41-8.4,16.07-.4.17-1.27.18-1.41.56.29,4.79,1.6,9.4,2.73,14.02.35.05.19-.45.17-.66-.06-.59-.32-1.2-.37-1.8-.42-5.95,2.39-10.62,6.68-14.44,1.68,6.89.87,14.63-5.61,18.66-.33.69,4.8,10.9,6,11.99-2.5-5.24-1.37-12.26,1.72-17.04.12-.19-.02-.35.44-.25.45,1.25,1.09,2.43,1.53,3.68,1.59,4.59,2.11,9.48-.38,13.86-.4.7-1.68,1.94-1.39,2.63.35.84,2.93,3.72,3.69,4.58.94,1.06,3.03,3.41,4.03,4.23.24.2.5.38.79.49.12-.13-1.6-2.24-1.8-2.62-2.05-3.87-2.11-9.29-1.01-13.46.06-.22.18-1.21.55-1.02,4.36,4.86,7.17,10.23,5.74,16.94-.14.65-.86,2.01-.64,2.51.18.41,3.24,2.44,3.86,2.84,2.09,1.36,4.38,2.67,6.67,3.65-2.6-1.69-4.36-3.88-5.51-6.77-.38-.97-1.37-4.02-1.37-4.92v-3.44c6.33,3.17,10.6,9.23,10.32,16.51.18.29,2.58,1.06,3.1,1.23.82.27,4.57,1.13,4.87,1.42.33.31.12.99-.2,1.19-.73.45-6.96-2.04-8.16-2.4-1.71,2.15-4.23,3.78-6.93,4.39-3.89.88-8.34-.03-11.9-1.74-.38-.18-.92-.35-1.11-.75,4.16-2.87,8.6-4.95,13.81-4.08,1.76.29,3.07,1.05,4.66,1.63.19.07.64.26.6-.1-1.78-.88-3.57-1.76-5.37-2.61-.3-.14-.66-.03-1.11-.23-2.23-.99-4.52-3.06-6.59-4.38-6.2,4.46-14.19,1.92-19.26-3.01-.19-.19-.37-.26-.3-.58,5.14-2.15,10.73-2.32,15.59.62,1.02.62,1.75,1.38,2.69,2.02.16.11.38.53.59.2l-5.9-5.1-4.71-5.72c-7.65,2.39-14.82-2.78-17.89-9.52h3.83c1.95,0,5.65,1.45,7.36,2.47,2.69,1.61,4.22,3.76,6.11,6.17-1.1-2.94-3.47-5-4.95-7.73-.98-1.81-1.81-3.89-2.55-5.8C6.27,82.3,1.47,75.06,0,67.89c-.02-.59,3.93,1.07,4.26,1.24,5.43,2.73,7.06,6.17,9.15,11.48.1.26.24.89.54.93-1.31-5.05-3.23-9.93-3.71-15.2C2.84,64.21-.32,55.59.59,48.53c3.68,1.84,7.09,5.84,8.4,9.77.26.77.83,2.78.83,3.49,0,1.03-.11,2.36,0,3.34Z" fill="#fff"/><path d="M27.72,1.96c.9,5.12.58,10.86-2.2,15.38-.96,1.56-2.43,2.88-3.4,4.46-4.16-6.75-.17-15.47,5.6-19.84Z" fill="#fff"/><path d="M242,65.13c0,.08-.18.76-.39.69-.17-5.16.64-10.32-.31-15.43,1.8-1.47,3.22-2.46,4.4-4.55,2.7-4.77,2.03-10.18.43-15.19-2.07,1.8-3.62,4.6-4.52,7.17-.55,1.56-1.18,4.07-1.18,5.7,0,2.01.95,4.16.89,6.19-.98-2.65-1.22-5.56-1.96-8.26-.55-2.01-1.44-4.02-2.07-6.01-.05-.59.55-.83.87-1.27,3.29-4.62,3.19-10,.99-15.11-.59-1.37-1.49-2.56-2.06-3.94-.97,1.14-1.56,2.98-1.97,4.42-1.29,4.57-1.06,7.92.7,12.28.32.78.93,1.61,1.18,2.36.06.19.28.82-.1.79-.43-1.02-.82-2.11-1.35-3.08-.8-1.46-1.15-2.15-1.85-3.65-1.5-3.2-3.23-5-5.46-7.51-1.42-1.6-2.43-3.37-3.72-4.92-.61-.73-3-2.7-3.24-3.25-.34-.77-.44-2.26-.85-3.27-2.27-5.51-8.8-9.05-14.58-9.3,2.03,6.6,7.66,13.21,15.13,12.86l5.51,6.1c-.61.12-1.1-.8-1.59-1.16-3.84-2.86-8.6-3.14-13.15-2.08-.15.13,1.2,1.68,1.37,1.87,3.21,3.58,7.59,6.38,12.64,5.35.99-.2,1.93-.82,2.96-.91.61.15,5.28,7.97,5.64,9.21-3.26-4.8-8.67-6.74-14.35-6.48-.38.37,2.41,4.21,2.85,4.72,1.92,2.25,5.28,4.57,8.28,4.89,1.61.17,3.18-.16,4.77-.15,1.29,3.88,2.87,7.71,3.56,11.76l-1.68-3.72c-2.46-3.79-6.73-6.2-11.09-7.09,1.13,6.7,6.03,13.18,13.37,13.16.68,4.9.99,9.88.79,14.84,0,.24.15.73-.19.68.54-7.06-3.72-12.91-9.83-15.91-.2,6.45,2.01,13.41,8.4,16.07.4.17,1.27.18,1.41.56-.29,4.79-1.6,9.4-2.73,14.02-.35.05-.19-.45-.17-.66.06-.59.32-1.2.37-1.8.42-5.95-2.39-10.62-6.68-14.44-1.68,6.89-.87,14.63,5.61,18.66.33.69-4.8,10.9-6,11.99,2.5-5.24,1.37-12.26-1.72-17.04-.12-.19.02-.35-.44-.25-.45,1.25-1.09,2.43-1.53,3.68-1.59,4.59-2.11,9.48.38,13.86.4.7,1.68,1.94,1.39,2.63-.35.84-2.93,3.72-3.69,4.58-.94,1.06-3.03,3.41-4.03,4.23-.24.2-.5.38-.79.49-.12-.13,1.6-2.24,1.8-2.62,2.05-3.87,2.11-9.29,1.01-13.46-.06-.22-.18-1.21-.55-1.02-4.36,4.86-7.17,10.23-5.74,16.94.14.65.86,2.01.64,2.51-.18.41-3.24,2.44-3.86,2.84-2.09,1.36-4.38,2.67-6.67,3.65,2.6-1.69,4.36-3.88,5.51-6.77.38-.97,1.37-4.02,1.37-4.92v-3.44c-6.33,3.17-10.6,9.23-10.32,16.51-.18.29-2.58,1.06-3.1,1.23-.82.27-4.57,1.13-4.87,1.42-.33.31-.12.99.2,1.19.73.45,6.96-2.04,8.16-2.4,1.71,2.15,4.23,3.78,6.93,4.39,3.89.88,8.34-.03,11.9-1.74.38-.18.92-.35,1.11-.75-4.16-2.87-8.6-4.95-13.81-4.08-1.76.29-3.07,1.05-4.66,1.63-.19.07-.64.26-.6-.1,1.78-.88,3.57-1.76,5.37-2.61.3-.14.66-.03,1.11-.23,2.23-.99,4.52-3.06,6.59-4.38,6.2,4.46,14.19,1.92,19.26-3.01.19-.19.37-.26.3-.58-5.14-2.15-10.73-2.32-15.59.62-1.02.62-1.75,1.38-2.69,2.02-.16.11-.38.53-.59.2l5.9-5.1,4.71-5.72c7.65,2.39,14.82-2.78,17.89-9.52h-3.83c-1.95,0-5.65,1.45-7.36,2.47-2.69,1.61-4.22,3.76-6.11,6.17,1.1-2.94,3.47-5,4.95-7.73.98-1.81,1.81-3.89,2.55-5.8,8.06-.05,12.86-7.29,14.33-14.46.02-.59-3.93,1.07-4.26,1.24-5.43,2.73-7.06,6.17-9.15,11.48-.1.26-.24.89-.54.93,1.31-5.05,3.23-9.93,3.71-15.2,7.4-2.13,10.57-10.75,9.65-17.81-3.68,1.84-7.09,5.84-8.4,9.77-.26.77-.83,2.78-.83,3.49,0,1.03.11,2.36,0,3.34Z" fill="#fff"/><path d="M224.12,1.96c-.9,5.12-.58,10.86,2.2,15.38.96,1.56,2.43,2.88,3.4,4.46,4.16-6.75.17-15.47-5.6-19.84Z" fill="#fff"/></g></g></g></svg>