<?xml version="1.0" encoding="UTF-8"?><svg id="b" xmlns="http://www.w3.org/2000/svg" width="914.73" height="524.03" viewBox="0 0 914.73 524.03"><g id="c"><path d="M157.21,0l-9.24,80.92c-4.63,41.61-8.48,83.23-10.79,124.84-2.32,42.39-3.86,84-3.86,126.39h-13.1c0-83.99-4.62-167.99-14.65-251.22L96.33,0H0v524.03h61.65v-40.85c0-99.41-6.17-199.6-18.49-298.24l13.1-2.31,40.07,341.39h60.88l40.07-341.39,13.1,2.31c-12.33,98.64-18.49,198.83-18.49,298.24v40.85h61.65V0h-96.33Z" fill="#f8892a"/><path d="M416.91,0h-104.81l-35.45,524.03h61.65l10.03-152.58h32.37l10.02,152.58h60.88L416.91,0ZM352.17,309.8c3.86-53.18,5.39-107.12,5.39-161.06V60.88h13.1v87.86c0,53.95,2.31,107.88,5.39,161.06h-23.89Z" fill="#f8892a"/><path d="M641.16,152.58v-82.46c0-38.54-31.59-70.13-70.12-70.13h-26.21c-38.53,0-70.13,31.59-70.13,70.13v383.78c0,38.54,31.6,70.13,70.13,70.13h26.21c38.53,0,70.12-31.59,70.12-70.13v-222.71h-83.23v61.65h21.58v147.96c0,12.33-9.24,22.34-21.58,22.34s-21.58-10.02-21.58-22.34V83.23c0-12.33,9.25-22.35,21.58-22.35,6.17,0,11.56,3.08,15.42,6.94,3.85,3.85,6.16,9.24,6.16,15.41v104.81l61.65-35.45Z" fill="#f8892a"/><path d="M694.6,71.86c-5.17,0-17.46.65-30.31,8.07v444.11h60.88V80.06c-4.51-2.63-15.45-8.2-30.56-8.2Z" fill="#f8892a"/><path d="M914.73,152.58v-82.46c0-38.54-31.59-70.13-70.13-70.13h-26.2c-38.54,0-70.13,31.59-70.13,70.13v383.78c0,38.54,31.59,70.13,70.13,70.13h26.2c38.54,0,70.13-31.59,70.13-70.13v-161.06l-61.65,35.45v112.51c0,12.33-9.24,22.34-21.58,22.34s-21.58-10.02-21.58-22.34V83.23c0-12.33,9.25-22.35,21.58-22.35,6.17,0,11.56,3.08,15.41,6.94,3.86,3.85,6.17,9.24,6.17,15.41v104.81l61.65-35.45Z" fill="#f8892a"/><path d="M724.98,62.28c-12.34-4.6-23.16-5.5-30.35-5.5s-18.01.9-30.35,5.5c6.21-8.49,12.42-16.99,18.63-25.48-6.21-12.27-12.42-24.53-18.63-36.8,10.15,6.97,20.29,13.93,30.44,20.9,10.09-6.97,20.17-13.93,30.26-20.9-4.96,11.75-9.92,23.51-14.88,35.26,4.96,9.01,9.92,18.01,14.88,27.02Z" fill="#3a1f0c"/></g></svg>