<?xml version="1.0" encoding="UTF-8"?><svg id="b" xmlns="http://www.w3.org/2000/svg" width="215.78" height="667.32" viewBox="0 0 215.78 667.32"><g id="c"><path d="M59.46,0c23.98,0,43.64,19.66,43.64,43.64v51.31l-37.88,22.06V51.79c0-3.84-1.44-7.19-4.32-9.59-1.92-2.4-5.27-3.84-8.63-3.84h-.96c-7.67,0-13.43,6.71-13.43,13.91v54.19c0,10.07,5.27,18.7,13.43,23.98l27.33,15.34c15.34,8.63,24.46,24.94,24.46,42.68v93.99c0,23.98-19.66,43.64-43.64,43.64h-16.3c-23.98,0-43.16-19.66-43.16-43.64v-78.64l37.88-21.58v91.59c0,7.19,5.27,13.43,12.47,13.91h1.44c7.19,0,13.43-5.75,13.43-13.43v-76.72c0-9.59-5.27-18.7-13.91-23.5l-26.85-15.82C9.11,149.61,0,133.79,0,116.04V43.64C0,19.66,19.18,0,43.16,0h16.3Z" fill="#f5ede3"/><path d="M177.9,0h37.88v282.44c0,23.98-19.18,43.64-43.16,43.64h-16.3c-23.98,0-43.64-19.66-43.64-43.64V0h37.88v274.28c0,7.67,6.23,13.91,13.91,13.91,7.19,0,13.43-6.23,13.43-13.91V0Z" fill="#f5ede3"/><path d="M158.24,667.32h-38.36v-25.41c0-61.86,3.84-124.2,11.51-185.57l-8.15-1.44-24.94,212.43h-37.88l-24.94-212.43-8.15,1.44c7.67,61.38,11.51,123.72,11.51,185.57v25.41H.48v-326.07h59.94l5.75,50.35c6.23,51.79,9.11,104.06,9.11,156.32h8.15c0-26.37.96-52.27,2.4-78.64,1.44-25.89,3.84-51.79,6.71-77.68l5.75-50.35h59.94v326.07Z" fill="#f5ede3"/><path d="M167.83,341.25h37.88v326.07h-37.88v-326.07Z" fill="#f5ede3"/></g></svg>