<?xml version="1.0" encoding="UTF-8"?><svg id="b" xmlns="http://www.w3.org/2000/svg" width="934.19" height="574.35" viewBox="0 0 934.19 574.35"><g id="c"><path d="M300.39,568.99c-33.36-2.37-66.65-5.38-99.9-9-21.89-66.77-37.18-134.67-42.91-204.77-2.27-34.7-2.87-69.3-1.78-104.06-5.73.08-8.6.11-14.33.19-1.14,34.58-.52,68.98,1.86,103.5,5.57,68.28,15.94,135.64,32.18,202.21-33.39-4.19-66.68-8.99-99.9-14.42C-4.84,381.04-29.22,206.87,42.57,37.43c19.3-3.5,38.65-6.73,58.03-9.74-18.62,54.82-30.15,110.34-34.57,168.07-5.04,83.92,2.84,166.85,21.19,248.82,5.47.44,8.21.66,13.69,1.08-17.67-83.65-18.76-167.23-3.29-251.31,12.28-59.66,30.37-117.32,52.93-173.87,24.94-3.26,49.9-6.19,74.92-8.78-10.99,59.13-16.88,118.55-18.13,178.67-1.15,88.12,4.99,175.87,16.74,263.18,5.47.28,8.21.41,13.69.67-10.9-88.34-10.47-176.5,1.16-264.74,8.96-61.43,21.37-122.09,36.49-182.29,19.33-1.48,38.67-2.77,58.03-3.87-34.88,186.65-52.87,376.16-33.05,565.65Z" fill="#fff"/><path d="M446.56,0c40.18-.19,69.07,40.02,70.7,77.33,5.75,139.87,5.75,279.82,0,419.69-1.63,37.31-30.52,77.51-70.7,77.33-9.99-.05-14.98-.1-24.97-.26-39.92-.72-70.22-41.01-73.23-78.25-10.62-139.03-10.62-278.3,0-417.33C351.37,41.27,381.67.98,421.59.26c9.99-.16,14.98-.21,24.97-.26ZM455.17,91.2c-.07-12.69-9.83-24.61-22.57-24.4-12.57.2-22.09,12.25-22.66,24.69-3.99,130.44-3.99,260.92,0,391.36.56,12.45,10.09,24.49,22.66,24.69,12.74.2,22.49-11.71,22.57-24.4-.23-130.65-.23-261.3,0-391.94Z" fill="#fff"/><path d="M727.18,230.52c2.36,31.72-16.97,61.23-43.43,77.15,25.15,12.06,44.49,37.97,41.37,66.91-5.56,63.48-16.26,125.95-31.75,187.76-19.56,2-39.15,3.77-58.76,5.26,11.69-63.35,19.68-127.07,23.82-191.35,1.75-15.73-12.64-27.31-27.12-27.66-7.39.09-11.08.14-18.47.22-2.56,74.21-9.05,148.04-19.36,221.57-19.34,1.08-38.67,1.98-58.03,2.68,15.11-190.4,15.11-381.39,0-571.8,30.39,1.11,60.74,2.73,91.08,4.87,39.67,3.1,75.95,41.67,83.22,79.51,8.73,48,14.58,96.17,17.44,144.87ZM649.28,99.95c-1.6-15.12-15.65-27.82-30.32-29.41-6.86-.33-10.29-.48-17.16-.77,7.52,70.34,11.53,140.83,11.97,211.58,8.43-4.66,12.64-6.97,21.04-11.59,15.82-8.66,25.77-26.5,24.98-44.44-1.93-41.95-5.45-83.68-10.52-125.37Z" fill="#fff"/><path d="M806.48,26.35c39.19,6.22,81.87,40.79,95.73,77.93,42.64,121.01,42.64,244.78,0,365.8-13.86,37.14-56.54,71.71-95.73,77.93-30.3,4.5-60.65,8.5-91.08,11.98,49.78-180.3,49.78-365.32,0-545.62,30.43,3.49,60.78,7.48,91.08,11.98ZM844.2,113.86c-4.02-14.87-19.56-26.43-34.19-28.82-6.86-.71-10.29-1.06-17.16-1.74,35.76,135.18,35.76,272.58,0,407.76,6.86-.68,10.29-1.03,17.16-1.74,14.63-2.39,30.17-13.95,34.19-28.82,30.49-115.22,30.49-231.41,0-346.63Z" fill="#fff"/></g></svg>