<?xml version="1.0" encoding="UTF-8"?><svg id="b" xmlns="http://www.w3.org/2000/svg" width="114.81" height="95" viewBox="0 0 114.81 95"><g id="c"><path d="M34.51,90.4s-.29.31-.35.32c-.23-.06-.38-.29-.61-.35-2.92-.88-6.18-2.39-8.87-3.9-4.55-2.56-8.9-5.97-11.74-10.4-.72-.05-1.45.19-2.19.07-2.37-.38-4.44-5.15-5.12-7.22-2.23-6.84-1.41-14.49,2.05-20.77-2.67-6.76-4.52-13.93-5.88-21.07C.59,20.61-.88,10.34.66,3.96,1.25,1.55,1.87.34,4.64.57c3.94.33,12.3,5.62,15.7,7.99,1.81,1.26,3.48,2.84,5.3,4.06.92.61,1.11-.26,1.63-.78,14.13-14.29,34.14-15.88,50.15-3.47.39.3,1.99,1.84,2.28,1.84.59-.37.93-1.17,1.41-1.71,2.12-2.37,4.96-4.7,7.66-6.38,1.67-1.04,5.51-3.55,6.54-.57.37,1.08.36,2.22.51,3.32.83,6.15,1,12.53.41,18.74-.03.36-.06,1.08,0,1.41s2.24,3.15,2.66,3.86c2.83,4.85,4.64,11.37,3.51,16.93-.13.64-.68,1.39-.83,2-.3,1.22.6,3.33.86,4.62.41,2.02.79,4.57.89,6.63.09,1.81-.1,3.68,0,5.47h7.16c.7,0,2.58.63,3.3.82.38.1,1.14-.18,1.03.32-.97.1-1.96-.24-2.9-.29-2.86-.14-5.76.21-8.6.5-.56.18-.47,1.11-.57,1.69-.23,1.21-.83,1.5.83,1.89,3.71.89,7.32,1.79,10.59,3.89l.66.69c-1.8-.67-3.58-1.47-5.42-2.03-1.22-.37-6.62-1.83-7.49-1.31-.2.55-1.33,2.43-.85,2.84.45.38,1.78.81,2.39,1.15,1.88,1.07,4.5,2.94,5.91,4.59.12.14.74.89.64.99l-2.42-1.9c-1.93-1.14-3.89-2.62-6-3.51-.77-.32-1.36-.77-1.92.12-1.18,1.88-1.88,3.23-3.42,4.95-6.55,7.27-21.46,15.06-31.27,15.09-.15,0-.52-.1-.65-.2,3.17-1.1,6.4-2.06,9.54-3.23,8.24-3.07,17.86-7.78,22.89-15.26.26-.38,1.54-2.37,1.46-2.63-.64-.51-1.79-.67-2.51-1.05-.4-.21-.22-.57.25-.54.64.04,2.08.53,2.61.47.65-.08,1.18-1.9,1.06-2.49l-3.72-.33-.24-.4c.34.06.97-.28,1.21-.28h3.12c.21,0,.34-.6-.01-.7l-4.03-1.36c1.24-.67,2.78-.7,4.15-.96.52-.1.98-.2.81-.82-.44,0-.89-.03-1.33.02-1.13.12-3.56,1.03-4.41.97-.53-.04-1.33-.95-1.98-.97l-.09-.44c3.33.2,5.95-2,7.16-4.97,1.05-2.54.82-4.78.07-7.37-.38-.1-.24.24-.51.4-.9.52-2.74.26-3.82.3-.79.03-1.67.22-2.49.21-.26.18-.09,1.44-.14,1.85-.23,2.19-1.82,6.31-4.71,5.28-1.73-.62-2.44-2.68-2.77-4.32-.08-.39.13-1.15-.39-1.18l-.75.32c-.2.35.19,2.57.32,3.09.18.68.6,1.19.64,1.84-2.87-.74-5.5-.81-8.28.3-.48.19-.78.71-1.4.53-.18-.05-.89-.64-1.19-.8-.7-.37-1.43-.72-2.15-1.04.82-6.7-1.9-14.34-8.4-17.21-7.95-3.51-20.06.76-25.82,6.8-1.21,1.27-1.11,1.97-.75,3.6,1.61,7.24,10.72,11.62,17.57,11.79.95.02,1.89-.26,2.84-.14.2.02.42.08.21.28-2.43.71-4.89,1.3-7.18,2.41-6.91-1.32-14.18-1.73-21.09-.24-1.86.4-3.99.96-5.64,1.88,1.01.03,2.1-.41,3.09-.6,6.92-1.33,13.41-1.34,20.39-.46.87.11,2.1.23,2.91.5.25.08.34,0,.28.35h-2.34c-.2,0-3.21,1.83-3.47,2.06-.28.26-.4.7-.53.78-.46.29-4.31.75-5.33,1.02-2.04.54-4.82,1.59-6.73,2.49-.54.25-3.57,1.9-3.73,2.22-.11.22.08.25.3.15,2.8-1.31,5.61-2.53,8.61-3.3,3.41-.88,7.01-1.44,10.53-1.46l-3.45,1.58c-4.47,2.22-10.45,9.07-10.45,14.23,0,.56.11,2,0,2.41ZM76.16,9.42c-6.96-5.38-16.54-8.64-25.41-7.72-7.76.81-16.75,5.1-21.92,10.99-.25.28-1.03,1.13-1,1.42l7.72,7.71c.83-.51,1.72-.97,2.6-1.38,12.51-5.8,28.01-9.3,41.62-5.63.73.2,1.43.51,2.12.78.21-.23-1.5-2.25-1.77-2.55-1.09-1.22-2.67-2.63-3.96-3.63ZM15.78,35.73h-2.98l.09-.44c.72-.32,1.35-.81,2.04-1.2.44-.25,1.85-.61,1.7-1.13l-4.78-1.88c-.22.03-.25-.25-.18-.31.1-.1,2.44-.54,2.77-.57.84-.07,1.91.12,2.7,0,.4-.06.23-.4.07-.65-.84-1.36-3.78-3.38-4.87-4.75l-.1-.41c1.45.39,2.98.8,4.39,1.35.9.35,3.56,1.87,4.18,1.92.22.02.25,0,.22-.22-2.53-5.21-5.7-10.27-9.31-14.8-1.36-1.71-3.34-4.14-4.95-5.55-.9-.79-2.09-2.08-2.94-.52-.46.84-.63,2.86-.69,3.85-.57,10.94,2.56,22.88,6.17,33.12.15.42.31.57.64.21.49-.53,1.15-1.91,1.64-2.61,1.23-1.74,2.68-3.29,3.96-4.98.11-.14.28-.18.21-.43ZM93.24,5.96c-.33-.05-.45.26-.59.47-1.19,1.77-2.86,7.24-3.45,9.46-.15.56-.7,2.24-.35,2.63.19.21,1.58.98,1.98,1.29,1.01.78,1.92,1.69,2.92,2.48.58,0,.33-1.74.36-2.2.23-3.65.2-7.42-.29-11.06-.14-1.02-.42-2.03-.57-3.05ZM94.29,25.61c-15.03-17.3-44.61-10.53-61.89-.28-13.18,7.81-29.9,24.45-25.49,41.32.55,2.11,1.44,4.2,2.62,6.03h.44c1.12-2.66,2.73-5.29,4.42-7.64,13.98-19.52,42.36-36.4,66.97-31.83,6.79,1.26,14.43,3.9,18.24,9.99.33.52.3,1.22,1.02,1.04,1.14-6.71-2-13.66-6.32-18.64ZM100.19,52.33c-.31-5.04-5.41-12.91-11.11-8.91-3.22,2.26-4.36,7.16-4.49,10.89.24.24,1.95-.92,2.36-1.11,3.91-1.85,9.12-2.12,13.24-.87Z"/><path d="M69.83,54.45c-3.14-.78-6.31-1.79-9.56-1.96l-.21.21c.08,4.23-3.35,8.09-7.78,6.32-2.68-1.07-4.19-3.73-4.57-6.5-.05-.38.1-1.38-.15-1.55-1.64-.27-3.44-.55-5-1.1-.47-.16-1.37-.35-1.25-.95,1.87.18,3.74.07,5.61.14,5,.17,10.11.52,15.01,1.58,1.77.38,6.53,1.79,7.68,3.1.22.24.25.39.21.71Z"/><path d="M88.13,73.17c-.73,2.04-2.83,2.64-4.59,1.25-.61-.48-1.21-1.96-1.84-1.82-.08.02-.71.99-.94,1.22-4.24,4.05-12.79,4.55-16.74-.15.53-.2,1.07.43,1.58.69,4.74,2.42,11.32,2.02,14.95-2.18,1.31-1.52,1.32-2.83,1.22-4.77,0-.19.1-.38.08-.53-.08-.62-1.86-1.39-2.45-1.79-1.2-.81-3.6-2.42-1.34-3.48,1.87-.88,6.02-.92,7.9-.1,2.16.93-.11,3.03-1.09,3.93-.48.44-1.22.66-1.5,1.34.08,2.39-1.26,4.14.45,6.23.7.85,1.49,1.35,2.62,1.09.73-.17,1-.88,1.69-.93Z"/><path d="M18.47,57.57c-.38.06-.25-.07-.32-.31-1.7-5.42-2.5-10.36-2.1-16.08.02-.24-.01-.47.22-.63.37,1.46.11,2.98.21,4.46.19,2.81.65,5.98,1.17,8.75.24,1.28.68,2.52.81,3.8Z"/><path d="M41.46,39.56c-.4.07-.24-.09-.32-.31-1.58-4.35-2.23-8.92-2.67-13.5-.07-.67-.61-1.56-.06-2.21l3.05,16.02Z"/><path d="M70.11,31.76c-.32.12-.48-.62-.53-.82-.67-2.64-1-5.33-1.84-7.95-.68-2.12-1.74-4.12-2.31-6.27.61.67,1.1,1.71,1.49,2.55,1.78,3.84,2.93,8.25,3.19,12.48Z"/><path d="M79.76,32.05c-.43.08-.22-.13-.3-.33-1.17-3.06-1.6-6.83-2.9-10.16-.21-.54-1.85-3.71-1.63-3.97.32-.07.31.17.43.35.42.65.86,1.63,1.2,2.35,1.71,3.68,2.99,7.7,3.19,11.77Z"/><path d="M32.66,44.67c-.26-.04-.24-.29-.3-.48-.64-1.83-1.08-4.06-1.38-5.99-.44-2.82-.71-5.71-.73-8.56.27.06.26.28.29.49.57,4.23,1.28,8.48,1.87,12.73.08.55.43,1.14.25,1.81Z"/><path d="M25.14,49.77c-.24-.04-.25-.28-.32-.46-.76-1.95-1.31-4.92-1.63-7.02-.39-2.55-.55-5.11-.46-7.69l2.41,15.17Z"/><path d="M84.87,19.99c1.26,2.27,2.26,4.68,2.94,7.2.56,2.08,1.09,4.42.89,6.55-.54-.44-.34-1.42-.46-2.02-.63-3.26-1.66-6.66-2.88-9.75-.18-.46-.67-1.16-.77-1.64-.06-.28-.05-.41.28-.35Z"/><path d="M13.37,64.1l-.6-.89c-1.6-4.64-2.37-9.51-2.1-14.42.51.33.23,1.22.28,1.77.38,3.63.88,7.53,1.73,11.03.19.77.68,1.66.67,2.51Z"/><path d="M50.96,35.88l-.65-1.55c-1-4.44-2.13-8.84-2.9-13.34.21.22.54.86.64,1.13,1.04,2.96,2.05,7.87,2.59,11.03.14.84.17,1.87.32,2.73Z"/><path d="M95.65,37.44l-1.6-6.84c-.45-2.26-2.02-4.44-2.72-6.5-.08-.24-.11-.45-.08-.7.63.72,1.24,1.78,1.66,2.66,1.63,3.39,2.86,7.6,2.73,11.37Z"/><path d="M60.61,33.04l-3.69-13.61c.51.16.35.66.49,1,.96,2.33,1.83,4.89,2.42,7.37.41,1.73.76,3.47.77,5.25Z"/></g></svg>