<?xml version="1.0" encoding="UTF-8"?><svg id="b" xmlns="http://www.w3.org/2000/svg" width="262.57" height="236.89" viewBox="0 0 262.57 236.89"><g id="c"><rect x="16.28" y="46.6" width="230.02" height="143.69" rx="11.25" ry="11.25" transform="translate(177.31 289.18) rotate(-147.14)" fill="#ffce31"/><path d="M186.66,200.16c1.61,1.04,2.82,2.29,3.61,3.73.79,1.45,1.15,2.97,1.07,4.57-.07,1.6-.59,3.15-1.57,4.65s-2.19,2.65-3.62,3.37c-1.43.72-2.96,1.02-4.61.9-1.64-.12-3.27-.71-4.89-1.75s-2.84-2.3-3.62-3.74c-.78-1.44-1.13-2.96-1.06-4.56.07-1.6.6-3.16,1.58-4.68s2.17-2.62,3.6-3.34c1.43-.72,2.96-1.03,4.59-.91,1.63.12,3.27.7,4.9,1.76ZM185.24,202.36c-1.97-1.27-3.73-1.71-5.27-1.32-1.54.4-2.87,1.46-3.98,3.18s-1.55,3.4-1.28,4.97c.27,1.57,1.4,2.99,3.37,4.26s3.71,1.7,5.26,1.31c1.55-.39,2.89-1.46,4.02-3.2s1.53-3.37,1.25-4.95c-.28-1.57-1.4-2.99-3.36-4.25Z" fill="#4c4c4c"/><path d="M167.58,187.84c1.61,1.04,2.82,2.29,3.61,3.73.79,1.45,1.15,2.97,1.07,4.57-.07,1.6-.59,3.15-1.57,4.65s-2.19,2.65-3.62,3.37c-1.43.72-2.96,1.02-4.61.9-1.64-.12-3.27-.71-4.89-1.75s-2.84-2.3-3.62-3.74c-.78-1.44-1.13-2.96-1.06-4.56.07-1.6.6-3.16,1.58-4.68s2.17-2.62,3.6-3.34c1.43-.72,2.96-1.03,4.59-.91,1.63.12,3.27.7,4.9,1.76ZM166.16,190.04c-1.97-1.27-3.73-1.71-5.27-1.32-1.54.4-2.87,1.46-3.98,3.18s-1.55,3.4-1.28,4.97c.27,1.57,1.4,2.99,3.37,4.26s3.71,1.7,5.26,1.31c1.55-.39,2.89-1.46,4.02-3.2s1.53-3.37,1.25-4.95c-.28-1.57-1.4-2.99-3.36-4.25Z" fill="#4c4c4c"/><path d="M148.5,175.52c1.61,1.04,2.82,2.29,3.61,3.73.79,1.45,1.15,2.97,1.07,4.57-.07,1.6-.59,3.15-1.57,4.65s-2.19,2.65-3.62,3.37c-1.43.72-2.96,1.02-4.61.9-1.64-.12-3.27-.71-4.89-1.75s-2.84-2.3-3.62-3.74c-.78-1.44-1.13-2.96-1.06-4.56.07-1.6.6-3.16,1.58-4.68s2.17-2.62,3.6-3.34c1.43-.72,2.96-1.03,4.59-.91,1.63.12,3.27.7,4.9,1.76ZM147.08,177.71c-1.97-1.27-3.73-1.71-5.27-1.32-1.54.4-2.87,1.46-3.98,3.18s-1.55,3.4-1.28,4.97c.27,1.57,1.4,2.99,3.37,4.26s3.71,1.7,5.26,1.31c1.55-.39,2.89-1.46,4.02-3.2s1.53-3.37,1.25-4.95c-.28-1.57-1.4-2.99-3.36-4.25Z" fill="#4c4c4c"/><path d="M129.42,163.2c1.61,1.04,2.82,2.29,3.61,3.73.79,1.45,1.15,2.97,1.07,4.57-.07,1.6-.59,3.15-1.57,4.65s-2.19,2.65-3.62,3.37c-1.43.72-2.96,1.02-4.61.9-1.64-.12-3.27-.71-4.89-1.75s-2.84-2.3-3.62-3.74c-.78-1.44-1.13-2.96-1.06-4.56.07-1.6.6-3.16,1.58-4.68s2.17-2.62,3.6-3.34c1.43-.72,2.96-1.03,4.59-.91,1.63.12,3.27.7,4.9,1.76ZM128.01,165.39c-1.97-1.27-3.73-1.71-5.27-1.32-1.54.4-2.87,1.46-3.98,3.18s-1.55,3.4-1.28,4.97c.27,1.57,1.4,2.99,3.37,4.26s3.71,1.7,5.26,1.31c1.55-.39,2.89-1.46,4.02-3.2s1.53-3.37,1.25-4.95c-.28-1.57-1.4-2.99-3.36-4.25Z" fill="#4c4c4c"/><path d="M110.34,150.87c1.61,1.04,2.82,2.29,3.61,3.73.79,1.45,1.15,2.97,1.07,4.57-.07,1.6-.59,3.15-1.57,4.65s-2.19,2.65-3.62,3.37c-1.43.72-2.96,1.02-4.61.9-1.64-.12-3.27-.71-4.89-1.75s-2.84-2.3-3.62-3.74c-.78-1.44-1.13-2.96-1.06-4.56.07-1.6.6-3.16,1.58-4.68s2.17-2.62,3.6-3.34c1.43-.72,2.96-1.03,4.59-.91,1.63.12,3.27.7,4.9,1.76ZM108.93,153.07c-1.97-1.27-3.73-1.71-5.27-1.32-1.54.4-2.87,1.46-3.98,3.18s-1.55,3.4-1.28,4.97c.27,1.57,1.4,2.99,3.37,4.26s3.71,1.7,5.26,1.31c1.55-.39,2.89-1.46,4.02-3.2,1.11-1.72,1.53-3.37,1.25-4.95-.28-1.57-1.4-2.99-3.36-4.25Z" fill="#4c4c4c"/><path d="M91.26,138.55c1.61,1.04,2.82,2.29,3.61,3.73.79,1.45,1.15,2.97,1.07,4.57-.07,1.6-.59,3.15-1.57,4.65s-2.19,2.65-3.62,3.37c-1.43.72-2.96,1.02-4.61.9-1.64-.12-3.27-.71-4.89-1.75s-2.84-2.3-3.62-3.74c-.78-1.44-1.13-2.96-1.06-4.56.07-1.6.6-3.16,1.58-4.68s2.17-2.62,3.6-3.34c1.43-.72,2.96-1.03,4.59-.91,1.63.12,3.27.7,4.9,1.76ZM89.85,140.74c-1.97-1.27-3.73-1.71-5.27-1.32-1.54.4-2.87,1.46-3.98,3.18-1.13,1.74-1.55,3.4-1.28,4.97.27,1.57,1.4,2.99,3.37,4.26s3.71,1.7,5.26,1.31c1.55-.39,2.89-1.46,4.02-3.2s1.53-3.37,1.24-4.95c-.28-1.57-1.4-2.99-3.36-4.25Z" fill="#4c4c4c"/><path d="M72.19,126.23c1.61,1.04,2.82,2.29,3.61,3.73.79,1.45,1.15,2.97,1.07,4.57-.07,1.6-.59,3.15-1.57,4.65s-2.19,2.65-3.62,3.37c-1.43.72-2.96,1.02-4.61.9-1.64-.12-3.27-.71-4.89-1.75s-2.84-2.3-3.62-3.74c-.78-1.44-1.13-2.96-1.06-4.56.07-1.6.6-3.16,1.58-4.68s2.17-2.62,3.6-3.34c1.43-.72,2.96-1.03,4.59-.91,1.63.12,3.27.7,4.9,1.76ZM70.77,128.42c-1.97-1.27-3.73-1.71-5.27-1.32-1.54.4-2.87,1.46-3.98,3.18s-1.55,3.4-1.28,4.97c.27,1.57,1.4,2.99,3.37,4.26s3.71,1.7,5.26,1.31c1.55-.39,2.89-1.46,4.02-3.2s1.53-3.37,1.25-4.95c-.28-1.57-1.4-2.99-3.36-4.25Z" fill="#4c4c4c"/><path d="M53.11,113.9c1.61,1.04,2.82,2.29,3.61,3.73.79,1.45,1.15,2.97,1.07,4.57-.07,1.6-.59,3.15-1.57,4.65s-2.19,2.65-3.62,3.37c-1.43.72-2.96,1.02-4.61.9-1.64-.12-3.27-.71-4.89-1.75s-2.84-2.3-3.62-3.74c-.78-1.44-1.13-2.96-1.06-4.56.07-1.6.6-3.16,1.58-4.68s2.17-2.62,3.6-3.34c1.43-.72,2.96-1.03,4.59-.91,1.63.12,3.27.7,4.9,1.76ZM51.69,116.1c-1.97-1.27-3.73-1.71-5.27-1.32-1.54.4-2.87,1.46-3.98,3.18s-1.55,3.4-1.28,4.97c.27,1.57,1.4,2.99,3.37,4.26s3.71,1.7,5.26,1.31c1.55-.39,2.89-1.46,4.02-3.2s1.53-3.37,1.24-4.95c-.28-1.57-1.4-2.99-3.36-4.25Z" fill="#4c4c4c"/><path d="M34.03,101.58c1.61,1.04,2.82,2.29,3.61,3.73.79,1.45,1.15,2.97,1.07,4.57-.07,1.6-.59,3.15-1.57,4.65s-2.19,2.65-3.62,3.37c-1.43.72-2.96,1.02-4.61.9-1.64-.12-3.27-.71-4.89-1.75s-2.84-2.3-3.62-3.74c-.78-1.44-1.13-2.96-1.06-4.56.07-1.6.6-3.16,1.58-4.68s2.17-2.62,3.6-3.34c1.43-.72,2.96-1.03,4.59-.91,1.63.12,3.27.7,4.9,1.76ZM32.61,103.78c-1.97-1.27-3.73-1.71-5.27-1.32-1.54.4-2.87,1.46-3.98,3.18s-1.55,3.4-1.28,4.97c.27,1.57,1.4,2.99,3.37,4.26s3.71,1.7,5.26,1.31c1.55-.39,2.89-1.46,4.02-3.2,1.11-1.72,1.53-3.37,1.25-4.95-.28-1.57-1.4-2.99-3.36-4.25Z" fill="#4c4c4c"/><path d="M203.95,173.39c1.61,1.04,2.82,2.29,3.61,3.73.79,1.45,1.15,2.97,1.07,4.57-.07,1.6-.59,3.15-1.57,4.65s-2.19,2.65-3.62,3.37c-1.43.72-2.96,1.02-4.61.9-1.64-.12-3.27-.71-4.89-1.75s-2.84-2.3-3.62-3.74c-.78-1.44-1.13-2.96-1.06-4.56.07-1.6.6-3.16,1.58-4.68s2.17-2.62,3.6-3.34c1.43-.72,2.96-1.03,4.59-.91,1.63.12,3.27.7,4.9,1.76ZM202.54,175.58c-1.97-1.27-3.73-1.71-5.27-1.32-1.54.4-2.87,1.46-3.98,3.18s-1.55,3.4-1.28,4.97c.27,1.57,1.4,2.99,3.37,4.26s3.71,1.7,5.26,1.31c1.55-.39,2.89-1.46,4.02-3.2s1.53-3.37,1.25-4.95c-.28-1.57-1.4-2.99-3.36-4.25Z" fill="#4c4c4c"/><path d="M184.88,161.07c1.61,1.04,2.82,2.29,3.61,3.73.79,1.45,1.15,2.97,1.07,4.57-.07,1.6-.59,3.15-1.57,4.65s-2.19,2.65-3.62,3.37c-1.43.72-2.96,1.02-4.61.9-1.64-.12-3.27-.71-4.89-1.75s-2.84-2.3-3.62-3.74c-.78-1.44-1.13-2.96-1.06-4.56.07-1.6.6-3.16,1.58-4.68s2.17-2.62,3.6-3.34c1.43-.72,2.96-1.03,4.59-.91,1.63.12,3.27.7,4.9,1.76ZM183.46,163.26c-1.97-1.27-3.73-1.71-5.27-1.32-1.54.4-2.87,1.46-3.98,3.18s-1.55,3.4-1.28,4.97c.27,1.57,1.4,2.99,3.37,4.26s3.71,1.7,5.26,1.31c1.55-.39,2.89-1.46,4.02-3.2s1.53-3.37,1.25-4.95c-.28-1.57-1.4-2.99-3.36-4.25Z" fill="#4c4c4c"/><path d="M165.8,148.74c1.61,1.04,2.82,2.29,3.61,3.73.79,1.45,1.15,2.97,1.07,4.57-.07,1.6-.59,3.15-1.57,4.65s-2.19,2.65-3.62,3.37c-1.43.72-2.96,1.02-4.61.9-1.64-.12-3.27-.71-4.89-1.75s-2.84-2.3-3.62-3.74c-.78-1.44-1.13-2.96-1.06-4.56.07-1.6.6-3.16,1.58-4.68s2.17-2.62,3.6-3.34c1.43-.72,2.96-1.03,4.59-.91,1.63.12,3.27.7,4.9,1.76ZM164.38,150.94c-1.97-1.27-3.73-1.71-5.27-1.32-1.54.4-2.87,1.46-3.98,3.18s-1.55,3.4-1.28,4.97c.27,1.57,1.4,2.99,3.37,4.26s3.71,1.7,5.26,1.31c1.55-.39,2.89-1.46,4.02-3.2s1.53-3.37,1.25-4.95c-.28-1.57-1.4-2.99-3.36-4.25Z" fill="#4c4c4c"/><path d="M146.72,136.42c1.61,1.04,2.82,2.29,3.61,3.73.79,1.45,1.15,2.97,1.07,4.57-.07,1.6-.59,3.15-1.57,4.65s-2.19,2.65-3.62,3.37c-1.43.72-2.96,1.02-4.61.9-1.64-.12-3.27-.71-4.89-1.75s-2.84-2.3-3.62-3.74c-.78-1.44-1.13-2.96-1.06-4.56.07-1.6.6-3.16,1.58-4.68s2.17-2.62,3.6-3.34c1.43-.72,2.96-1.03,4.59-.91,1.63.12,3.27.7,4.9,1.76ZM145.3,138.61c-1.97-1.27-3.73-1.71-5.27-1.32-1.54.4-2.87,1.46-3.98,3.18s-1.55,3.4-1.28,4.97c.27,1.57,1.4,2.99,3.37,4.26s3.71,1.7,5.26,1.31c1.55-.39,2.89-1.46,4.02-3.2s1.53-3.37,1.25-4.95c-.28-1.57-1.4-2.99-3.36-4.25Z" fill="#4c4c4c"/><path d="M127.64,124.1c1.61,1.04,2.82,2.29,3.61,3.73.79,1.45,1.15,2.97,1.07,4.57-.07,1.6-.59,3.15-1.57,4.65s-2.19,2.65-3.62,3.37c-1.43.72-2.96,1.02-4.61.9-1.64-.12-3.27-.71-4.89-1.75s-2.84-2.3-3.62-3.74c-.78-1.44-1.13-2.96-1.06-4.56.07-1.6.6-3.16,1.58-4.68s2.17-2.62,3.6-3.34c1.43-.72,2.96-1.03,4.59-.91,1.63.12,3.27.7,4.9,1.76ZM126.22,126.29c-1.97-1.27-3.73-1.71-5.27-1.32-1.54.4-2.87,1.46-3.98,3.18s-1.55,3.4-1.28,4.97c.27,1.57,1.4,2.99,3.37,4.26s3.71,1.7,5.26,1.31c1.55-.39,2.89-1.46,4.02-3.2s1.53-3.37,1.25-4.95c-.28-1.57-1.4-2.99-3.36-4.25Z" fill="#4c4c4c"/><path d="M108.56,111.77c1.61,1.04,2.82,2.29,3.61,3.73.79,1.45,1.15,2.97,1.07,4.57-.07,1.6-.59,3.15-1.57,4.65s-2.19,2.65-3.62,3.37c-1.43.72-2.96,1.02-4.61.9-1.64-.12-3.27-.71-4.89-1.75s-2.84-2.3-3.62-3.74c-.78-1.44-1.13-2.96-1.06-4.56.07-1.6.6-3.16,1.58-4.68s2.17-2.62,3.6-3.34c1.43-.72,2.96-1.03,4.59-.91,1.63.12,3.27.7,4.9,1.76ZM107.14,113.97c-1.97-1.27-3.73-1.71-5.27-1.32-1.54.4-2.87,1.46-3.98,3.18s-1.55,3.4-1.28,4.97c.27,1.57,1.4,2.99,3.37,4.26s3.71,1.7,5.26,1.31c1.55-.39,2.89-1.46,4.02-3.2s1.53-3.37,1.24-4.95c-.28-1.57-1.4-2.99-3.36-4.25Z" fill="#4c4c4c"/><path d="M89.48,99.45c1.61,1.04,2.82,2.29,3.61,3.73.79,1.45,1.15,2.97,1.07,4.57-.07,1.6-.59,3.15-1.57,4.65s-2.19,2.65-3.62,3.37c-1.43.72-2.96,1.02-4.61.9-1.64-.12-3.27-.71-4.89-1.75s-2.84-2.3-3.62-3.74c-.78-1.44-1.13-2.96-1.06-4.56.07-1.6.6-3.16,1.58-4.68s2.17-2.62,3.6-3.34c1.43-.72,2.96-1.03,4.59-.91,1.63.12,3.27.7,4.9,1.76ZM88.06,101.64c-1.97-1.27-3.73-1.71-5.27-1.32-1.54.4-2.87,1.46-3.98,3.18s-1.55,3.4-1.28,4.97c.27,1.57,1.4,2.99,3.37,4.26s3.71,1.7,5.26,1.31c1.55-.39,2.89-1.46,4.02-3.2s1.53-3.37,1.25-4.95c-.28-1.57-1.4-2.99-3.36-4.25Z" fill="#4c4c4c"/><path d="M70.4,87.13c1.61,1.04,2.82,2.29,3.61,3.73.79,1.45,1.15,2.97,1.07,4.57-.07,1.6-.59,3.15-1.57,4.65s-2.19,2.65-3.62,3.37c-1.43.72-2.96,1.02-4.61.9-1.64-.12-3.27-.71-4.89-1.75s-2.84-2.3-3.62-3.74c-.78-1.44-1.13-2.96-1.06-4.56.07-1.6.6-3.16,1.58-4.68s2.17-2.62,3.6-3.34c1.43-.72,2.96-1.03,4.59-.91,1.63.12,3.27.7,4.9,1.76ZM68.98,89.32c-1.97-1.27-3.73-1.71-5.27-1.32-1.54.4-2.87,1.46-3.98,3.18s-1.55,3.4-1.28,4.97c.27,1.57,1.4,2.99,3.37,4.26s3.71,1.7,5.26,1.31c1.55-.39,2.89-1.46,4.02-3.2s1.53-3.37,1.24-4.95c-.28-1.57-1.4-2.99-3.36-4.25Z" fill="#4c4c4c"/><path d="M51.32,74.8c1.61,1.04,2.82,2.29,3.61,3.73.79,1.45,1.15,2.97,1.07,4.57-.07,1.6-.59,3.15-1.57,4.65s-2.19,2.65-3.62,3.37c-1.43.72-2.96,1.02-4.61.9-1.64-.12-3.27-.71-4.89-1.75s-2.84-2.3-3.62-3.74c-.78-1.44-1.13-2.96-1.06-4.56.07-1.6.6-3.16,1.58-4.68s2.17-2.62,3.6-3.34c1.43-.72,2.96-1.03,4.59-.91,1.63.12,3.27.7,4.9,1.76ZM49.91,77c-1.97-1.27-3.73-1.71-5.27-1.32-1.54.4-2.87,1.46-3.98,3.18s-1.55,3.4-1.28,4.97c.27,1.57,1.4,2.99,3.37,4.26s3.71,1.7,5.26,1.31c1.55-.39,2.89-1.46,4.02-3.2s1.53-3.37,1.25-4.95c-.28-1.57-1.4-2.99-3.36-4.25Z" fill="#4c4c4c"/><path d="M221.25,146.61c1.61,1.04,2.82,2.29,3.61,3.73.79,1.45,1.15,2.97,1.07,4.57-.07,1.6-.59,3.15-1.57,4.65s-2.19,2.65-3.62,3.37c-1.43.72-2.96,1.02-4.61.9-1.64-.12-3.27-.71-4.89-1.75s-2.84-2.3-3.62-3.74c-.78-1.44-1.13-2.96-1.06-4.56.07-1.6.6-3.16,1.58-4.68s2.17-2.62,3.6-3.34c1.43-.72,2.96-1.03,4.59-.91,1.63.12,3.27.7,4.9,1.76ZM219.83,148.81c-1.97-1.27-3.73-1.71-5.27-1.32-1.54.4-2.87,1.46-3.98,3.18s-1.55,3.4-1.28,4.97c.27,1.57,1.4,2.99,3.37,4.26s3.71,1.7,5.26,1.31c1.55-.39,2.89-1.46,4.02-3.2s1.53-3.37,1.25-4.95c-.28-1.57-1.4-2.99-3.36-4.25Z" fill="#4c4c4c"/><path d="M202.17,134.29c1.61,1.04,2.82,2.29,3.61,3.73.79,1.45,1.15,2.97,1.07,4.57-.07,1.6-.59,3.15-1.57,4.65s-2.19,2.65-3.62,3.37c-1.43.72-2.96,1.02-4.61.9-1.64-.12-3.27-.71-4.89-1.75s-2.84-2.3-3.62-3.74c-.78-1.44-1.13-2.96-1.06-4.56.07-1.6.6-3.16,1.58-4.68s2.17-2.62,3.6-3.34c1.43-.72,2.96-1.03,4.59-.91,1.63.12,3.27.7,4.9,1.76ZM200.75,136.48c-1.97-1.27-3.73-1.71-5.27-1.32-1.54.4-2.87,1.46-3.98,3.18s-1.55,3.4-1.28,4.97c.27,1.57,1.4,2.99,3.37,4.26s3.71,1.7,5.26,1.31c1.55-.39,2.89-1.46,4.02-3.2s1.53-3.37,1.25-4.95c-.28-1.57-1.4-2.99-3.36-4.25Z" fill="#4c4c4c"/><path d="M183.09,121.97c1.61,1.04,2.82,2.29,3.61,3.73.79,1.45,1.15,2.97,1.07,4.57-.07,1.6-.59,3.15-1.57,4.65s-2.19,2.65-3.62,3.37c-1.43.72-2.96,1.02-4.61.9-1.64-.12-3.27-.71-4.89-1.75s-2.84-2.3-3.62-3.74c-.78-1.44-1.13-2.96-1.06-4.56.07-1.6.6-3.16,1.58-4.68s2.17-2.62,3.6-3.34c1.43-.72,2.96-1.03,4.59-.91,1.63.12,3.27.7,4.9,1.76ZM181.67,124.16c-1.97-1.27-3.73-1.71-5.27-1.32-1.54.4-2.87,1.46-3.98,3.18s-1.55,3.4-1.28,4.97c.27,1.57,1.4,2.99,3.37,4.26s3.71,1.7,5.26,1.31c1.55-.39,2.89-1.46,4.02-3.2s1.53-3.37,1.25-4.95c-.28-1.57-1.4-2.99-3.36-4.25Z" fill="#4c4c4c"/><path d="M164.01,109.64c1.61,1.04,2.82,2.29,3.61,3.73.79,1.45,1.15,2.97,1.07,4.57-.07,1.6-.59,3.15-1.57,4.65s-2.19,2.65-3.62,3.37c-1.43.72-2.96,1.02-4.61.9-1.64-.12-3.27-.71-4.89-1.75s-2.84-2.3-3.62-3.74c-.78-1.44-1.13-2.96-1.06-4.56.07-1.6.6-3.16,1.58-4.68s2.17-2.62,3.6-3.34c1.43-.72,2.96-1.03,4.59-.91,1.63.12,3.27.7,4.9,1.76ZM162.6,111.84c-1.97-1.27-3.73-1.71-5.27-1.32-1.54.4-2.87,1.46-3.98,3.18s-1.55,3.4-1.28,4.97c.27,1.57,1.4,2.99,3.37,4.26s3.71,1.7,5.26,1.31c1.55-.39,2.89-1.46,4.02-3.2s1.53-3.37,1.25-4.95c-.28-1.57-1.4-2.99-3.36-4.25Z" fill="#4c4c4c"/><path d="M144.93,97.32c1.61,1.04,2.82,2.29,3.61,3.73.79,1.45,1.15,2.97,1.07,4.57-.07,1.6-.59,3.15-1.57,4.65s-2.19,2.65-3.62,3.37c-1.43.72-2.96,1.02-4.61.9-1.64-.12-3.27-.71-4.89-1.75s-2.84-2.3-3.62-3.74c-.78-1.44-1.13-2.96-1.06-4.56.07-1.6.6-3.16,1.58-4.68s2.17-2.62,3.6-3.34c1.43-.72,2.96-1.03,4.59-.91,1.63.12,3.27.7,4.9,1.76ZM143.52,99.51c-1.97-1.27-3.73-1.71-5.27-1.32-1.54.4-2.87,1.46-3.98,3.18s-1.55,3.4-1.28,4.97c.27,1.57,1.4,2.99,3.37,4.26s3.71,1.7,5.26,1.31c1.55-.39,2.89-1.46,4.02-3.2s1.53-3.37,1.25-4.95c-.28-1.57-1.4-2.99-3.36-4.25Z" fill="#4c4c4c"/><path d="M125.85,85c1.61,1.04,2.82,2.29,3.61,3.73.79,1.45,1.15,2.97,1.07,4.57-.07,1.6-.59,3.15-1.57,4.65s-2.19,2.65-3.62,3.37c-1.43.72-2.96,1.02-4.61.9-1.64-.12-3.27-.71-4.89-1.75s-2.84-2.3-3.62-3.74c-.78-1.44-1.13-2.96-1.06-4.56.07-1.6.6-3.16,1.58-4.68s2.17-2.62,3.6-3.34c1.43-.72,2.96-1.03,4.59-.91,1.63.12,3.27.7,4.9,1.76ZM124.44,87.19c-1.97-1.27-3.73-1.71-5.27-1.32-1.54.4-2.87,1.46-3.98,3.18-1.13,1.74-1.55,3.4-1.28,4.97.27,1.57,1.4,2.99,3.37,4.26s3.71,1.7,5.26,1.31c1.55-.39,2.89-1.46,4.02-3.2s1.53-3.37,1.24-4.95c-.28-1.57-1.4-2.99-3.36-4.25Z" fill="#4c4c4c"/><path d="M106.78,72.67c1.61,1.04,2.82,2.29,3.61,3.73.79,1.45,1.15,2.97,1.07,4.57-.07,1.6-.59,3.15-1.57,4.65s-2.19,2.65-3.62,3.37c-1.43.72-2.96,1.02-4.61.9-1.64-.12-3.27-.71-4.89-1.75s-2.84-2.3-3.62-3.74c-.78-1.44-1.13-2.96-1.06-4.56.07-1.6.6-3.16,1.58-4.68s2.17-2.62,3.6-3.34c1.43-.72,2.96-1.03,4.59-.91,1.63.12,3.27.7,4.9,1.76ZM105.36,74.87c-1.97-1.27-3.73-1.71-5.27-1.32-1.54.4-2.87,1.46-3.98,3.18s-1.55,3.4-1.28,4.97c.27,1.57,1.4,2.99,3.37,4.26s3.71,1.7,5.26,1.31c1.55-.39,2.89-1.46,4.02-3.2s1.53-3.37,1.25-4.95c-.28-1.57-1.4-2.99-3.36-4.25Z" fill="#4c4c4c"/><path d="M87.7,60.35c1.61,1.04,2.82,2.29,3.61,3.73.79,1.45,1.15,2.97,1.07,4.57-.07,1.6-.59,3.15-1.57,4.65s-2.19,2.65-3.62,3.37c-1.43.72-2.96,1.02-4.61.9-1.64-.12-3.27-.71-4.89-1.75s-2.84-2.3-3.62-3.74c-.78-1.44-1.13-2.96-1.06-4.56.07-1.6.6-3.16,1.58-4.68s2.17-2.62,3.6-3.34c1.43-.72,2.96-1.03,4.59-.91,1.63.12,3.27.7,4.9,1.76ZM86.28,62.55c-1.97-1.27-3.73-1.71-5.27-1.32-1.54.4-2.87,1.46-3.98,3.18s-1.55,3.4-1.28,4.97c.27,1.57,1.4,2.99,3.37,4.26s3.71,1.7,5.26,1.31c1.55-.39,2.89-1.46,4.02-3.2s1.53-3.37,1.24-4.95c-.28-1.57-1.4-2.99-3.36-4.25Z" fill="#4c4c4c"/><path d="M68.62,48.03c1.61,1.04,2.82,2.29,3.61,3.73.79,1.45,1.15,2.97,1.07,4.57-.07,1.6-.59,3.15-1.57,4.65s-2.19,2.65-3.62,3.37c-1.43.72-2.96,1.02-4.61.9-1.64-.12-3.27-.71-4.89-1.75s-2.84-2.3-3.62-3.74c-.78-1.44-1.13-2.96-1.06-4.56.07-1.6.6-3.16,1.58-4.68s2.17-2.62,3.6-3.34c1.43-.72,2.96-1.03,4.59-.91,1.63.12,3.27.7,4.9,1.76ZM67.2,50.22c-1.97-1.27-3.73-1.71-5.27-1.32-1.54.4-2.87,1.46-3.98,3.18s-1.55,3.4-1.28,4.97c.27,1.57,1.4,2.99,3.37,4.26s3.71,1.7,5.26,1.31c1.55-.39,2.89-1.46,4.02-3.2s1.53-3.37,1.25-4.95c-.28-1.57-1.4-2.99-3.36-4.25Z" fill="#4c4c4c"/><path d="M238.54,119.83c1.61,1.04,2.82,2.29,3.61,3.73.79,1.45,1.15,2.97,1.07,4.57-.07,1.6-.59,3.15-1.57,4.65s-2.19,2.65-3.62,3.37c-1.43.72-2.96,1.02-4.61.9-1.64-.12-3.27-.71-4.89-1.75s-2.84-2.3-3.62-3.74c-.78-1.44-1.13-2.96-1.06-4.56.07-1.6.6-3.16,1.58-4.68s2.17-2.62,3.6-3.34c1.43-.72,2.96-1.03,4.59-.91,1.63.12,3.27.7,4.9,1.76ZM237.13,122.03c-1.97-1.27-3.73-1.71-5.27-1.32-1.54.4-2.87,1.46-3.98,3.18s-1.55,3.4-1.28,4.97c.27,1.57,1.4,2.99,3.37,4.26s3.71,1.7,5.26,1.31c1.55-.39,2.89-1.46,4.02-3.2s1.53-3.37,1.25-4.95c-.28-1.57-1.4-2.99-3.36-4.25Z" fill="#4c4c4c"/><path d="M219.47,107.51c1.61,1.04,2.82,2.29,3.61,3.73.79,1.45,1.15,2.97,1.07,4.57-.07,1.6-.59,3.15-1.57,4.65s-2.19,2.65-3.62,3.37c-1.43.72-2.96,1.02-4.61.9-1.64-.12-3.27-.71-4.89-1.75s-2.84-2.3-3.62-3.74c-.78-1.44-1.13-2.96-1.06-4.56.07-1.6.6-3.16,1.58-4.68s2.17-2.62,3.6-3.34c1.43-.72,2.96-1.03,4.59-.91,1.63.12,3.27.7,4.9,1.76ZM218.05,109.71c-1.97-1.27-3.73-1.71-5.27-1.32-1.54.4-2.87,1.46-3.98,3.18s-1.55,3.4-1.28,4.97c.27,1.57,1.4,2.99,3.37,4.26s3.71,1.7,5.26,1.31c1.55-.39,2.89-1.46,4.02-3.2s1.53-3.37,1.25-4.95c-.28-1.57-1.4-2.99-3.36-4.25Z" fill="#4c4c4c"/><path d="M200.39,95.19c1.61,1.04,2.82,2.29,3.61,3.73.79,1.45,1.15,2.97,1.07,4.57-.07,1.6-.59,3.15-1.57,4.65s-2.19,2.65-3.62,3.37c-1.43.72-2.96,1.02-4.61.9-1.64-.12-3.27-.71-4.89-1.75s-2.84-2.3-3.62-3.74c-.78-1.44-1.13-2.96-1.06-4.56.07-1.6.6-3.16,1.58-4.68s2.17-2.62,3.6-3.34c1.43-.72,2.96-1.03,4.59-.91,1.63.12,3.27.7,4.9,1.76ZM198.97,97.38c-1.97-1.27-3.73-1.71-5.27-1.32-1.54.4-2.87,1.46-3.98,3.18s-1.55,3.4-1.28,4.97c.27,1.57,1.4,2.99,3.37,4.26s3.71,1.7,5.26,1.31c1.55-.39,2.89-1.46,4.02-3.2s1.53-3.37,1.25-4.95c-.28-1.57-1.4-2.99-3.36-4.25Z" fill="#4c4c4c"/><path d="M181.31,82.87c1.61,1.04,2.82,2.29,3.61,3.73.79,1.45,1.15,2.97,1.07,4.57-.07,1.6-.59,3.15-1.57,4.65s-2.19,2.65-3.62,3.37c-1.43.72-2.96,1.02-4.61.9-1.64-.12-3.27-.71-4.89-1.75s-2.84-2.3-3.62-3.74c-.78-1.44-1.13-2.96-1.06-4.56.07-1.6.6-3.16,1.58-4.68s2.17-2.62,3.6-3.34c1.43-.72,2.96-1.03,4.59-.91,1.63.12,3.27.7,4.9,1.76ZM179.89,85.06c-1.97-1.27-3.73-1.71-5.27-1.32-1.54.4-2.87,1.46-3.98,3.18s-1.55,3.4-1.28,4.97c.27,1.57,1.4,2.99,3.37,4.26s3.71,1.7,5.26,1.31c1.55-.39,2.89-1.46,4.02-3.2s1.53-3.37,1.25-4.95c-.28-1.57-1.4-2.99-3.36-4.25Z" fill="#4c4c4c"/><path d="M162.23,70.54c1.61,1.04,2.82,2.29,3.61,3.73.79,1.45,1.15,2.97,1.07,4.57-.07,1.6-.59,3.15-1.57,4.65s-2.19,2.65-3.62,3.37c-1.43.72-2.96,1.02-4.61.9-1.64-.12-3.27-.71-4.89-1.75s-2.84-2.3-3.62-3.74c-.78-1.44-1.13-2.96-1.06-4.56.07-1.6.6-3.16,1.58-4.68s2.17-2.62,3.6-3.34c1.43-.72,2.96-1.03,4.59-.91,1.63.12,3.27.7,4.9,1.76ZM160.81,72.74c-1.97-1.27-3.73-1.71-5.27-1.32-1.54.4-2.87,1.46-3.98,3.18s-1.55,3.4-1.28,4.97c.27,1.57,1.4,2.99,3.37,4.26s3.71,1.7,5.26,1.31c1.55-.39,2.89-1.46,4.02-3.2s1.53-3.37,1.25-4.95c-.28-1.57-1.4-2.99-3.36-4.25Z" fill="#4c4c4c"/><path d="M143.15,58.22c1.61,1.04,2.82,2.29,3.61,3.73.79,1.45,1.15,2.97,1.07,4.57-.07,1.6-.59,3.15-1.57,4.65s-2.19,2.65-3.62,3.37c-1.43.72-2.96,1.02-4.61.9-1.64-.12-3.27-.71-4.89-1.75s-2.84-2.3-3.62-3.74c-.78-1.44-1.13-2.96-1.06-4.56.07-1.6.6-3.16,1.58-4.68s2.17-2.62,3.6-3.34c1.43-.72,2.96-1.03,4.59-.91,1.63.12,3.27.7,4.9,1.76ZM141.73,60.41c-1.97-1.27-3.73-1.71-5.27-1.32-1.54.4-2.87,1.46-3.98,3.18s-1.55,3.4-1.28,4.97c.27,1.57,1.4,2.99,3.37,4.26s3.71,1.7,5.26,1.31c1.55-.39,2.89-1.46,4.02-3.2s1.53-3.37,1.24-4.95c-.28-1.57-1.4-2.99-3.36-4.25Z" fill="#4c4c4c"/><path d="M124.07,45.9c1.61,1.04,2.82,2.29,3.61,3.73.79,1.45,1.15,2.97,1.07,4.57-.07,1.6-.59,3.15-1.57,4.65s-2.19,2.65-3.62,3.37c-1.43.72-2.96,1.02-4.61.9-1.64-.12-3.27-.71-4.89-1.75s-2.84-2.3-3.62-3.74c-.78-1.44-1.13-2.96-1.06-4.56.07-1.6.6-3.16,1.58-4.68s2.17-2.62,3.6-3.34c1.43-.72,2.96-1.03,4.59-.91,1.63.12,3.27.7,4.9,1.76ZM122.65,48.09c-1.97-1.27-3.73-1.71-5.27-1.32-1.54.4-2.87,1.46-3.98,3.18s-1.55,3.4-1.28,4.97c.27,1.57,1.4,2.99,3.37,4.26s3.71,1.7,5.26,1.31c1.55-.39,2.89-1.46,4.02-3.2s1.53-3.37,1.25-4.95c-.28-1.57-1.4-2.99-3.36-4.25Z" fill="#4c4c4c"/><path d="M104.99,33.57c1.61,1.04,2.82,2.29,3.61,3.73.79,1.45,1.15,2.97,1.07,4.57-.07,1.6-.59,3.15-1.57,4.65s-2.19,2.65-3.62,3.37c-1.43.72-2.96,1.02-4.61.9-1.64-.12-3.27-.71-4.89-1.75s-2.84-2.3-3.62-3.74c-.78-1.44-1.13-2.96-1.06-4.56.07-1.6.6-3.16,1.58-4.68s2.17-2.62,3.6-3.34c1.43-.72,2.96-1.03,4.59-.91,1.63.12,3.27.7,4.9,1.76ZM103.57,35.77c-1.97-1.27-3.73-1.71-5.27-1.32-1.54.4-2.87,1.46-3.98,3.18s-1.55,3.4-1.28,4.97c.27,1.57,1.4,2.99,3.37,4.26s3.71,1.7,5.26,1.31c1.55-.39,2.89-1.46,4.02-3.2s1.53-3.37,1.24-4.95c-.28-1.57-1.4-2.99-3.36-4.25Z" fill="#4c4c4c"/><path d="M85.91,21.25c1.61,1.04,2.82,2.29,3.61,3.73.79,1.45,1.15,2.97,1.07,4.57-.07,1.6-.59,3.15-1.57,4.65s-2.19,2.65-3.62,3.37c-1.43.72-2.96,1.02-4.61.9-1.64-.12-3.27-.71-4.89-1.75s-2.84-2.3-3.62-3.74c-.78-1.44-1.13-2.96-1.06-4.56.07-1.6.6-3.16,1.58-4.68s2.17-2.62,3.6-3.34c1.43-.72,2.96-1.03,4.59-.91,1.63.12,3.27.7,4.9,1.76ZM84.49,23.45c-1.97-1.27-3.73-1.71-5.27-1.32-1.54.4-2.87,1.46-3.98,3.18s-1.55,3.4-1.28,4.97c.27,1.57,1.4,2.99,3.37,4.26s3.71,1.7,5.26,1.31c1.55-.39,2.89-1.46,4.02-3.2s1.53-3.37,1.25-4.95c-.28-1.57-1.4-2.99-3.36-4.25Z" fill="#4c4c4c"/></g></svg>