<?xml version="1.0" encoding="UTF-8"?><svg id="b" xmlns="http://www.w3.org/2000/svg" width="262.63" height="223.59" viewBox="0 0 262.63 223.59"><g id="c"><rect x="16.31" y="39.95" width="230.02" height="143.69" rx="10.69" ry="10.69" transform="translate(-35.98 69.9) rotate(-26.35)" fill="#c3f832"/><path d="M32.77,117.53c-1.72.85-3.41,1.25-5.05,1.19-1.65-.06-3.14-.53-4.48-1.42-1.34-.88-2.4-2.12-3.2-3.73s-1.15-3.24-1.04-4.83c.11-1.6.64-3.07,1.59-4.42.95-1.35,2.28-2.45,4.01-3.3s3.43-1.26,5.07-1.19c1.64.07,3.12.54,4.46,1.42,1.34.88,2.41,2.13,3.21,3.76s1.14,3.2,1.03,4.8c-.11,1.6-.63,3.07-1.57,4.41-.94,1.34-2.28,2.45-4.02,3.31ZM31.61,115.19c2.11-1.04,3.38-2.33,3.83-3.85.45-1.53.22-3.21-.69-5.05s-2.12-3.07-3.61-3.64c-1.49-.57-3.28-.33-5.39.71s-3.36,2.31-3.82,3.85c-.46,1.53-.23,3.23.69,5.09s2.11,3.04,3.61,3.6c1.5.56,3.29.33,5.37-.7Z" fill="#4c4c4c"/><path d="M53.12,107.45c-1.72.85-3.41,1.25-5.05,1.19-1.65-.06-3.14-.53-4.48-1.42-1.34-.88-2.4-2.12-3.2-3.73s-1.15-3.24-1.04-4.83c.11-1.6.64-3.07,1.59-4.42.95-1.35,2.28-2.45,4.01-3.3s3.43-1.26,5.07-1.19c1.64.07,3.12.54,4.46,1.42,1.34.88,2.41,2.13,3.21,3.76s1.14,3.2,1.03,4.8c-.11,1.6-.63,3.07-1.57,4.41-.94,1.34-2.28,2.45-4.02,3.31ZM51.97,105.11c2.11-1.04,3.38-2.33,3.83-3.85.45-1.53.22-3.21-.69-5.05s-2.12-3.07-3.61-3.64c-1.49-.57-3.28-.33-5.39.71s-3.36,2.31-3.82,3.85c-.46,1.53-.23,3.23.69,5.09s2.11,3.04,3.61,3.6c1.5.56,3.29.33,5.37-.7Z" fill="#4c4c4c"/><path d="M73.48,97.37c-1.72.85-3.41,1.25-5.05,1.19-1.65-.06-3.14-.53-4.48-1.42-1.34-.88-2.4-2.12-3.2-3.73s-1.15-3.24-1.04-4.83c.11-1.6.64-3.07,1.59-4.42.95-1.35,2.28-2.45,4.01-3.3s3.43-1.26,5.07-1.19c1.64.07,3.12.54,4.46,1.42,1.34.88,2.41,2.13,3.21,3.76s1.14,3.2,1.03,4.8c-.11,1.6-.63,3.07-1.57,4.41-.94,1.34-2.28,2.45-4.02,3.31ZM72.32,95.03c2.11-1.04,3.38-2.33,3.83-3.85.45-1.53.22-3.21-.69-5.05s-2.12-3.07-3.61-3.64c-1.49-.57-3.28-.33-5.39.71s-3.36,2.31-3.82,3.85c-.46,1.53-.23,3.23.69,5.09s2.11,3.04,3.61,3.6c1.5.56,3.29.33,5.37-.7Z" fill="#4c4c4c"/><path d="M93.83,87.29c-1.72.85-3.41,1.25-5.05,1.19-1.65-.06-3.14-.53-4.48-1.42-1.34-.88-2.4-2.12-3.2-3.73s-1.15-3.24-1.04-4.83c.11-1.6.64-3.07,1.59-4.42.95-1.35,2.28-2.45,4.01-3.3s3.43-1.26,5.07-1.19c1.64.07,3.12.54,4.46,1.42,1.34.88,2.41,2.13,3.21,3.76s1.14,3.2,1.03,4.8c-.11,1.6-.63,3.07-1.57,4.41-.94,1.34-2.28,2.45-4.02,3.31ZM92.67,84.95c2.11-1.04,3.38-2.33,3.83-3.85.45-1.53.22-3.21-.69-5.05s-2.12-3.07-3.61-3.64c-1.49-.57-3.28-.33-5.39.71s-3.36,2.31-3.82,3.85c-.46,1.53-.23,3.23.69,5.09s2.11,3.04,3.61,3.6c1.5.56,3.29.33,5.37-.7Z" fill="#4c4c4c"/><path d="M114.18,77.2c-1.72.85-3.41,1.25-5.05,1.19-1.65-.06-3.14-.53-4.48-1.42-1.34-.88-2.4-2.12-3.2-3.73s-1.15-3.24-1.04-4.83c.11-1.6.64-3.07,1.59-4.42.95-1.35,2.28-2.45,4.01-3.3s3.43-1.26,5.07-1.19c1.64.07,3.12.54,4.46,1.42,1.34.88,2.41,2.13,3.21,3.76s1.14,3.2,1.03,4.8c-.11,1.6-.63,3.07-1.57,4.41-.94,1.34-2.28,2.45-4.02,3.31ZM113.02,74.86c2.11-1.04,3.38-2.33,3.83-3.85.45-1.53.22-3.21-.69-5.05s-2.13-3.07-3.61-3.64c-1.49-.57-3.28-.33-5.39.71s-3.36,2.31-3.82,3.85c-.46,1.53-.23,3.23.69,5.09s2.11,3.04,3.61,3.6c1.5.56,3.29.33,5.37-.7Z" fill="#4c4c4c"/><path d="M134.54,67.12c-1.72.85-3.41,1.25-5.05,1.19-1.65-.06-3.14-.53-4.48-1.42-1.34-.88-2.4-2.12-3.2-3.73s-1.15-3.24-1.04-4.83c.11-1.6.64-3.07,1.59-4.42.95-1.35,2.28-2.45,4.01-3.3s3.43-1.26,5.07-1.19c1.64.07,3.12.54,4.46,1.42,1.34.88,2.41,2.13,3.21,3.76s1.14,3.2,1.03,4.8c-.11,1.6-.63,3.07-1.57,4.41-.94,1.34-2.28,2.45-4.02,3.31ZM133.38,64.78c2.11-1.04,3.38-2.33,3.83-3.85.45-1.53.22-3.21-.69-5.05s-2.12-3.07-3.61-3.64c-1.49-.57-3.28-.33-5.39.71s-3.36,2.31-3.82,3.85c-.46,1.53-.23,3.23.69,5.09s2.11,3.04,3.61,3.6c1.5.56,3.29.33,5.37-.7Z" fill="#4c4c4c"/><path d="M154.89,57.04c-1.72.85-3.41,1.25-5.05,1.19-1.65-.06-3.14-.53-4.48-1.42-1.34-.88-2.4-2.12-3.2-3.73s-1.15-3.24-1.04-4.83c.11-1.6.64-3.07,1.59-4.42.95-1.35,2.28-2.45,4.01-3.3s3.43-1.26,5.07-1.19c1.64.07,3.12.54,4.46,1.42,1.34.88,2.41,2.13,3.21,3.76s1.14,3.2,1.03,4.8c-.11,1.6-.63,3.07-1.57,4.41-.94,1.34-2.28,2.45-4.02,3.31ZM153.73,54.7c2.11-1.04,3.38-2.33,3.83-3.85.45-1.53.22-3.21-.69-5.05s-2.13-3.07-3.61-3.64c-1.49-.57-3.28-.33-5.39.71s-3.36,2.31-3.82,3.85c-.46,1.53-.23,3.23.69,5.09s2.11,3.04,3.61,3.6c1.5.56,3.29.33,5.37-.7Z" fill="#4c4c4c"/><path d="M175.24,46.96c-1.72.85-3.41,1.25-5.05,1.19-1.65-.06-3.14-.53-4.48-1.42-1.34-.88-2.4-2.12-3.2-3.73s-1.15-3.24-1.04-4.83c.11-1.6.64-3.07,1.59-4.42.95-1.35,2.28-2.45,4.01-3.3s3.43-1.26,5.07-1.19c1.64.07,3.12.54,4.46,1.42,1.34.88,2.41,2.13,3.21,3.76s1.14,3.2,1.03,4.8c-.11,1.6-.63,3.07-1.57,4.41-.94,1.34-2.28,2.45-4.02,3.31ZM174.08,44.62c2.11-1.04,3.38-2.33,3.83-3.85.45-1.53.22-3.21-.69-5.05s-2.12-3.07-3.61-3.64c-1.49-.57-3.28-.33-5.39.71s-3.36,2.31-3.82,3.85c-.46,1.53-.23,3.23.69,5.09s2.11,3.04,3.61,3.6c1.5.56,3.29.33,5.37-.7Z" fill="#4c4c4c"/><path d="M195.59,36.88c-1.72.85-3.41,1.25-5.05,1.19-1.65-.06-3.14-.53-4.48-1.42-1.34-.88-2.4-2.12-3.2-3.73s-1.15-3.24-1.04-4.83c.11-1.6.64-3.07,1.59-4.42.95-1.35,2.28-2.45,4.01-3.3s3.43-1.26,5.07-1.19c1.64.07,3.12.54,4.46,1.42,1.34.88,2.41,2.13,3.21,3.76s1.14,3.2,1.03,4.8c-.11,1.6-.63,3.07-1.57,4.41-.94,1.34-2.28,2.45-4.02,3.31ZM194.44,34.54c2.11-1.04,3.38-2.33,3.83-3.85.45-1.53.22-3.21-.69-5.05s-2.13-3.07-3.61-3.64c-1.49-.57-3.28-.33-5.39.71s-3.36,2.31-3.82,3.85c-.46,1.53-.23,3.23.69,5.09s2.11,3.04,3.61,3.6c1.5.56,3.29.33,5.37-.7Z" fill="#4c4c4c"/><path d="M46.92,146.09c-1.72.85-3.41,1.25-5.05,1.19-1.65-.06-3.14-.53-4.48-1.42-1.34-.88-2.4-2.12-3.2-3.73s-1.15-3.24-1.04-4.83c.11-1.6.64-3.07,1.59-4.42.95-1.35,2.28-2.45,4.01-3.3s3.43-1.26,5.07-1.19c1.64.07,3.12.54,4.46,1.42,1.34.88,2.41,2.13,3.21,3.76s1.14,3.2,1.03,4.8c-.11,1.6-.63,3.07-1.57,4.41-.94,1.34-2.28,2.45-4.02,3.31ZM45.76,143.75c2.11-1.04,3.38-2.33,3.83-3.85.45-1.53.22-3.21-.69-5.05s-2.12-3.07-3.61-3.64c-1.49-.57-3.28-.33-5.39.71s-3.36,2.31-3.82,3.85c-.46,1.53-.23,3.23.69,5.09s2.11,3.04,3.61,3.6c1.5.56,3.29.33,5.37-.7Z" fill="#4c4c4c"/><path d="M67.27,136.01c-1.72.85-3.41,1.25-5.05,1.19-1.65-.06-3.14-.53-4.48-1.42-1.34-.88-2.4-2.12-3.2-3.73s-1.15-3.24-1.04-4.83c.11-1.6.64-3.07,1.59-4.42.95-1.35,2.28-2.45,4.01-3.3s3.43-1.26,5.07-1.19c1.64.07,3.12.54,4.46,1.42,1.34.88,2.41,2.13,3.21,3.76s1.14,3.2,1.03,4.8c-.11,1.6-.63,3.07-1.57,4.41-.94,1.34-2.28,2.45-4.02,3.31ZM66.11,133.67c2.11-1.04,3.38-2.33,3.83-3.85.45-1.53.22-3.21-.69-5.05s-2.12-3.07-3.61-3.64c-1.49-.57-3.28-.33-5.39.71s-3.36,2.31-3.82,3.85c-.46,1.53-.23,3.23.69,5.09s2.11,3.04,3.61,3.6c1.5.56,3.29.33,5.37-.7Z" fill="#4c4c4c"/><path d="M87.63,125.93c-1.72.85-3.41,1.25-5.05,1.19-1.65-.06-3.14-.53-4.48-1.42-1.34-.88-2.4-2.12-3.2-3.73s-1.15-3.24-1.04-4.83c.11-1.6.64-3.07,1.59-4.42.95-1.35,2.28-2.45,4.01-3.3s3.43-1.26,5.07-1.19c1.64.07,3.12.54,4.46,1.42,1.34.88,2.41,2.13,3.21,3.76s1.14,3.2,1.03,4.8c-.11,1.6-.63,3.07-1.57,4.41-.94,1.34-2.28,2.45-4.02,3.31ZM86.47,123.59c2.11-1.04,3.38-2.33,3.83-3.85.45-1.53.22-3.21-.69-5.05s-2.12-3.07-3.61-3.64c-1.49-.57-3.28-.33-5.39.71s-3.36,2.31-3.82,3.85c-.46,1.53-.23,3.23.69,5.09s2.11,3.04,3.61,3.6c1.5.56,3.29.33,5.37-.7Z" fill="#4c4c4c"/><path d="M107.98,115.85c-1.72.85-3.41,1.25-5.05,1.19-1.65-.06-3.14-.53-4.48-1.42-1.34-.88-2.4-2.12-3.2-3.73s-1.15-3.24-1.04-4.83c.11-1.6.64-3.07,1.59-4.42.95-1.35,2.28-2.45,4.01-3.3s3.43-1.26,5.07-1.19c1.64.07,3.12.54,4.46,1.42,1.34.88,2.41,2.13,3.21,3.76s1.14,3.2,1.03,4.8c-.11,1.6-.63,3.07-1.57,4.41-.94,1.34-2.28,2.45-4.02,3.31ZM106.82,113.51c2.11-1.04,3.38-2.33,3.83-3.85.45-1.53.22-3.21-.69-5.05s-2.12-3.07-3.61-3.64c-1.49-.57-3.28-.33-5.39.71s-3.36,2.31-3.82,3.85c-.46,1.53-.23,3.23.69,5.09s2.11,3.04,3.61,3.6c1.5.56,3.29.33,5.37-.7Z" fill="#4c4c4c"/><path d="M128.33,105.77c-1.72.85-3.41,1.25-5.05,1.19-1.65-.06-3.14-.53-4.48-1.42-1.34-.88-2.4-2.12-3.2-3.73s-1.15-3.24-1.04-4.83c.11-1.6.64-3.07,1.59-4.42.95-1.35,2.28-2.45,4.01-3.3s3.43-1.26,5.07-1.19c1.64.07,3.12.54,4.46,1.42,1.34.88,2.41,2.13,3.21,3.76s1.14,3.2,1.03,4.8c-.11,1.6-.63,3.07-1.57,4.41-.94,1.34-2.28,2.45-4.02,3.31ZM127.17,103.43c2.11-1.04,3.38-2.33,3.83-3.85.45-1.53.22-3.21-.69-5.05s-2.13-3.07-3.61-3.64c-1.49-.57-3.28-.33-5.39.71s-3.36,2.31-3.82,3.85c-.46,1.53-.23,3.23.69,5.09s2.11,3.04,3.61,3.6c1.5.56,3.29.33,5.37-.7Z" fill="#4c4c4c"/><path d="M148.68,95.69c-1.72.85-3.41,1.25-5.05,1.19-1.65-.06-3.14-.53-4.48-1.42-1.34-.88-2.4-2.12-3.2-3.73s-1.15-3.24-1.04-4.83c.11-1.6.64-3.07,1.59-4.42.95-1.35,2.28-2.45,4.01-3.3s3.43-1.26,5.07-1.19c1.64.07,3.12.54,4.46,1.42,1.34.88,2.41,2.13,3.21,3.76s1.14,3.2,1.03,4.8c-.11,1.6-.63,3.07-1.57,4.41-.94,1.34-2.28,2.45-4.02,3.31ZM147.53,93.35c2.11-1.04,3.38-2.33,3.83-3.85.45-1.53.22-3.21-.69-5.05s-2.12-3.07-3.61-3.64c-1.49-.57-3.28-.33-5.39.71s-3.36,2.31-3.82,3.85c-.46,1.53-.23,3.23.69,5.09s2.11,3.04,3.61,3.6c1.5.56,3.29.33,5.37-.7Z" fill="#4c4c4c"/><path d="M169.04,85.61c-1.72.85-3.41,1.25-5.05,1.19-1.65-.06-3.14-.53-4.48-1.42-1.34-.88-2.4-2.12-3.2-3.73s-1.15-3.24-1.04-4.83c.11-1.6.64-3.07,1.59-4.42.95-1.35,2.28-2.45,4.01-3.3s3.43-1.26,5.07-1.19c1.64.07,3.12.54,4.46,1.42,1.34.88,2.41,2.13,3.21,3.76s1.14,3.2,1.03,4.8c-.11,1.6-.63,3.07-1.57,4.41-.94,1.34-2.28,2.45-4.02,3.31ZM167.88,83.27c2.11-1.04,3.38-2.33,3.83-3.85.45-1.53.22-3.21-.69-5.05s-2.13-3.07-3.61-3.64c-1.49-.57-3.28-.33-5.39.71s-3.36,2.31-3.82,3.85c-.46,1.53-.23,3.23.69,5.09s2.11,3.04,3.61,3.6c1.5.56,3.29.33,5.37-.7Z" fill="#4c4c4c"/><path d="M189.39,75.53c-1.72.85-3.41,1.25-5.05,1.19-1.65-.06-3.14-.53-4.48-1.42-1.34-.88-2.4-2.12-3.2-3.73s-1.15-3.24-1.04-4.83c.11-1.6.64-3.07,1.59-4.42.95-1.35,2.28-2.45,4.01-3.3s3.43-1.26,5.07-1.19c1.64.07,3.12.54,4.46,1.42,1.34.88,2.41,2.13,3.21,3.76s1.14,3.2,1.03,4.8c-.11,1.6-.63,3.07-1.57,4.41-.94,1.34-2.28,2.45-4.02,3.31ZM188.23,73.19c2.11-1.04,3.38-2.33,3.83-3.85.45-1.53.22-3.21-.69-5.05s-2.12-3.07-3.61-3.64c-1.49-.57-3.28-.33-5.39.71s-3.36,2.31-3.82,3.85c-.46,1.53-.23,3.23.69,5.09s2.11,3.04,3.61,3.6c1.5.56,3.29.33,5.37-.7Z" fill="#4c4c4c"/><path d="M209.74,65.44c-1.72.85-3.41,1.25-5.05,1.19-1.65-.06-3.14-.53-4.48-1.42-1.34-.88-2.4-2.12-3.2-3.73s-1.15-3.24-1.04-4.83c.11-1.6.64-3.07,1.59-4.42.95-1.35,2.28-2.45,4.01-3.3s3.43-1.26,5.07-1.19c1.64.07,3.12.54,4.46,1.42,1.34.88,2.41,2.13,3.21,3.76s1.14,3.2,1.03,4.8c-.11,1.6-.63,3.07-1.57,4.41-.94,1.34-2.28,2.45-4.02,3.31ZM208.58,63.1c2.11-1.04,3.38-2.33,3.83-3.85.45-1.53.22-3.21-.69-5.05s-2.13-3.07-3.61-3.64c-1.49-.57-3.28-.33-5.39.71s-3.36,2.31-3.82,3.85c-.46,1.53-.23,3.23.69,5.09s2.11,3.04,3.61,3.6c1.5.56,3.29.33,5.37-.7Z" fill="#4c4c4c"/><path d="M61.07,174.66c-1.72.85-3.41,1.25-5.05,1.19-1.65-.06-3.14-.53-4.48-1.42-1.34-.88-2.4-2.12-3.2-3.73s-1.15-3.24-1.04-4.83c.11-1.6.64-3.07,1.59-4.42.95-1.35,2.28-2.45,4.01-3.3s3.43-1.26,5.07-1.19c1.64.07,3.12.54,4.46,1.42,1.34.88,2.41,2.13,3.21,3.76s1.14,3.2,1.03,4.8c-.11,1.6-.63,3.07-1.57,4.41-.94,1.34-2.28,2.45-4.02,3.31ZM59.91,172.32c2.11-1.04,3.38-2.33,3.83-3.85.45-1.53.22-3.21-.69-5.05s-2.12-3.07-3.61-3.64c-1.49-.57-3.28-.33-5.39.71s-3.36,2.31-3.82,3.85c-.46,1.53-.23,3.23.69,5.09s2.11,3.04,3.61,3.6c1.5.56,3.29.33,5.37-.7Z" fill="#4c4c4c"/><path d="M81.42,164.58c-1.72.85-3.41,1.25-5.05,1.19-1.65-.06-3.14-.53-4.48-1.42-1.34-.88-2.4-2.12-3.2-3.73s-1.15-3.24-1.04-4.83c.11-1.6.64-3.07,1.59-4.42.95-1.35,2.28-2.45,4.01-3.3s3.43-1.26,5.07-1.19c1.64.07,3.12.54,4.46,1.42,1.34.88,2.41,2.13,3.21,3.76s1.14,3.2,1.03,4.8c-.11,1.6-.63,3.07-1.57,4.41-.94,1.34-2.28,2.45-4.02,3.31ZM80.26,162.24c2.11-1.04,3.38-2.33,3.83-3.85.45-1.53.22-3.21-.69-5.05s-2.12-3.07-3.61-3.64c-1.49-.57-3.28-.33-5.39.71s-3.36,2.31-3.82,3.85c-.46,1.53-.23,3.23.69,5.09s2.11,3.04,3.61,3.6c1.5.56,3.29.33,5.37-.7Z" fill="#4c4c4c"/><path d="M101.77,154.5c-1.72.85-3.41,1.25-5.05,1.19-1.65-.06-3.14-.53-4.48-1.42-1.34-.88-2.4-2.12-3.2-3.73s-1.15-3.24-1.04-4.83c.11-1.6.64-3.07,1.59-4.42.95-1.35,2.28-2.45,4.01-3.3s3.43-1.26,5.07-1.19c1.64.07,3.12.54,4.46,1.42,1.34.88,2.41,2.13,3.21,3.76s1.14,3.2,1.03,4.8c-.11,1.6-.63,3.07-1.57,4.41-.94,1.34-2.28,2.45-4.02,3.31ZM100.61,152.16c2.11-1.04,3.38-2.33,3.83-3.85.45-1.53.22-3.21-.69-5.05s-2.12-3.07-3.61-3.64c-1.49-.57-3.28-.33-5.39.71s-3.36,2.31-3.82,3.85c-.46,1.53-.23,3.23.69,5.09s2.11,3.04,3.61,3.6c1.5.56,3.29.33,5.37-.7Z" fill="#4c4c4c"/><path d="M122.13,144.41c-1.72.85-3.41,1.25-5.05,1.19-1.65-.06-3.14-.53-4.48-1.42-1.34-.88-2.4-2.12-3.2-3.73s-1.15-3.24-1.04-4.83c.11-1.6.64-3.07,1.59-4.42.95-1.35,2.28-2.45,4.01-3.3s3.43-1.26,5.07-1.19c1.64.07,3.12.54,4.46,1.42,1.34.88,2.41,2.13,3.21,3.76s1.14,3.2,1.03,4.8c-.11,1.6-.63,3.07-1.57,4.41-.94,1.34-2.28,2.45-4.02,3.31ZM120.97,142.07c2.11-1.04,3.38-2.33,3.83-3.85.45-1.53.22-3.21-.69-5.05s-2.12-3.07-3.61-3.64c-1.49-.57-3.28-.33-5.39.71s-3.36,2.31-3.82,3.85c-.46,1.53-.23,3.23.69,5.09s2.11,3.04,3.61,3.6c1.5.56,3.29.33,5.37-.7Z" fill="#4c4c4c"/><path d="M142.48,134.33c-1.72.85-3.41,1.25-5.05,1.19-1.65-.06-3.14-.53-4.48-1.42-1.34-.88-2.4-2.12-3.2-3.73s-1.15-3.24-1.04-4.83c.11-1.6.64-3.07,1.59-4.42.95-1.35,2.28-2.45,4.01-3.3s3.43-1.26,5.07-1.19c1.64.07,3.12.54,4.46,1.42,1.34.88,2.41,2.13,3.21,3.76s1.14,3.2,1.03,4.8c-.11,1.6-.63,3.07-1.57,4.41-.94,1.34-2.28,2.45-4.02,3.31ZM141.32,131.99c2.11-1.04,3.38-2.33,3.83-3.85.45-1.53.22-3.21-.69-5.05s-2.13-3.07-3.61-3.64c-1.49-.57-3.28-.33-5.39.71s-3.36,2.31-3.82,3.85c-.46,1.53-.23,3.23.69,5.09s2.11,3.04,3.61,3.6c1.5.56,3.29.33,5.37-.7Z" fill="#4c4c4c"/><path d="M162.83,124.25c-1.72.85-3.41,1.25-5.05,1.19-1.65-.06-3.14-.53-4.48-1.42-1.34-.88-2.4-2.12-3.2-3.73s-1.15-3.24-1.04-4.83c.11-1.6.64-3.07,1.59-4.42.95-1.35,2.28-2.45,4.01-3.3s3.43-1.26,5.07-1.19c1.64.07,3.12.54,4.46,1.42,1.34.88,2.41,2.13,3.21,3.76s1.14,3.2,1.03,4.8c-.11,1.6-.63,3.07-1.57,4.41-.94,1.34-2.28,2.45-4.02,3.31ZM161.67,121.91c2.11-1.04,3.38-2.33,3.83-3.85.45-1.53.22-3.21-.69-5.05-.92-1.86-2.12-3.07-3.61-3.64-1.49-.57-3.28-.33-5.39.71s-3.36,2.31-3.82,3.85c-.46,1.53-.23,3.23.69,5.09s2.11,3.04,3.61,3.6c1.5.56,3.29.33,5.37-.7Z" fill="#4c4c4c"/><path d="M183.19,114.17c-1.72.85-3.41,1.25-5.05,1.19-1.65-.06-3.14-.53-4.48-1.42-1.34-.88-2.4-2.12-3.2-3.73s-1.15-3.24-1.04-4.83c.11-1.6.64-3.07,1.59-4.42.95-1.35,2.28-2.45,4.01-3.3s3.43-1.26,5.07-1.19c1.64.07,3.12.54,4.46,1.42,1.34.88,2.41,2.13,3.21,3.76s1.14,3.2,1.03,4.8c-.11,1.6-.63,3.07-1.57,4.41-.94,1.34-2.28,2.45-4.02,3.31ZM182.03,111.83c2.11-1.04,3.38-2.33,3.83-3.85.45-1.53.22-3.21-.69-5.05s-2.13-3.07-3.61-3.64c-1.49-.57-3.28-.33-5.39.71s-3.36,2.31-3.82,3.85c-.46,1.53-.23,3.23.69,5.09s2.11,3.04,3.61,3.6c1.5.56,3.29.33,5.37-.7Z" fill="#4c4c4c"/><path d="M203.54,104.09c-1.72.85-3.41,1.25-5.05,1.19-1.65-.06-3.14-.53-4.48-1.42-1.34-.88-2.4-2.12-3.2-3.73s-1.15-3.24-1.04-4.83c.11-1.6.64-3.07,1.59-4.42.95-1.35,2.28-2.45,4.01-3.3s3.43-1.26,5.07-1.19c1.64.07,3.12.54,4.46,1.42,1.34.88,2.41,2.13,3.21,3.76s1.14,3.2,1.03,4.8c-.11,1.6-.63,3.07-1.57,4.41-.94,1.34-2.28,2.45-4.02,3.31ZM202.38,101.75c2.11-1.04,3.38-2.33,3.83-3.85.45-1.53.22-3.21-.69-5.05s-2.12-3.07-3.61-3.64c-1.49-.57-3.28-.33-5.39.71s-3.36,2.31-3.82,3.85c-.46,1.53-.23,3.23.69,5.09s2.11,3.04,3.61,3.6c1.5.56,3.29.33,5.37-.7Z" fill="#4c4c4c"/><path d="M223.89,94.01c-1.72.85-3.41,1.25-5.05,1.19-1.65-.06-3.14-.53-4.48-1.42-1.34-.88-2.4-2.12-3.2-3.73s-1.15-3.24-1.04-4.83c.11-1.6.64-3.07,1.59-4.42.95-1.35,2.28-2.45,4.01-3.3s3.43-1.26,5.07-1.19c1.64.07,3.12.54,4.46,1.42,1.34.88,2.41,2.13,3.21,3.76s1.14,3.2,1.03,4.8c-.11,1.6-.63,3.07-1.57,4.41-.94,1.34-2.28,2.45-4.02,3.31ZM222.73,91.67c2.11-1.04,3.38-2.33,3.83-3.85.45-1.53.22-3.21-.69-5.05s-2.13-3.07-3.61-3.64c-1.49-.57-3.28-.33-5.39.71s-3.36,2.31-3.82,3.85c-.46,1.53-.23,3.23.69,5.09s2.11,3.04,3.61,3.6c1.5.56,3.29.33,5.37-.7Z" fill="#4c4c4c"/><path d="M75.22,203.22c-1.72.85-3.41,1.25-5.05,1.19-1.65-.06-3.14-.53-4.48-1.42-1.34-.88-2.4-2.12-3.2-3.73s-1.15-3.24-1.04-4.83c.11-1.6.64-3.07,1.59-4.42.95-1.35,2.28-2.45,4.01-3.3s3.43-1.26,5.07-1.19c1.64.07,3.12.54,4.46,1.42,1.34.88,2.41,2.13,3.21,3.76s1.14,3.2,1.03,4.8c-.11,1.6-.63,3.07-1.57,4.41-.94,1.34-2.28,2.45-4.02,3.31ZM74.06,200.88c2.11-1.04,3.38-2.33,3.83-3.85.45-1.53.22-3.21-.69-5.05s-2.12-3.07-3.61-3.64c-1.49-.57-3.28-.33-5.39.71s-3.36,2.31-3.82,3.85c-.46,1.53-.23,3.23.69,5.09s2.11,3.04,3.61,3.6c1.5.56,3.29.33,5.37-.7Z" fill="#4c4c4c"/><path d="M95.57,193.14c-1.72.85-3.41,1.25-5.05,1.19-1.65-.06-3.14-.53-4.48-1.42-1.34-.88-2.4-2.12-3.2-3.73s-1.15-3.24-1.04-4.83c.11-1.6.64-3.07,1.59-4.42.95-1.35,2.28-2.45,4.01-3.3s3.43-1.26,5.07-1.19c1.64.07,3.12.54,4.46,1.42,1.34.88,2.41,2.13,3.21,3.76s1.14,3.2,1.03,4.8c-.11,1.6-.63,3.07-1.57,4.41-.94,1.34-2.28,2.45-4.02,3.31ZM94.41,190.8c2.11-1.04,3.38-2.33,3.83-3.85.45-1.53.22-3.21-.69-5.05s-2.12-3.07-3.61-3.64c-1.49-.57-3.28-.33-5.39.71s-3.36,2.31-3.82,3.85c-.46,1.53-.23,3.23.69,5.09s2.11,3.04,3.61,3.6c1.5.56,3.29.33,5.37-.7Z" fill="#4c4c4c"/><path d="M115.92,183.06c-1.72.85-3.41,1.25-5.05,1.19-1.65-.06-3.14-.53-4.48-1.42-1.34-.88-2.4-2.12-3.2-3.73s-1.15-3.24-1.04-4.83c.11-1.6.64-3.07,1.59-4.42.95-1.35,2.28-2.45,4.01-3.3s3.43-1.26,5.07-1.19c1.64.07,3.12.54,4.46,1.42,1.34.88,2.41,2.13,3.21,3.76s1.14,3.2,1.03,4.8c-.11,1.6-.63,3.07-1.57,4.41-.94,1.34-2.28,2.45-4.02,3.31ZM114.76,180.72c2.11-1.04,3.38-2.33,3.83-3.85.45-1.53.22-3.21-.69-5.05s-2.12-3.07-3.61-3.64c-1.49-.57-3.28-.33-5.39.71s-3.36,2.31-3.82,3.85c-.46,1.53-.23,3.23.69,5.09s2.11,3.04,3.61,3.6c1.5.56,3.29.33,5.37-.7Z" fill="#4c4c4c"/><path d="M136.28,172.98c-1.72.85-3.41,1.25-5.05,1.19-1.65-.06-3.14-.53-4.48-1.42-1.34-.88-2.4-2.12-3.2-3.73s-1.15-3.24-1.04-4.83c.11-1.6.64-3.07,1.59-4.42.95-1.35,2.28-2.45,4.01-3.3s3.43-1.26,5.07-1.19c1.64.07,3.12.54,4.46,1.42,1.34.88,2.41,2.13,3.21,3.76s1.14,3.2,1.03,4.8c-.11,1.6-.63,3.07-1.57,4.41-.94,1.34-2.28,2.45-4.02,3.31ZM135.12,170.64c2.11-1.04,3.38-2.33,3.83-3.85.45-1.53.22-3.21-.69-5.05s-2.12-3.07-3.61-3.64c-1.49-.57-3.28-.33-5.39.71s-3.36,2.31-3.82,3.85c-.46,1.53-.23,3.23.69,5.09s2.11,3.04,3.61,3.6c1.5.56,3.29.33,5.37-.7Z" fill="#4c4c4c"/><path d="M156.63,162.9c-1.72.85-3.41,1.25-5.05,1.19-1.65-.06-3.14-.53-4.48-1.42-1.34-.88-2.4-2.12-3.2-3.73s-1.15-3.24-1.04-4.83c.11-1.6.64-3.07,1.59-4.42.95-1.35,2.28-2.45,4.01-3.3s3.43-1.26,5.07-1.19c1.64.07,3.12.54,4.46,1.42,1.34.88,2.41,2.13,3.21,3.76s1.14,3.2,1.03,4.8c-.11,1.6-.63,3.07-1.57,4.41-.94,1.34-2.28,2.45-4.02,3.31ZM155.47,160.56c2.11-1.04,3.38-2.33,3.83-3.85.45-1.53.22-3.21-.69-5.05s-2.13-3.07-3.61-3.64c-1.49-.57-3.28-.33-5.39.71s-3.36,2.31-3.82,3.85c-.46,1.53-.23,3.23.69,5.09s2.11,3.04,3.61,3.6c1.5.56,3.29.33,5.37-.7Z" fill="#4c4c4c"/><path d="M176.98,152.82c-1.72.85-3.41,1.25-5.05,1.19-1.65-.06-3.14-.53-4.48-1.42-1.34-.88-2.4-2.12-3.2-3.73s-1.15-3.24-1.04-4.83c.11-1.6.64-3.07,1.59-4.42.95-1.35,2.28-2.45,4.01-3.3s3.43-1.26,5.07-1.19c1.64.07,3.12.54,4.46,1.42,1.34.88,2.41,2.13,3.21,3.76s1.14,3.2,1.03,4.8c-.11,1.6-.63,3.07-1.57,4.41-.94,1.34-2.28,2.45-4.02,3.31ZM175.82,150.48c2.11-1.04,3.38-2.33,3.83-3.85.45-1.53.22-3.21-.69-5.05-.92-1.86-2.12-3.07-3.61-3.64-1.49-.57-3.28-.33-5.39.71s-3.36,2.31-3.82,3.85c-.46,1.53-.23,3.23.69,5.09s2.11,3.04,3.61,3.6c1.5.56,3.29.33,5.37-.7Z" fill="#4c4c4c"/><path d="M197.33,142.74c-1.72.85-3.41,1.25-5.05,1.19-1.65-.06-3.14-.53-4.48-1.42-1.34-.88-2.4-2.12-3.2-3.73s-1.15-3.24-1.04-4.83c.11-1.6.64-3.07,1.59-4.42.95-1.35,2.28-2.45,4.01-3.3s3.43-1.26,5.07-1.19c1.64.07,3.12.54,4.46,1.42,1.34.88,2.41,2.13,3.21,3.76s1.14,3.2,1.03,4.8c-.11,1.6-.63,3.07-1.57,4.41-.94,1.34-2.28,2.45-4.02,3.31ZM196.17,140.4c2.11-1.04,3.38-2.33,3.83-3.85.45-1.53.22-3.21-.69-5.05s-2.13-3.07-3.61-3.64c-1.49-.57-3.28-.33-5.39.71s-3.36,2.31-3.82,3.85c-.46,1.53-.23,3.23.69,5.09s2.11,3.04,3.61,3.6c1.5.56,3.29.33,5.37-.7Z" fill="#4c4c4c"/><path d="M217.69,132.65c-1.72.85-3.41,1.25-5.05,1.19-1.65-.06-3.14-.53-4.48-1.42-1.34-.88-2.4-2.12-3.2-3.73s-1.15-3.24-1.04-4.83c.11-1.6.64-3.07,1.59-4.42.95-1.35,2.28-2.45,4.01-3.3s3.43-1.26,5.07-1.19c1.64.07,3.12.54,4.46,1.42,1.34.88,2.41,2.13,3.21,3.76s1.14,3.2,1.03,4.8c-.11,1.6-.63,3.07-1.57,4.41-.94,1.34-2.28,2.45-4.02,3.31ZM216.53,130.31c2.11-1.04,3.38-2.33,3.83-3.85.45-1.53.22-3.21-.69-5.05s-2.12-3.07-3.61-3.64c-1.49-.57-3.28-.33-5.39.71s-3.36,2.31-3.82,3.85c-.46,1.53-.23,3.23.69,5.09s2.11,3.04,3.61,3.6c1.5.56,3.29.33,5.37-.7Z" fill="#4c4c4c"/><path d="M238.04,122.57c-1.72.85-3.41,1.25-5.05,1.19-1.65-.06-3.14-.53-4.48-1.42-1.34-.88-2.4-2.12-3.2-3.73s-1.15-3.24-1.04-4.83c.11-1.6.64-3.07,1.59-4.42.95-1.35,2.28-2.45,4.01-3.3s3.43-1.26,5.07-1.19c1.64.07,3.12.54,4.46,1.42,1.34.88,2.41,2.13,3.21,3.76s1.14,3.2,1.03,4.8c-.11,1.6-.63,3.07-1.57,4.41-.94,1.34-2.28,2.45-4.02,3.31ZM236.88,120.23c2.11-1.04,3.38-2.33,3.83-3.85.45-1.53.22-3.21-.69-5.05s-2.13-3.07-3.61-3.64c-1.49-.57-3.28-.33-5.39.71s-3.36,2.31-3.82,3.85c-.46,1.53-.23,3.23.69,5.09s2.11,3.04,3.61,3.6c1.5.56,3.29.33,5.37-.7Z" fill="#4c4c4c"/></g></svg>