<?xml version="1.0" encoding="UTF-8"?><svg id="b" xmlns="http://www.w3.org/2000/svg" width="25.11mm" height="15.18mm" viewBox="0 0 71.17 43.03"><g id="c"><path d="M25.73,7.71l-7.47,6.97.07-9.04c0-.32.04-.62.12-.92.42-1.61,1.88-2.78,3.62-2.77,1.73.02,3.19,1.22,3.58,2.83.07.29.11.59.11.91l-.02,2.02Z" fill="#fff"/><path d="M70,37.87c-.71.66-1.62.99-2.52.99h-.14c-.96-.03-1.89-.42-2.59-1.17l-9.32-10.02c1.88-2.35,1.81-5.79-.31-8.06-1.08-1.16-2.5-1.82-3.95-1.95-.2-.01-.4-.03-.6-.03-1.22,0-2.43.37-3.49,1.09-.24.18-.48.37-.71.58l-3.15,2.94-.68.63-17.22,15.99c-1.83,1.7-4.01,3.02-6.43,3.66-1.3.34-2.63.51-3.97.51-4.13,0-8.27-1.66-11.31-4.92l-3.61-3.87,3.93-3.66c.09-.1.18-.19.28-.28l14.04-13.09,7.46-6.94L35.65,1.01c.71-.67,1.62-1.01,2.52-1.01,1,0,1.99.41,2.72,1.19l29.29,31.44c1.39,1.49,1.31,3.85-.18,5.24Z" fill="#fff"/><path d="M52.68,42.04c-.75.7-1.71,1.02-2.66.99s-1.89-.43-2.59-1.17l-7.69-8.26c-.67-.72-1.03-1.68-1-2.66.01-.4.09-.79.23-1.16.19-.54.52-1.03.95-1.43l8.25-7.69c.23-.21.48-.4.75-.54,1.46-.8,3.32-.55,4.5.72,1.18,1.27,1.31,3.15.4,4.54-.16.25-.36.49-.59.7l-4.34,4.04-1.2,1.12,5.16,5.54c1.4,1.5,1.31,3.85-.19,5.25Z" fill="#fff"/></g></svg>