<?xml version="1.0" encoding="UTF-8"?><svg id="b" xmlns="http://www.w3.org/2000/svg" width="112.59" height="94.05" viewBox="0 0 112.59 94.05"><g id="c"><path d="M30.61,26.56c7.53-4.77,15.37-7.97,24.24-9.38,10.3-1.64,25.24-.84,33.64,6.01,5.38,4.38,9.13,12.06,8.09,19.07-.85-1.8-2.13-3.1-3.68-4.29-.15-.12-.28-.37-.36-.42.25-.96.19-2.05.06-3.02-.07-.53-.24-1.41-.36-1.94-.06-.26-.48-1.85-.55-1.93-.17-.17-.39.45-.6.3.19-.18.34-.48.35-.74.03-.62-1.61-4-2-4.74-.33-.62-.75-1.27-1.19-1.83.28.89.63,1.78.97,2.65.53,1.35,1.07,2.66,1.47,4.08.66,2.31,1.13,4.68,1.6,7.03-1.71-1.15-4.43-2.38-6.4-3.02.24-3.85-.97-7.44-2.61-10.85-.61-1.27-1.31-2.64-2.16-3.76.9,2.38,1.99,4.71,2.75,7.15.69,2.21,1.17,4.52,1.67,6.78.04.16.21.45-.01.55-2.46-.76-5.29-1.28-7.85-1.57-.03-.66.05-1.34,0-1.99-.24-3.28-2.03-8.09-3.64-10.96-.2-.35-.49-.82-.82-1.05.4,1.72,1.34,3.35,1.9,5.04s1.05,3.63,1.45,5.31c.28,1.21.41,2.45.76,3.65-2.86-.29-5.83-.38-8.69-.24.03-5.21-2.03-10.22-4.41-14.73-.3-.04-.18.21-.13.37.2.59.59,1.26.8,1.86,1.42,4.07,2.35,8.31,3.37,12.5-2.74.16-5.99.58-8.69,1.09.03-.91-.01-1.8-.13-2.7-.48-3.59-1.82-8.11-3.33-11.4-.08-.17.07-.33-.27-.26l3.5,14.49c-12.39,2.4-23.11,8.57-32.72,16.47-.16.13-.44.16-.48.19l-1.81-10.93c-.32-2.46-.27-4.9-.36-7.36,0-.15.09-.45-.12-.42-.14.81-.3,1.65-.36,2.47-.29,3.64.09,8.06.95,11.61.37,1.54.9,3.27,1.71,4.63-5.53,4.97-11.45,10.63-15.31,17.1-.22.37-.38.87-.6,1.21-.08.12.01.22-.27.16-.33-1.15-.95-2.21-1.3-3.35-2.01-6.65-.51-14.37,3.1-20.19l-.24,5.55c.61.19.14-.53.6-.3-.03.34-.59.42-.61.5-.14.47.17,2.72.26,3.35.38,2.7,1.01,4.69,2.1,7.2.12.27.05.91.42.84-.25-1.49-.65-2.96-.93-4.44-.7-3.75-1.7-9.33-1.24-13.06.08-.65,1.49-2.52,1.95-3.18,1.01-1.42,2.09-2.65,3.24-3.95.08.69-.25,1.49-.33,2.14-.52,4.53.06,10.57,1.6,14.87.18.5.41,1.22.78,1.57-.36-3.34-1.33-6.6-1.45-9.96-.43-2.93-.36-5.91-.36-8.87,3.99-4.39,7.77-7.64,12.8-10.86l-.13,7.19c.46,3.7.96,7.43,2.39,10.9.07.18-.07.33.27.27,0-1.13-.38-2.24-.57-3.35-.64-3.72-1.07-7.46-1.6-11.19l-.12-3.92ZM47.27,22.33c.3-.82-.32-1.59-.36-2.41-.47.27.04,1.15.11,1.64.63,4.55,1.26,9.1,2.7,13.48l.45.94c-.03-2.32-.55-4.72-1.02-7.01s-1.07-4.52-1.64-6.76l-.24.12ZM38.58,22.82c-.15-.19-.22,0-.24.18-.04.34-.09.99-.1,1.33-.09,4.49.77,9.75,1.96,14.07.09.32.36,1.17.52,1.41.08.13,0,.21.27.15.31-.39-1.37-8.54-1.55-9.73-.21-1.37-.2-2.76-.6-4.1l-.26-3.3Z" fill="#c13b14"/><path d="M101.32,59.57c2.48-.19,5.07-.15,7.51.39.96.21,4.96,1.25,3.41,2.86-.6.62-2.64.14-3.49.12-2.63-.07-5.3.32-7.91.61l-.12,1.09c2.34.37,4.67,1.04,6.8,2.07,1.08.52,4.18,2.33,4.55,3.42.24.7-.27,1.42-1.03,1.38-.56-.03-2.91-1.12-3.7-1.38-2.47-.79-5.03-1.29-7.59-1.63,0,.22-.43,1.11-.37,1.2.03.05.84.35,1.05.47,1.9,1.1,3.94,2.74,5.35,4.43.55.66,2.83,3.51.9,3.79-.92.13-2.18-1.3-2.96-1.85-1.84-1.32-3.83-2.41-5.9-3.33-5.46,10.57-17.51,17.6-28.95,19.88-18.19,3.63-44.73-3.13-56.33-18.32-.16-.21-.55-.94-.68-1.02-.18-.11-1.33-.08-1.84-.22-3.76-1.05-5.67-8.82-6.01-12.22-.52-5.25.71-10.31,2.78-15.09C3.82,38.33,1.69,29.87.66,21.47.09,16.85-.89,6.64,1.75,2.79s8.28-1.31,11.49.18c4.71,2.19,9.01,5.27,13.2,8.3,1.71-1.47,3.34-3.01,5.19-4.31,11.96-8.39,27.73-9.36,40.44-1.97,2.42,1.41,4.63,3.14,6.74,4.97,1.52-1.35,3.03-2.77,4.66-4.04,2.18-1.7,5.12-3.78,7.72-4.72,4.74-1.71,6.01,1.42,6.82,5.37,1.42,6.89.68,14.39-.19,21.31,2.42,4.89,3.83,10.04,2.73,15.52-.13.64-.67,1.98-.67,2.47,0,.55.44,1.7.57,2.33.75,3.81,1.06,7.47.88,11.37ZM106.15,77.19c.06-.5-.18-.5-.12,0h.12ZM39.75,89.75h-.36v.24h.36v-.24ZM61.12,92.52c-.13-.13-.37.11-.24.24s.37-.11.24-.24ZM61.54,92.52v.12c.08-.04.08-.08,0-.12Z" fill="#fff"/><path d="M54.85,34.76c-6.58.49-12.84,3.45-17.83,7.75-2.48,2.14-4.76,4.77-5.43,7.97s.75,7.03,3.82,8.16c-3.53.95-7.05,1.89-10.58,2.84-2.12.57-4.43,1.28-5.59,3.14-1.05,1.69-.75,4.1.69,5.48s3.87,1.57,5.51.44c-2.61-.43-4.85,2.41-4.74,5.05s1.85,4.92,3.73,6.79c9.18,9.15,23.04,12.51,35.93,11.07,14.14-1.58,27.94-8.94,35.56-20.95,1-1.57,1.9-3.27,2.11-5.12s-.41-3.89-1.94-4.95c2.27-4.26,3.39-9.29,2.24-13.98s-4.87-8.87-9.61-9.77-10.14,2.14-11.11,6.87c-.24,1.14-.23,2.34-.68,3.42s-1.55,2.03-2.68,1.77c-1.68-.39-1.81-2.74-1.31-4.39.46-1.53,1.02-3.27.33-4.83-.52-1.17-1.91-2.02-2.92-2.72-2.87-1.98-6.21-3.25-9.66-3.8-1.92-.31-3.88-.39-5.83-.25Z" fill="#f6f2eb"/><path d="M41.62,64.12c1.07.07,2.81.26,4.97.84l4.42.83h-3.2c-.27.15-.55.29-.82.45-1.08.59-2.12,1.2-3.12,1.8.3.03.6.06.91.1.56.07,1.09.17,1.6.27-1.16.07-2.37.21-3.62.41-7.14,1.17-12.73,4.25-16.61,7.05-.04.24.05.22.24.12.31-.16.64-.43.96-.61,6.39-3.38,13.48-5.6,20.77-5.73l-3.58,1.79c-.52.39-1.29.63-1.73,1.11-.04.04-.1.08-.12.12-.46.26-.99.61-1.42.93-1.5,1.14-2.73,2.65-3.77,4.14-.16.23-.27.01-.48.72-.38.11-.43.59-.61.87-1.24,1.97-2.1,4.29-2.29,6.67-.05.61.08,1.34,0,1.94-.02.14.05.24-.18.17-.84-.25-2.08-.82-2.92-1.18-6.59-2.84-12.78-7.05-17.23-12.71-.23-.29-1.18-1.8-1.28-1.86-.13-.08-1.55.13-1.99.06-1.84-.29-3.38-4.17-3.9-5.76-2.12-6.57-1.19-13.79,1.89-19.88-2.96-7.6-5.07-15.69-6.13-23.8-.6-4.62-1.69-13.86.17-18.03,1.55-3.47,6.16-1.51,8.75-.42,5.46,2.3,10.44,5.96,15.15,9.48.29,0,1.42-1.44,1.75-1.76C41.11-.18,61.36-1.26,75.46,9.9c1.14.91,2.14,1.96,3.26,2.9.06,0,.17-.31.3-.43,2.88-2.66,9.92-9.02,13.72-9.46,1.85-.21,2.32.75,2.86,2.31,1.91,5.55,1.33,14.81.67,20.66-.08.71-.49,2.19-.43,2.78.04.37.97,1.89,1.19,2.41,1.61,3.78,2.47,7.97,1.76,12.06-.14.79-.84,2.6-.82,3.17.03.97.74,3.1.93,4.27.59,3.52.84,7.14.41,10.7l.29.19c3.76-.67,7.68-.39,11.29.84-.08.21-.72.14-.91.12-.34-.02-.64-.12-.95-.13-3.34-.11-6.55.23-9.83.74l-.49,3c4.38.49,8.8,1.88,12.19,4.77-4.04-1.64-8.28-2.91-12.67-3.19.11.58-1.02,2.54-.8,2.89.1.16,1.96.98,2.32,1.19,1.54.88,3.1,1.99,4.33,3.28.24.25,1.82,2.08,1.63,2.29l-2.3-1.74c-2.12-1.37-4.34-2.59-6.68-3.56-6.41,12.51-20.38,19.39-33.99,20.63l1.33-.6c.76.03,6.7-2.37,7.84-2.84,8.16-3.34,16.35-7.73,21.18-15.4.25-.4,1.48-2.45,1.5-2.73.02-.17-.07-.18-.18-.26-.53-.38-1.49-.68-2.1-1.04-.16-.09-.3.02-.24-.3l3.12.35c.21-.76.68-1.6.85-2.35.06-.25-.03-.13-.17-.16-1.21-.28-2.58-.2-3.8-.49-.03-.17.21-.17.34-.2.43-.12.98-.2,1.43-.26.38-.06,2.49-.17,2.58-.26.02-.02.03-.51-.02-.58-.11-.19-3.72-1.54-4.2-.99.21-.28.76-.38,1.09-.48,1.15-.34,2.34-.57,3.49-.91.21-.04.33-.57.25-.66-.22-.22-4.83,1.16-5.55,1.09-.03-.02-.08-.15-.19-.22-.57-.36-1.26-.66-1.86-.98.17-.17,1.74-.28,2.2-.4,4.84-1.22,5.9-6.96,4.8-11.19-2.08.66-4.37.25-6.5.74.26,2.53-.74,7.56-4.24,6.81-1.84-.39-2.9-3.59-2.83-5.26-.86.31-.98.03-.9,1.03.11,1.38.71,2.77,1.2,4.04-.4-.07-.77-.26-1.18-.33-2.82-.5-4.65-.31-7.27.81-.28.12-.5.31-.85.24-.06-.12-1.02-.75-1.21-.84-.19-.1-.21-.15-.48-.24l-1.57-.93c.14-1.4.16-2.82,0-4.21-.02-.16-.12-.26-.13-.29-2.16-16.57-19.69-14.63-30.22-6.98-2.25,1.64-3.7,2.43-2.74,5.47,2.48,7.87,12.61,11.36,20.16,10.92-.02.01.04.2,0,.23-.14.11-2.85.82-3.32.97-1,.33-2,.66-2.96,1.09-.39.09-.74.36-1.13.35-.58-.01-1.58-.34-2.22-.44-7.83-1.12-15.51-1.04-23.02,1.65-.22.08-2.52.9-2.47,1.03,0,.02.01.04.03.06.2.28,1.16-.11,1.37-.18,1.4-.52,10.68-2.82,17.7-2.33ZM79.63,16.54c.05-.21-.09-.24-.18-.36-1.92-2.49-5.48-5.51-8.16-7.17C57.83.62,40.8,2.57,29.41,13.46c-.3.29-1.6,1.49-1.58,1.81,1.93,1.49,3.7,3.23,5.38,5.02.26.28,1.19,1.57,1.44,1.57,13.73-6.86,29.99-9.36,44.97-5.31ZM16.61,35.01h-2.84c-.39.38-.41.35-.06-.06,1.06-1.22,2.24-1.43,3.57-2.1.13-.06.23.06.17-.25l-4.71-2.11c1.58-.75,3.59-.64,5.3-.48.16.02.29.17.25-.13l-4.95-5.25c2.17.46,4.3,1.23,6.28,2.23.47.24,1.33.91,1.75,1.03.17.05.21-.01.18-.18-3.03-5.17-6.24-10.31-10.02-14.97-1.12-1.38-2.52-3.08-3.86-4.23-2.22-1.91-2.73-1.13-3.02,1.45-.24,2.11-.04,4.85.12,7,.66,8.87,2.83,17.55,5.79,25.89l6.03-7.85ZM93.75,25.47c.39-4.55.78-9.14.24-13.7-.09-.79-.22-1.73-.4-2.5-.04-.15-.24-1.17-.57-.94-1.17,2.13-2.21,4.32-3.16,6.56-.31.74-1.99,4.63-1.92,5.09.02.1.04.18.13.24,1.49,1,2.96,2.23,4.17,3.56.41.45.77,1.05,1.17,1.49.11.12.11.26.34.2ZM30.61,26.56c-.06.04-.15.06-.24.12-5.02,3.22-8.81,6.47-12.8,10.86-.04.05-.12.11-.24.24-1.15,1.29-2.23,2.53-3.24,3.95-.47.66-1.87,2.53-1.95,3.18-.3-.07-.25.18-.36.36-3.61,5.82-5.12,13.54-3.1,20.19.35,1.15.96,2.2,1.3,3.35.28.06.19-.04.27-.16.22-.34.38-.84.6-1.21,3.86-6.47,9.78-12.14,15.31-17.1.03-.03.32-.06.48-.19,9.61-7.9,20.33-14.08,32.72-16.47.11-.02.2-.11.24-.12,2.7-.51,5.95-.93,8.69-1.09.12,0,.24,0,.36,0,2.86-.14,5.84-.05,8.69.24.12.01.24-.01.36,0,2.56.29,5.38.81,7.85,1.57.12.04.24.08.36.12,1.97.64,4.69,1.87,6.4,3.02.09.06.19.09.24.12.08.05.21.31.36.42,1.55,1.18,2.84,2.49,3.68,4.29,1.04-7.01-2.71-14.69-8.09-19.07-8.4-6.84-23.35-7.65-33.64-6.01-8.87,1.41-16.71,4.61-24.24,9.38ZM96.28,49.98c-.53-3.2-1.67-7.01-4.8-8.54-6.3-3.07-10.23,5.63-9.68,10.71,1.1-.5,2.14-1.07,3.29-1.48,3.5-1.26,7.58-1.63,11.2-.69ZM25.97,76.05v.12c.08-.04.08-.08,0-.12Z" fill="#121212"/><path d="M79.63,16.54c-14.98-4.05-31.24-1.55-44.97,5.31-.25,0-1.18-1.29-1.44-1.57-1.68-1.78-3.45-3.52-5.38-5.02-.02-.32,1.27-1.52,1.58-1.81C40.8,2.57,57.83.62,71.29,9c2.67,1.67,6.24,4.68,8.16,7.17.09.12.23.15.18.36Z" fill="#c7512d"/><path d="M10.14,68.82c-1.13-2.61-2.98-7.91-1.91-14.36.67-4.06,2.22-6.91,3.45-9.18,3.14-5.77,7.01-9.25,10.52-12.39,1.43-1.28,4.25-3.7,8.17-6.21,2.64-1.7,4.8-2.81,6.32-3.59,2.13-1.09,4.5-2.29,7.78-3.45.47-.17,2.54-.89,5.16-1.53,1.99-.49,7.96-1.85,15.85-1.63,4.53.12,9.72.31,15.78,2.75,5.27,2.12,7.91,4.62,8.61,5.31,2.41,2.37,3.71,4.74,4.32,5.87.97,1.81,2.11,3.98,2.46,7.06.23,2,.03,3.68-.17,4.81-.54-1-1.49-2.47-3.06-3.87-1.76-1.58-3.45-2.3-5.33-3.11-2.34-1-4.24-1.45-5.55-1.74-.75-.17-2.4-.52-5.31-.82-2.07-.21-5.18-.51-9.08-.34-6.61.29-11.6,1.78-14.73,2.74-1.77.54-4.5,1.45-7.74,2.88-6.41,2.83-10.85,5.94-14.19,8.31-1.55,1.1-4.07,2.89-7.15,5.58-2.32,2.02-5.94,5.17-9.53,9.82-1.32,1.71-2.99,4.08-4.66,7.1Z" fill="#802a0e"/><path d="M30.61,26.56c7.53-4.77,15.37-7.97,24.24-9.38,10.3-1.64,25.24-.84,33.64,6.01,5.38,4.38,9.13,12.06,8.09,19.07-.85-1.8-2.13-3.1-3.68-4.29-.15-.12-.28-.37-.36-.42.25-.96.19-2.05.06-3.02-.07-.53-.24-1.41-.36-1.94-.06-.26-.48-1.85-.55-1.93-.17-.17-.39.45-.6.3.19-.18.34-.48.35-.74.03-.62-1.61-4-2-4.74-.33-.62-.75-1.27-1.19-1.83.28.89.63,1.78.97,2.65.53,1.35,1.07,2.66,1.47,4.08.66,2.31,1.13,4.68,1.6,7.03-1.71-1.15-4.43-2.38-6.4-3.02.24-3.85-.97-7.44-2.61-10.85-.61-1.27-1.31-2.64-2.16-3.76.9,2.38,1.99,4.71,2.75,7.15.69,2.21,1.17,4.52,1.67,6.78.04.16.21.45-.01.55-2.46-.76-5.29-1.28-7.85-1.57-.03-.66.05-1.34,0-1.99-.24-3.28-2.03-8.09-3.64-10.96-.2-.35-.49-.82-.82-1.05.4,1.72,1.34,3.35,1.9,5.04s1.05,3.63,1.45,5.31c.28,1.21.41,2.45.76,3.65-2.86-.29-5.83-.38-8.69-.24.03-5.21-2.03-10.22-4.41-14.73-.3-.04-.18.21-.13.37.2.59.59,1.26.8,1.86,1.42,4.07,2.35,8.31,3.37,12.5-2.74.16-5.99.58-8.69,1.09.03-.91-.01-1.8-.13-2.7-.48-3.59-1.82-8.11-3.33-11.4-.08-.17.07-.33-.27-.26l3.5,14.49c-12.39,2.4-23.11,8.57-32.72,16.47-.16.13-.44.16-.48.19l-1.81-10.93c-.32-2.46-.27-4.9-.36-7.36,0-.15.09-.45-.12-.42-.14.81-.3,1.65-.36,2.47-.29,3.64.09,8.06.95,11.61.37,1.54.9,3.27,1.71,4.63-5.53,4.97-11.45,10.63-15.31,17.1-.22.37-.38.87-.6,1.21-.08.12.01.22-.27.16-.33-1.15-.95-2.21-1.3-3.35-2.01-6.65-.51-14.37,3.1-20.19l-.24,5.55c.61.19.14-.53.6-.3-.03.34-.59.42-.61.5-.14.47.17,2.72.26,3.35.38,2.7,1.01,4.69,2.1,7.2.12.27.05.91.42.84-.25-1.49-.65-2.96-.93-4.44-.7-3.75-1.7-9.33-1.24-13.06.08-.65,1.49-2.52,1.95-3.18,1.01-1.42,2.09-2.65,3.24-3.95.08.69-.25,1.49-.33,2.14-.52,4.53.06,10.57,1.6,14.87.18.5.41,1.22.78,1.57-.36-3.34-1.33-6.6-1.45-9.96-.43-2.93-.36-5.91-.36-8.87,3.99-4.39,7.77-7.64,12.8-10.86l-.13,7.19c.46,3.7.96,7.43,2.39,10.9.07.18-.07.33.27.27,0-1.13-.38-2.24-.57-3.35-.64-3.72-1.07-7.46-1.6-11.19l-.12-3.92ZM64.05,17.62c.09-.17-.08-.32-.12-.24-.09.17.08.32.12.24ZM55.6,18.11s-.25-.04-.24.06l.48.91c.05-.17-.18-.9-.24-.97ZM47.27,22.33c.3-.82-.32-1.59-.36-2.41-.47.27.04,1.15.11,1.64.63,4.55,1.26,9.1,2.7,13.48l.45.94c-.03-2.32-.55-4.72-1.02-7.01s-1.07-4.52-1.64-6.76l-.24.12ZM38.58,22.82c-.15-.19-.22,0-.24.18-.04.34-.09.99-.1,1.33-.09,4.49.77,9.75,1.96,14.07.09.32.36,1.17.52,1.41.08.13,0,.21.27.15.31-.39-1.37-8.54-1.55-9.73-.21-1.37-.2-2.76-.6-4.1l-.26-3.3ZM88.14,23.42v.12c.08-.04.08-.08,0-.12Z" fill="#c7512d"/><path d="M16.61,35.01l-6.03,7.85c-2.96-8.34-5.13-17.02-5.79-25.89-.16-2.15-.36-4.89-.12-7,.29-2.58.8-3.36,3.02-1.45,1.34,1.15,2.74,2.85,3.86,4.23,3.78,4.66,6.99,9.79,10.02,14.97.04.17,0,.23-.18.18-.42-.12-1.28-.79-1.75-1.03-1.99-.99-4.11-1.77-6.28-2.23l4.95,5.25c.04.3-.08.14-.25.13-1.71-.17-3.72-.28-5.3.48l4.71,2.11c.06.31-.04.19-.17.25-1.33.68-2.51.88-3.57,2.1-.35.41-.33.44.06.06h2.84Z" fill="#f6f2eb"/><path d="M93.75,25.47c-.23.06-.23-.08-.34-.2-.4-.43-.76-1.04-1.17-1.49-1.2-1.33-2.68-2.56-4.17-3.56-.09-.06-.11-.14-.13-.24-.07-.46,1.6-4.35,1.92-5.09.95-2.23,2-4.43,3.16-6.56.33-.23.53.79.57.94.18.77.3,1.71.4,2.5.53,4.56.15,9.15-.24,13.7Z" fill="#f6f2eb"/><path d="M83.73,61.2c-.03.06-.76,1-.85,1.09-.41.43-1.82,1.26-2,1.8.05,1.23-.3,2.56-.29,3.75,0,.11-.02.27,0,.36.03.13.28.45.36.6.04.12,0,.12.12.24.83,1.52,1.74,2.55,3.5,1.45.23-.14.26-.02.48-.36l.48-.12-.12.72c-.14.14-.17.28-.24.36-.14.16-.24.3-.36.48-.03.04-.09.08-.12.12-1.05.88-2.2.89-3.38.24-.3-.27-.81-.83-1.08-1.15-.23-.26-.42-.75-.6-.95-.25-.28-.25.1-.37.22-4.52,4.73-12.65,5.67-17.14.43.09-.3-.19-.3.24-.36.21.42.59.27.72.36.02.01-.05.34.24.24.12.12.2.09.24.12.5.35,1.07.67,1.69.72.34.22.45.15.72.24.52.18,1.14.45,1.69.48.16,0,.32,0,.48,0,2.45.42,4.94-.08,7.12-1.21.44-.22,1.05-.55,1.45-.85.24-.18.3-.25.48-.48.15-.03.17-.17.24-.24.04-.04.08-.08.12-.12.32-.3.55-.48.85-.85.16-.2.33-.28.45-.58.13-.31.1-.48.15-.75.1-.48.22-1.21.24-1.69.02-.42-.03-1.38-.23-1.73-.15-.26-2-1.24-2.42-1.53-.33-.22-.67-.46-.97-.72-.06-.06-.17-.17-.24-.24s-.11-.21-.24-.24c0-.03,0-.09,0-.12-.12-.5-.84-.87.12-1.57.03-.02.18-.09.24-.12.12-.06.85-.33.97-.36,1.66-.41,5.62-.62,7.04.38.62.44.51,1.31.2,1.91Z" fill="#121212"/><path d="M62.48,51.06c-1.44-.27-2.91-.42-4.34-.72.02.32-.03.65,0,.97,0,.04,0,.08,0,.12-.22,1.4-.66,2.99-1.57,4.1-.04.05-.17.16-.24.24-2,2.1-4.77,1.7-6.88,0-1.98-1.6-2.96-4.25-2.9-6.76-1.63-.19-3.35-.49-4.89-1.09-.21-.08-2.04-.81-1.63-1.21,7.36.32,14.77.51,21.95,2.25,1.48.36,4.63,1.13,5.74,2.11.31.28.95,1.26.26,1.31-.42.03-2.57-.73-3.22-.89-.75-.17-1.52-.3-2.27-.44Z" fill="#121212"/></g></svg>