<?xml version="1.0" encoding="UTF-8"?><svg id="b" xmlns="http://www.w3.org/2000/svg" width="600.92" height="292.56" viewBox="0 0 600.92 292.56"><g id="c"><path d="M369.15,90.3c.06.97-.09,1.98,0,2.95l-1.18-.59c.5-1.69-1.62-1.65-1.14-.35.08.23.51.25.55.35,5.64,14.48,10.14,31.45,9.43,47.16-4.86-1.31-3.88,5.01-5.61,7.06-1.08,1.28-6.07,1.99.6,2.97.21-2.74,1.5-1.64,3.83-1.78-.13.93.09,1.99,0,2.95-8.19,1.09-26.77-3.1-36.55-3.54,3.14-14.17,1.31-29.75-2.65-43.62-.94-3.27-2.7-8.82-4.13-11.79-.33-.69-.58-1.62-1.47-1.77,5.72,18.34,8.58,37.93,7.07,57.18-14.37-.58-29.91-.12-44.21,1.18l-2.65-57.77c-1.54,13.07-1.93,26.6-.88,39.79.48,5.99,1.66,12.02,2.35,17.98-11.92,1.15-24.82,2.91-36.55,5.3-1.31-4.73-2.1-11.21-2.35-16.22-.76-14.79,1.31-26.46,2.87-40.74.07-.65.53-2.13-.51-1.98-5.23,19.29-6.92,40.05-1.78,59.53-21.62,4.6-44.98,12.39-64.84,21.81-4.76-20.65-1.93-41.17,3.53-61.3-1.02.16-1.03,1.17-1.34,1.9-7.29,17.2-10.23,41.99-2.79,59.4-.12.06-.41.82-.96,1.08-19.78,9.64-37.93,21.81-54.24,36.55-7.9-3.82-16-7.42-24.83-8.59-1.58-.71-1.53-3.04-1.82-4.66-4.13-23.13,7.52-37.93,23.49-52.38,61.84-55.97,158.79-70.17,238.73-58.05ZM330.54,89.12v.59c.38-.2.38-.39,0-.59ZM221.19,162.79c-3.49-20.56-2.06-41.85,3.53-61.89-1.02.16-1.02,1.17-1.33,1.9-1.72,4.02-3.34,10.25-4.28,14.58-2.76,12.81-4.07,30.38.16,42.91.35,1.05.39,2.92,1.92,2.49ZM193.49,114.46c.42-.83-.37-1.57-.58-1.17-.42.83.37,1.57.58,1.17ZM164.02,129.2c-1.71-.33-.94.5-1.33,1.29-5.38,10.96-8.91,30.45-8.09,42.61.45,6.61,2.24,13.07,4.72,19.16,1.02.15.6-1.37.52-1.99-1.59-12.21-3.54-20.24-2.29-33.07.93-9.53,3.89-18.85,6.47-28ZM134.55,212.31c-7.22-21.65-4.49-45.22,2.35-66.6-.88.15-1.13,1.08-1.47,1.77-1.86,3.87-3.93,10.81-4.97,15.07-3.79,15.46-4.54,34.01,2.64,48.58.41.84-.13,1.48,1.44,1.18Z" fill="#c83d0c"/><path d="M226.02,89.59l-24.6-32.91c11.91-8.3,24.74-15.41,38.32-20.63,53.32-20.49,120.99-16.1,167.89,17.8,2.48,1.79,15.75,12.24,15.75,14.33l-17.4,21.53c-13.63-3.32-27.41-6.41-41.34-8.2-37.38-4.79-75.84-3.48-112.91,3.06-8.59,1.52-17.12,3.92-25.71,5.01Z" fill="#c63b0b"/><path d="M438.7,170.46c2.85-3.34,3.85-9.48,4.15-13.83.98-14.39-2.36-30.14-9.16-42.76.16,3.92,2.4,8.04,3.41,11.91,3.17,12.13,5.28,30.23,1.87,42.32-.28.98.11,2.1-1.45,1.76-14.94-6.98-32.23-11.99-48.33-15.63-3.75-.85-10.28-1.3-12.38-3.24,4.11-14.12,2.24-29.64-2.19-43.49-1.28-4.01-5.12-10.59-5.47-14.27-.09-.97.06-1.98,0-2.95,27.31,4.14,51.53,9.6,75.84,23.48,22.32,12.74,53.57,41.05,55.59,68.19.27,3.58-.41,21.67-2.93,23.58-.41.31-9.54,2.57-10.01,2.37-13.33-15.87-30.26-28.5-48.94-37.45ZM401.86,99.14v.59c.38-.2.38-.39,0-.59ZM402.45,100.32v.59c.38-.2.38-.39,0-.59ZM403.04,101.49v.59c.38-.2.38-.39,0-.59ZM410.4,158.67c5.97-15.49,2.94-34.35-3.43-49.32-.9-2.11-2.04-5.2-3.63-6.67,5.58,14.95,8.48,29.62,7.68,45.71-.13,2.63-.99,5.61-1.2,8.24-.05.65-.43,2.2.58,2.05ZM433.39,113.28c.42-.83-.37-1.57-.58-1.17-.42.83.37,1.57.58,1.17ZM458.73,125.07c-2.56-.51.74,4.29,1.2,5.58,4.17,11.64,7.24,27.75,6.46,40.09-.27,4.2-1.73,8.43-1.47,12.68,8.93-18.49,1.08-40.55-6.2-58.35ZM484.67,202.87c1.47-3.1,3.17-5.88,3.96-9.31,2.84-12.38.53-30.19-4.25-41.96-.4-.98-1.13-3.07-2.05-3.54,4.71,18.21,7.48,34.72,2.18,53.17-.16.56-.97,1.77.17,1.64ZM464.63,185.19c.42-.83-.37-1.57-.58-1.17-.42.83.37,1.57.58,1.17Z" fill="#c63b0b"/><path d="M501.04,25.01c3.27,3.27,2.75,29.78,2.52,35.54-1.09,27.7-6.7,55.27-11.95,82.36l-1.62,1.01c-2.05-3.53-5.14-6.96-7.96-10.03-.96-1.05-4.93-4.1-5.03-4.42-.16-.51-.22-1.12.41-1.48.77-.43,5.85-1.45,6.08-1.77-.22-2.5-3.94-3.66-6.01-4.3-1.83-.57-10.9-1.64-11.08-2.48l13.55-16.79c-2.82-1.19-16.9,5.92-17.68,5.3l12.96-22.39c-1.38-1.26-12.69,7.48-14.42,8.85-1.58,1.25-4.91,4.87-6.21,5.58-.47.26-1.57.69-1.78,0,7.96-22.95,19.7-48.88,35.95-67.2,2.04-2.31,9.31-10.74,12.25-7.8Z" fill="#faefde"/><path d="M369.15,93.24c.35,3.68,4.19,10.26,5.47,14.27,4.43,13.85,6.3,29.37,2.19,43.49-.04-.04-.91-.04-1.18,0,.09-.95-.13-2.02,0-2.95.36-2.61,1.05-5.42,1.18-8.25.71-15.7-3.79-32.68-9.43-47.16h.59l1.18.59Z" fill="#932a05"/><path d="M255.97,153.95c-.34.07-1,.43-1.77.59-5.15-19.48-3.46-40.24,1.78-59.53,1.04-.14.58,1.34.51,1.98-1.56,14.28-3.63,25.95-2.87,40.74.26,5.01,1.05,11.48,2.35,16.22Z" fill="#932a05"/><path d="M339.08,147.47c-.39-.02-.79.02-1.18,0,1.51-19.25-1.34-38.84-7.07-57.18.88.15,1.14,1.08,1.47,1.77,1.42,2.96,3.19,8.52,4.13,11.79,3.97,13.87,5.79,29.45,2.65,43.62Z" fill="#932a05"/><path d="M293.7,148.65c-.39.04-.79-.04-1.18,0-.69-5.96-1.87-11.99-2.35-17.98-1.05-13.19-.66-26.71.88-39.79l2.65,57.77Z" fill="#932a05"/><path d="M437.52,169.87c1.57.33,1.17-.78,1.45-1.76,3.4-12.09,1.3-30.19-1.87-42.32-1.01-3.87-3.25-7.99-3.41-11.91,6.81,12.61,10.15,28.37,9.16,42.76-.3,4.35-1.3,10.49-4.15,13.83-.4-.19-.79-.41-1.18-.59Z" fill="#932a05"/><path d="M189.37,176.35c-.16.08-.43-.08-.59,0-7.44-17.41-4.5-42.2,2.79-59.4.31-.73.32-1.74,1.34-1.9-5.46,20.14-8.29,40.66-3.53,61.3Z" fill="#932a05"/><path d="M164.6,101.49c-8.1-5.92-15.92-13.45-25.93-15.91l15.31,22.7c-6.86-1.76-13.34-5.48-20.61-5.6l15.91,17.68c-4.37-.16-8.81.41-13.07,1.37-1.12.25-10.27,2.39-8.73,4.52.43.59,9.81,3.05,11.44,4.1.6.39.39.59.34,1.2-7.94,4.76-14.33,11.62-21.21,17.69-5.36-24.55-10.26-49.45-12.38-74.57-.99-11.73-3.04-36.01.61-46.53,2.27-6.55,6.76-3.02,10.59-.04,7.34,5.72,15.88,16.34,21.44,23.94,10.83,14.81,20.27,32.13,26.29,49.45Z" fill="#faefde"/><path d="M134.55,212.31c-1.57.3-1.02-.34-1.44-1.18-7.18-14.57-6.43-33.12-2.64-48.58,1.04-4.26,3.11-11.2,4.97-15.07.33-.69.58-1.62,1.47-1.77-6.84,21.38-9.58,44.95-2.35,66.6Z" fill="#932a05"/><path d="M164.02,129.2c-2.58,9.15-5.54,18.48-6.47,28-1.25,12.83.7,20.86,2.29,33.07.08.63.5,2.14-.52,1.99-2.47-6.09-4.27-12.55-4.72-19.16-.82-12.16,2.72-31.65,8.09-42.61.39-.79-.38-1.63,1.33-1.29Z" fill="#932a05"/><path d="M221.19,162.79c-1.53.43-1.56-1.44-1.92-2.49-4.23-12.53-2.93-30.11-.16-42.91.94-4.34,2.56-10.56,4.28-14.58.31-.73.32-1.74,1.33-1.9-5.59,20.03-7.02,41.32-3.53,61.89Z" fill="#932a05"/><path d="M376.81,139.81c-.13,2.83-.82,5.64-1.18,8.25-2.33.14-3.62-.96-3.83,1.78-6.66-.98-1.68-1.69-.6-2.97,1.73-2.05.75-8.37,5.61-7.06Z" fill="#c63b0b"/><path d="M367.38,92.65c-.04-.1-.46-.12-.55-.35-.48-1.3,1.64-1.34,1.14.35h-.59Z" fill="#c63b0b"/><path d="M193.49,114.46c-.2.4-1-.35-.58-1.17.2-.4,1,.35.58,1.17Z" fill="#932a05"/><path d="M330.54,89.12c.38.2.38.39,0,.59v-.59Z" fill="#932a05"/><path d="M410.4,158.67c-1.01.15-.63-1.4-.58-2.05.21-2.63,1.07-5.61,1.2-8.24.8-16.09-2.1-30.76-7.68-45.71,1.6,1.48,2.74,4.57,3.63,6.67,6.37,14.96,9.4,33.83,3.43,49.32Z" fill="#932a05"/><path d="M484.67,202.87c-1.13.14-.33-1.08-.17-1.64,5.3-18.45,2.53-34.96-2.18-53.17.92.47,1.65,2.57,2.05,3.54,4.78,11.77,7.09,29.58,4.25,41.96-.78,3.43-2.49,6.21-3.96,9.31Z" fill="#932a05"/><path d="M458.73,125.07c7.28,17.8,15.13,39.86,6.2,58.35-.26-4.25,1.2-8.47,1.47-12.68.78-12.33-2.29-28.45-6.46-40.09-.46-1.3-3.76-6.1-1.2-5.58Z" fill="#932a05"/><path d="M433.39,113.28c-.2.4-1-.35-.58-1.17.2-.4,1,.35.58,1.17Z" fill="#932a05"/><path d="M464.63,185.19c-.2.4-1-.35-.58-1.17.2-.4,1,.35.58,1.17Z" fill="#932a05"/><path d="M403.04,101.49c.38.2.38.39,0,.59v-.59Z" fill="#932a05"/><path d="M402.45,100.32c.38.2.38.39,0,.59v-.59Z" fill="#932a05"/><path d="M401.86,99.14c.38.2.38.39,0,.59v-.59Z" fill="#932a05"/><path d="M34.34,271.84c-8.81-25.52,6.56-51.29,30.08-61.58,10.4-4.55,22.25-6.49,33.58-6.21-1.71-11.84-1.19-24.29,3.85-35.35,1.39-3.05,3.61-5.43,4.37-8.5-5.69-23.57-11-47.36-14.03-71.48-2.43-19.32-7.56-67.31,4.39-82.68,11.37-14.62,40.04.88,52.3,8.31,16.8,10.19,31.77,23.18,46.21,36.37,1.15.29,7.93-5.01,9.65-6.08,62.2-38.66,145.67-39.86,206.68,1.88,1.84,1.26,7.21,6.06,8.72,6.09,1.09.02,1.2-1.29,2.02-2.14C437.09,35.11,474.96,1.99,496.18.12s21.08,24.09,21.48,39.21c1.05,39.45-6.96,79.03-15.91,117.29,1.28,4.37,3.95,7.99,5.33,12.35,3.6,11.41,2.84,24.08.58,35.67,36.74-3.12,73.48,29.1,60.12,67.2h28.59c.34,0,3.15,1.36,3.52,1.78,2.49,2.85.07,6.52-3.06,7.53-9.78.09-19.59.29-29.37.15-1.78-.03-3.35-.92-5.24-.6-1.66.28-6.04,4.41-8.57,5.6-7.69,3.63-14.67,3.44-22.58.74-1.09-.37-2.19-1.6-3.07-1.62-1.16-.04-5.29,3.24-7.21,3.97-9.49,3.63-21.11,2.2-28.83-4.52-9.8,5.99-19.94,5.23-29.63-.4-1.86-1.08-3.03-2.96-5.03-3.22l-306.24.34c-9.34,9.29-21.32,11.17-33.42,6.29-.99-.4-2.68-1.88-3.32-1.79-.72.11-3.74,2.75-4.92,3.34-7.51,3.8-17.22,4.11-25.1,1.14-1.98-.75-6.62-3.9-7.84-3.98-1.32-.09-5.02,2.01-6.87,2.52-10.93,3-20.89-.42-29.06-7.81-10.65-1.39-26.36,1.87-36.4-.15-3.48-.7-5.48-4.67-3.06-7.51.27-.32,2.76-1.79,2.93-1.79h30.36ZM226.02,89.59c8.6-1.08,17.12-3.49,25.71-5.01,37.07-6.54,75.53-7.84,112.91-3.06,13.94,1.78,27.71,4.87,41.34,8.2l17.4-21.53c0-2.1-13.27-12.54-15.75-14.33-46.91-33.9-114.57-38.29-167.89-17.8-13.59,5.22-26.41,12.33-38.32,20.63l24.6,32.91ZM164.6,101.49c-6.02-17.32-15.46-34.64-26.29-49.45-5.56-7.61-14.11-18.22-21.44-23.94-3.83-2.99-8.31-6.52-10.59.04-3.65,10.53-1.6,34.81-.61,46.53,2.12,25.12,7.02,50.01,12.38,74.57,6.88-6.07,13.27-12.94,21.21-17.69.05-.62.26-.82-.34-1.2-1.63-1.05-11.02-3.5-11.44-4.1-1.53-2.13,7.61-4.27,8.73-4.52,4.27-.96,8.7-1.52,13.07-1.37l-15.91-17.68c7.27.13,13.76,3.84,20.61,5.6l-15.31-22.7c10.01,2.46,17.83,10,25.93,15.91ZM501.04,25.01c-2.94-2.94-10.21,5.49-12.25,7.8-16.25,18.32-27.99,44.25-35.95,67.2.2.69,1.3.27,1.78,0,1.3-.71,4.62-4.33,6.21-5.58,1.74-1.37,13.04-10.11,14.42-8.85l-12.96,22.39c.78.62,14.86-6.49,17.68-5.3l-13.55,16.79c.18.85,9.25,1.92,11.08,2.48,2.07.64,5.8,1.8,6.01,4.3-.23.32-5.31,1.34-6.08,1.77-.64.36-.57.97-.41,1.48.1.32,4.07,3.37,5.03,4.42,2.82,3.07,5.91,6.5,7.96,10.03l1.62-1.01c5.24-27.1,10.86-54.66,11.95-82.36.23-5.76.75-32.27-2.52-35.54ZM188.78,176.35c.16-.08.43.08.59,0,19.86-9.41,43.22-17.21,64.84-21.81.77-.16,1.43-.52,1.77-.59,11.73-2.4,24.63-4.16,36.55-5.3.39-.04.79.04,1.18,0,14.3-1.3,29.84-1.76,44.21-1.18.39.02.79-.02,1.18,0,9.77.44,28.36,4.62,36.55,3.54.27-.04,1.14-.04,1.18,0,2.11,1.94,8.64,2.39,12.38,3.24,16.1,3.63,33.39,8.64,48.33,15.63.39.18.78.4,1.18.59,18.68,8.95,35.61,21.59,48.94,37.45.47.2,9.6-2.06,10.01-2.37,2.52-1.91,3.2-20,2.93-23.58-2.02-27.14-33.28-55.45-55.59-68.19-24.32-13.88-48.53-19.34-75.84-23.48-79.94-12.12-176.89,2.08-238.73,58.05-15.96,14.45-27.61,29.26-23.49,52.38.29,1.62.24,3.96,1.82,4.66,8.83,1.17,16.93,4.76,24.83,8.59,16.31-14.74,34.46-26.91,54.24-36.55.54-.27.84-1.02.96-1.08ZM375.04,272.43h49.22c.49,0,7.25-3.38,9.01-3.96,2.53-.82,15.86-3.6,16.38-4.27.44-.57-.18-2.28-.74-2.41-2.38-.59-11.8,2.15-15.2,2.41-3.61.27-10.01.64-12.69-1.78,10.13-2.46,24.45-9.46,29.97-18.67,1.34-2.23,6.93-13.42,7.49-15.5,7.01-26.32-18.22-46.48-42.89-42.3-21.6,3.66-33.67,22.83-35.82,43.45.38.43,5.57-3.34,6.47-3.84,15.28-8.42,41.92-13.39,59.24-12.07,7.38.57,13.92,3.85,3.4,7.52l-24.33,1.9c3.15,26.82-30.74,42.59-40.07,12.07-.22-.72.45-1-.87-.86-.69.08-3.76,1.04-3.88,1.55-.31,1.29-.11,7.07.04,8.74.14,1.55,2.01,8.73,1.74,9.1-1.09,1.49-3.52-.34-4.46-.49-9.14-1.45-20.17-1.76-29.44-1.26-2.68.15-17.82,2.69-18.58,2.14-1.49-1.08.1-5.87.09-7.71-.24-39.16-32.37-66.28-70.52-65.16-27,.79-82.06,22.4-52.12,56.3,11.2,12.68,25.93,15.76,41.04,20.88.91.31,1.69-.52,1.38,1.24-19.42,2.7-37.62-5.94-56.88-7.06-8.59-.5-21.55-.06-29.65,2.79-.95.34-1.58-.31-1.29,1.33,25.91-2.47,51.83,1.6,76.62,8.85l-9.14,1.17c-16.64.27-35.99-.14-52.06,4.53-.91.27-2.19.19-2.46,1.37,5.57-.24,11.25.33,16.82.03,16.85-.92,33.81-4.45,50.65,0l99.34-.02c.74-.66-4.02-4.76-4.62-5.69-5.57-8.69,4.39-9.89,10.89-10.73,8.15-1.06,17.54-.95,25.57.8,2.33.51,4.64.71,6.21,2.63,4.24,5.21-4.86,12.12-3.86,13ZM87.86,214.25c-23.54,2.09-48.67,20.18-46.44,46.08,1.08,12.59,12.53,23.01,25.36,19.49,8.38-2.3,4.09-5.57,4.05-11.82-.01-1.83.81-8.81,2.06-9.77,4.91-3.77,4.24,4.73,4.55,6.76,1.28,8.46,3.55,15.12,12.76,17.3,10.86,2.57,20.15-1.96,22.37-13.26.46-2.34.46-10.17,1.92-11.05,5.74-3.45,5.48,10.13,5.31,12.97-.1,1.7-1.57,5.36-.6,6.47,4.6,5.26,16.93,3.54,22.12-.27,14.6-10.72,9.52-32.21-.58-44.21-12.77-15.17-33.71-20.38-52.88-18.68ZM505.19,214.25c-25.01,2.02-54.65,24.29-45.29,52.01,3.97,11.74,18.2,17.98,28.21,9.36-1.13-3.29-1.77-16.74,1.28-18.22,5.2-2.53,3.8,5.26,4.14,7.66,1.04,7.47,3,13.9,11.07,16.04,9.99,2.66,19.45-1.67,21.77-12.07.53-2.4.59-10.78,1.91-11.64.86-.57,3.13-.54,3.86.31.59.69,1.48,7.81,1.47,9.14-.03,5.86-4.3,11.03,4.56,12.53,17.75,3.01,25.67-15.6,22.28-30.53-5.57-24.47-31.92-36.46-55.25-34.58Z" fill="#0b0d0e"/><path d="M375.04,272.43c-1.01-.87,8.1-7.79,3.86-13-1.56-1.92-3.88-2.12-6.21-2.63-8.04-1.75-17.42-1.86-25.57-.8-6.49.85-16.45,2.04-10.89,10.73.6.93,5.36,5.03,4.62,5.69l-99.34.02c-16.84-4.45-33.79-.92-50.65,0-5.57.3-11.25-.27-16.82-.03.27-1.18,1.54-1.1,2.46-1.37,16.07-4.67,35.42-4.25,52.06-4.53l9.14-1.17c-24.79-7.25-50.71-11.32-76.62-8.85-.28-1.64.34-.99,1.29-1.33,8.09-2.85,21.05-3.29,29.65-2.79,19.26,1.12,37.46,9.77,56.88,7.06.31-1.76-.47-.93-1.38-1.24-15.11-5.12-29.84-8.2-41.04-20.88-29.94-33.9,25.13-55.51,52.12-56.3,38.15-1.12,70.28,26,70.52,65.16.01,1.84-1.58,6.63-.09,7.71.76.55,15.9-1.99,18.58-2.14,9.27-.5,20.3-.19,29.44,1.26.94.15,3.37,1.98,4.46.49.27-.37-1.6-7.55-1.74-9.1-.15-1.67-.35-7.44-.04-8.74.12-.51,3.2-1.48,3.88-1.55,1.31-.15.65.14.87.86,9.33,30.52,43.22,14.75,40.07-12.07l24.33-1.9c10.51-3.66,3.98-6.95-3.4-7.52-17.32-1.33-43.97,3.65-59.24,12.07-.9.5-6.09,4.27-6.47,3.84,2.15-20.62,14.23-39.8,35.82-43.45,24.67-4.18,49.9,15.98,42.89,42.3-.55,2.08-6.15,13.27-7.49,15.5-5.52,9.21-19.84,16.21-29.97,18.67,2.68,2.43,9.09,2.05,12.69,1.78,3.4-.26,12.82-3.01,15.2-2.41.55.14,1.18,1.85.74,2.41-.52.67-13.85,3.45-16.38,4.27-1.76.57-8.52,3.96-9.01,3.96h-49.22ZM277.85,223.57c1.95-1.35,30.16,8.29,34.49,9.35,3.64-.16,3.67-1.56,1.7-4.13-9.5-12.37-56.96-19.5-72.52-20.61-7.68-.55-24.2-1.55-31.08.74-1.92.64-4.04,2.25-2.22,4.27,2.59,2.89,17.57,2.57,21.81,3.23-3,33.92,41.61,41.19,47.81,7.14Z" fill="#faefde"/><path d="M87.86,214.25c19.17-1.7,40.11,3.5,52.88,18.68,10.1,12,15.18,33.49.58,44.21-5.19,3.81-17.52,5.53-22.12.27-.97-1.11.49-4.77.6-6.47.17-2.83.44-16.41-5.31-12.97-1.46.88-1.46,8.71-1.92,11.05-2.22,11.3-11.5,15.83-22.37,13.26-9.21-2.18-11.49-8.84-12.76-17.3-.31-2.03.36-10.52-4.55-6.76-1.25.96-2.07,7.94-2.06,9.77.04,6.25,4.33,9.52-4.05,11.82-12.84,3.52-24.28-6.9-25.36-19.49-2.23-25.9,22.9-44,46.44-46.08Z" fill="#faefde"/><path d="M505.19,214.25c23.33-1.88,49.69,10.11,55.25,34.58,3.4,14.93-4.53,33.54-22.28,30.53-8.86-1.5-4.59-6.67-4.56-12.53,0-1.33-.88-8.45-1.47-9.14-.73-.85-3-.88-3.86-.31-1.32.86-1.37,9.25-1.91,11.64-2.32,10.4-11.77,14.73-21.77,12.07-8.07-2.15-10.03-8.57-11.07-16.04-.33-2.4,1.06-10.19-4.14-7.66-3.05,1.49-2.41,14.94-1.28,18.22-10.02,8.62-24.25,2.39-28.21-9.36-9.36-27.72,20.28-49.99,45.29-52.01Z" fill="#faefde"/><path d="M277.85,223.57c-6.2,34.05-50.8,26.78-47.81-7.14-4.24-.67-19.22-.35-21.81-3.23-1.81-2.02.31-3.63,2.22-4.27,6.87-2.3,23.4-1.29,31.08-.74,15.55,1.11,63.01,8.24,72.52,20.61,1.97,2.56,1.94,3.96-1.7,4.13-4.33-1.07-32.54-10.7-34.49-9.35Z" fill="#0b0d0e"/></g></svg>