<?xml version="1.0" encoding="UTF-8"?><svg id="b" xmlns="http://www.w3.org/2000/svg" width="78.5" height="75.16" viewBox="0 0 78.5 75.16"><g id="c"><path fill="#7F5A83" d="M52.67,0l-2.13,20.34c-.48,4.57,2.96,8.62,7.55,8.89l20.41,1.18-18.68,8.33c-4.2,1.87-5.99,6.87-3.92,10.98l9.18,18.27-16.55-12.01c-3.72-2.7-8.94-1.75-11.47,2.1l-11.23,17.09,2.13-20.34c.48-4.57-2.96-8.62-7.55-8.89l-20.41-1.18,18.68-8.33c4.2-1.87,5.99-6.87,3.92-10.98L13.42,7.17l16.55,12.01c3.72,2.7,8.94,1.75,11.47-2.1L52.67,0Z"/></g></svg>