<?xml version="1.0" encoding="UTF-8"?><svg id="b" xmlns="http://www.w3.org/2000/svg" width="137.41" height="80.18" viewBox="0 0 137.41 80.18"><g id="c"><path d="M73.39,49.43c6.88-.93,14.19,1.35,14.63,9.32.43,7.83-6.9,11.23-13.66,11.51-3.71.16-3.42-.92-3.72-4.43-.26-3.01-.54-6.22-.71-9.22-.21-3.82-.91-6.59,3.46-7.18ZM76.67,63.18c6.4.15,6.17-8.46-.36-7.45l.36,7.45Z"/><path d="M101.98,66.6c-5.55-5.08-3.41-18.04,4.71-19,14.77-1.75,14.57,23.74-1.3,20.74-1.05-.2-2.62-1.02-3.41-1.74ZM108.42,54.1c-3.84-.14-4.03,7.08-1.05,7.65,4.72.9,4.79-7.52,1.05-7.65Z"/><path d="M66.64,51.56c1.8,1.7,1.69,12.3.99,14.82-1.72,6.26-11.19,8.78-14.68,3.3-1.79-2.81-2.44-9.68-2.56-13.06-.14-4.02,3.71-4.38,6.59-3.03.82,2.26-.11,9.33,1.74,10.67,3.22,2.33,2.81-3.8,2.68-5.52-.12-1.61-1.21-4.45-.53-5.86.55-1.13,4.68-2.35,5.76-1.32Z"/><path d="M118.64,68.03c-1.66-1.44.8-4.09,1.19-5.95,1.14-1.08,6.85,3.65,7.56,1.26.46-1.55-4.82-3.08-6.14-4.13-3.58-2.85-2.69-8.41,1.35-10.24,2.96-1.34,4.94-1.21,7.91-.09,3.68,1.39,4.19,2.45,2.28,6.02-1.53,2.85-3.04-.35-4.89-.6-.68-.09-2.14.08-2.2.87-.09,1.17,5,3.13,6.14,4.09,5.22,4.4,1.4,10.94-4.97,11.03-1.75.02-6.94-1.16-8.22-2.27Z"/><path d="M17.85,78.71c-.43-.75.54-5.18,1.22-5.63,1.8-.86,3.35.72,5.26.77,1.48.03,2.68-.43,1.6-1.99-4.52-.99-10.78-1.86-8.68-8.31,1.16-3.57,10.27-6.81,12.19-4.07.41.59.15,4.74-.13,5.14-.68.98-6.12-1.33-5.47,1.17.31,1.18,5.02,1.18,6.59,1.93,1.46.7,3.16,3.3,3.28,4.91.5,7-11.18,9.4-15.87,6.1Z"/><path d="M48.2,60.25l-4.19,1.38c-.43,2.41,2.58,11.31,1.62,12.9-.48.8-6.01,2.52-6.55.15-.83-3.66-.82-8.11-1.44-11.86l-4.82.03c-.51-1.59-1.88-4.84-.33-6.08.67-.54,5.24-1.44,6.48-1.68,1.15-.23,7.42-1.28,8.07-1.16.29.05.56.08.73.36.16,1.97,1.52,4.03.43,5.96Z"/><path d="M96.45,48l.37,19.18c-.51,1.68-4.67,1.54-5.99,1.15-.99-.29-.98-1.59-1.05-2.49-.42-5.44.28-11.47.08-16.97.46-1.53,5.29-1.68,6.59-.87Z"/><path d="M79.05.11c1.79-.36,5.15.17,6.32,1.67,1.73,2.22,3.42,8.15,4.93,11.03.45.87,2.01,3.92,2.86,3.91.87-.45,1.64-1.61,2.24-2.39,2.97-3.87,5.22-8.88,8.07-12.51,1.49-1.9,3.64-1.72,5.98-1.41,2.53.33,3.42,1.22,4.38,3.43,3.77,8.62,7.1,28.05,5.4,37.16-.14.74-1.06,1.59-1.75,1.81-1.28.4-8.51-.8-9.84-1.55-2.36-1.32-1.31-4.01-1.53-6.28-.31-3.24-.47-7.59-1.07-10.63-.52-2.61-2.53,1.76-3.01,2.64-1.32,2.4-3.55,8.79-5.71,9.9-5.54,2.84-7.76-6.77-10.95-9.53-.55.34-.46.7-.54,1.23-.23,1.64-.53,3.35-.7,4.98-.23,2.19.12,7.21-1.06,8.87-.95,1.32-6.95,2.47-8.74,2.61-4.07.32-3.83-1.21-3.7-4.76.33-8.9,2.27-30.02,5.88-37.76.58-1.25,1.04-2.11,2.56-2.41Z"/><path d="M23.73,2.26c4.74-.42,11.89-.56,12.16,5.74.16,3.78-5.22,14.75-9.95,11.35-1.21-.87-.86-2.68-1.65-2.96-5.16-1.08-14.85,7.68-6.17,10.07,6.5,1.79,15.14.07,19.24,7.37,8.44,15.03-18.97,28.06-30.24,24.56-9.93-3.09-2.02-17.46,4.79-16.14,3.16.61.29,5.65,5.25,4.87,2.67-.42,7.77-2.83,7.35-6.09-.55-4.24-9.38-3.9-12.5-4.55C-1.14,33.75-3.34,21.68,4.66,11.92,9.19,6.38,16.66,2.89,23.73,2.26Z"/><path d="M63.8,4.71c3.64-.74,4.15,4.63,4.62,7.29,2.37,13.41,3.08,40.25-17.67,36.47-12.35-2.25-14.19-25.52-10.89-34.69.65-1.79,1.98-2.23,3.73-2.66,9.99-2.44,6.15,5.23,6.45,11.45.13,2.72.98,11.27,5.35,9.95,3.53-1.07,2.8-9.16,2.43-12.05-.44-3.46-2.74-8.37-.67-11.4.86-1.26,5.19-4.06,6.65-4.36Z"/><path d="M122.17,43.22c-.33-.3-.8-1.7-.81-2.2,1.03-5.65,1.8-11.38,2.45-17.09s.56-11.91,1.55-17.26c.72-3.86,8.35-2.36,10.01-.6,2.16,2.3,2.16,16.48,1.96,20.03-.15,2.74-2.17,16.91-3.52,18.47-1.44,1.65-10.33-.15-11.64-1.35Z"/></g></svg>