<?xml version="1.0" encoding="UTF-8"?><svg id="b" xmlns="http://www.w3.org/2000/svg" width="184.32" height="137.16" viewBox="0 0 184.32 137.16"><g id="c"><path d="M33.66,59.98l-11.7-6.57c-3.49-2.26-5.75-5.95-5.75-10.26v-21.7C7.13,28.37,1.31,36.59,0,45.48v1.77c0,7.6,3.9,14.37,10.47,18.06l11.5,6.77c3.69,2.05,5.95,5.95,5.95,10.06v32.84c0,3.28-2.67,5.75-5.75,5.75h-.07c5.52,3.16,11.83,5.94,18.76,8.27,2.06-3,3.27-6.63,3.27-10.52v-40.23c0-7.59-3.9-14.57-10.47-18.27ZM42.22,8.07c-6,2.07-11.53,4.5-16.48,7.22.12.11.22.23.32.35,1.23,1.03,1.85,2.47,1.85,4.11v27.91l16.22-9.44v-21.96c0-2.93-.69-5.71-1.91-8.19ZM16.21,114.78v-39.2L0,84.81v13.64c2.86,7,8.71,13.45,16.81,18.98-.38-.81-.59-1.71-.59-2.65Z" fill="#ec4a1e"/><path d="M76.15.84v114.14c0,3.28-2.67,5.95-5.75,5.95-3.28,0-5.95-2.67-5.95-5.95V2.43c-5.65.97-11.08,2.23-16.22,3.73v112.33c0,5.82,2.71,11.05,6.93,14.48,3.22,2.62,7.31,4.2,11.75,4.2h6.98c1.78,0,3.5-.25,5.13-.73,7.74-2.25,13.35-9.47,13.35-17.95V0c-5.52.03-10.94.32-16.22.84Z" fill="#ec4a1e"/><path d="M137.4,5.85l-1.52,13.28c-1.23,11.08-2.26,22.17-2.87,33.25-.62,11.29-1.03,22.37-1.03,33.66h-3.49c0-22.37-1.23-44.75-3.9-66.91l-1.9-16.63C114.38,1.04,105.57.18,96.47.02v137.13h16.42v-10.88c0-26.48-1.64-53.16-4.92-79.43l3.49-.62,10.36,88.28c6.05-1.02,11.84-2.36,17.3-3.96l9.9-84.32,3.49.62c-3.28,26.27-4.93,52.95-4.93,79.43v1.47c6.04-2.24,11.55-4.83,16.42-7.72V17.05c-7.49-4.54-16.51-8.34-26.61-11.2Z" fill="#ec4a1e"/><path d="M168.11,19.71v97.7c7.59-5.19,13.2-11.18,16.22-17.68v-62.08c-3.06-6.61-8.67-12.68-16.22-17.94Z" fill="#ec4a1e"/></g></svg>