<?xml version="1.0" encoding="UTF-8"?><svg id="b" xmlns="http://www.w3.org/2000/svg" width="911.02" height="747.45" viewBox="0 0 911.02 747.45"><g id="c"><path d="M908.33,579.91c.65.33.65.67,0,1v-1Z" fill="#0f110f"/><path d="M105.47,501.97c-1.58.3-.83-.71-1-2,.26.38,1.51.11,1,2Z" fill="#83300e"/><path d="M104.47,499.97c-5.7-8.47-10.23-21.36-13.26-31.21-7.81-25.44-11.85-55.6-10.77-82.24.31-7.69,3.46-17.04,1.04-24.44.64-1.14,1.83-1.71,2-2,1.65,1.04,1,3.79,1.02,5.48.36,34.56,5.06,69.78,12.44,103.47,2.27,10.38,6.16,20.32,7.53,30.94Z" fill="#83300e"/><path d="M143.43,447.01c-2.59-2.18-4.53-7.42-5.76-10.71-15.86-42.33-19.3-87.33-14.2-132.17,1.68,0,1.9,3.32,1.99,4.49,1.45,18.17.94,36.19,3.12,54.83,3.29,28.15,9.97,55.7,14.85,83.56Z" fill="#83300e"/><path d="M144.43,450.01c-.35.68-1.7-.58-.98-1.99.35-.68,1.7.58.98,1.99Z" fill="#83300e"/><path d="M730.97,186.22c.33.43,1.55,2.31,2,3,.05,7.11,7.4,21.98,9.71,29.76,7.92,26.68,12.49,54.37,14.27,82.15l-1.96.62c-14.13-8.93-29.35-17.65-45.01-23.6.12-8.87,1.41-17.55.99-26.47-1.52-31.94-14.58-62.48-28.99-90.43-.82.04-1.94-.43-1.99.51-.2,3.36,4.98,12.49,6.46,16.52,8.41,22.87,17.04,54.42,20.43,78.49.86,6.13,2.05,14.53.1,20.38-37.22-13.62-80.48-21.16-119.9-22.98.74-46.62-15.94-92.5-41.48-130.88,18.45,41.85,31.28,86.06,40.48,130.88-21.97-.94-44.12.09-65.95,2,.57-15.12-2.25-30.27-5.46-45-4.29-19.65-11-39.32-19.35-57.59-1.35-2.95-11.37-23.89-12.68-24.31-2.11-.67-1.46.78-1.06,2.07,1.91,6.12,5.6,12.86,7.83,19.15,12.22,34.43,21.14,70.19,29.71,105.69-47.91,4.4-95.2,15.23-139.89,32.97-5.57-37.09-14.16-73.87-24.48-109.91-2.01-7.02-4.13-14.63-6.48-21.51-.38-1.12-.57-3.62-2-3.47,5.48,36.25,11.96,72.74,22.5,107.89,2.72,9.06,7.9,18.18,8.47,28-96.76,39.18-210.46,127.87-271.78,211.83-7.92,10.85-18.22,28.27-25.15,40.3-.81,1.41-6.59,14.49-7.81,13.66-6.98-13.32-12.83-27.44-16.32-42.14-13.15-55.31-1.78-103.16,25.3-151.7,2.42,7.4-.73,16.75-1.04,24.44-1.08,26.64,2.95,56.8,10.77,82.24,3.03,9.85,7.56,22.74,13.26,31.21.17,1.29-.58,2.29,1,2,.51-1.89-.74-1.62-1-2-1.37-10.62-5.26-20.56-7.53-30.94-7.38-33.69-12.08-68.91-12.44-103.47-.02-1.69.64-4.44-1.02-5.48,24.7-43.12,52.24-73.92,88.93-106.91-3.56,45.85-.7,91.31,15.97,134.41l5,11.47c-4.86-30.9-11.98-61.48-15.83-92.56-1.18-9.48-2.58-19.33-3.13-28.85-.48-8.37,1.14-17.41-1.01-25.47,120.02-106.92,290.27-163.26,449.86-121.62,29.65,7.74,89.29,31.31,107.7,55.67ZM543.61,120.3c-.99.7.54,1.37,1.02,1.96.99-.66-.47-1.32-1.02-1.96ZM480.67,127.27v1c.65-.33.65-.67,0-1ZM449.18,263.16c-1.23-17.51-4.2-35.11-8.27-52.16-4.87-20.4-12.68-43.56-21.21-62.72-1.89-4.24-4.23-9.81-7.47-13.01l36.95,127.89ZM614.07,135.27c-.33,1.46.42,2.09,1.5,2.97.43-.99-1.03-3.94-1.5-2.97ZM616.56,139.26v1c.65-.33.65-.67,0-1ZM619.04,141.26c-2.29-.35-2.34.16-1.8,2.3,2.39,9.36,9.24,21.46,12.51,31.46,6.16,18.81,9.95,38.51,15.41,57.53l5.85,27.6c2.12-42.39-11.38-82.53-31.98-118.9ZM677.51,155.25v1c.65-.33.65-.67,0-1ZM678.51,157.25v1c.65-.33.65-.67,0-1ZM679.51,159.24v1c.65-.33.65-.67,0-1ZM309.3,319.11l-25.96-138.88c-1.1,44.58,5.73,89.26,21.49,130.87l4.47,8ZM247.35,358.09c-4.99-27.23-11.52-54.31-15.7-81.71-2.49-16.35-4.72-33.2-5.28-49.67l-1.98-9.5c-2.77,29.66-.92,59.95,5.29,89.11,2.84,13.34,7.15,29.13,12.2,41.76,1.26,3.15,2.9,8.01,5.47,10.01ZM143.43,447.01c-4.88-27.86-11.56-55.41-14.85-83.56-2.18-18.64-1.67-36.66-3.12-54.83-.09-1.16-.31-4.48-1.99-4.49-5.1,44.84-1.66,89.84,14.2,132.17,1.23,3.29,3.18,8.54,5.76,10.71ZM144.43,450.01c.72-1.4-.63-2.67-.98-1.99-.72,1.4.63,2.67.98,1.99Z" fill="#cb491b"/><path d="M732.97,187.22c25.19,17.88,49.97,65.07,56.46,94.91,4.22,19.39,5.54,38.47,1.48,57.96-2.6.46-1.55-.36-2.09-1.42-5.6-11.13-12.68-19.66-21.88-28.07-3.22-2.94-9.04-4.64-9-9.48.04-6.31,2.97-15.66,3-22.48.1-26.79-13.38-66.99-27.98-89.43,0-.67,0-1.33,0-2Z" fill="#cb491b"/><path d="M645.04,119.27c-15.35-3.43-30.43-7.67-45.94-10.5-98.68-18.05-204.57-2.88-295.46,38.32-12.03,5.45-23.43,12.21-35.66,17.25-17.15-21.09-37.5-39.45-58.59-56.57,10.95-14.77,26.71-27.5,41.65-38.25C316.58,22.33,402.88,5.22,481.99,22.04c62.95,13.38,122.54,47.17,163.05,97.23Z" fill="#cb471a"/><path d="M97.47,193.23l39.97,43.94c-16.09-.01-33.5,2.36-47.96,9.51l37.96,15.47c-10.07,3.1-20.57,9.08-28.44,16.03-1.72,1.52-8.96,7.28-3.14,6.86,6.16-.44,13.06-2.35,19.21-2.79,1.16-.08,3.2-.63,2.38,1.38-.42,1.03-8.34,9-9.96,11.03-11.89,14.89-23.28,30.51-33.01,46.91-.02,1.22-1.17.03-1.47-.49-4.17-7.51-9.9-28.84-12.77-38.19-17.57-57.13-30.86-122.39-34.7-182.13-.86-13.4-3.1-55.1,3.98-64.94,6.13-8.51,18.19,2.07,24,6.99,31.74,26.88,66.42,72.76,88.94,107.91,9.82,15.33,19.84,31.59,26.47,48.46-22.75-11.12-46.53-20.89-71.45-25.95Z" fill="#f9eee0"/><path d="M774.92,57.33c11.07,38.49,8.28,82.83,1.72,122.11-1.22,7.34-2.61,16.28-4.68,23.32-1.2,4.1-4.06-2.48-5.63-4.44-12.99-16.13-27.12-29.95-44.43-41.51l-.94-2.97c14.32-29.48,28.18-63.9,47.76-90.24.91-1.22,4.69-7.41,6.2-6.27Z" fill="#f9eee0"/><path d="M173.41,252.17c2.15,8.06.53,17.1,1.01,25.47.55,9.51,1.95,19.37,3.13,28.85,3.86,31.09,10.97,61.67,15.83,92.56l-5-11.47c-16.67-43.1-19.53-88.56-15.97-134.41.35-.31.65-.69,1-1Z" fill="#83300e"/><path d="M379.25,289.14c-.57.22-1.22.69-2,1-.57-9.82-5.75-18.94-8.47-28-10.54-35.14-17.02-71.63-22.5-107.89,1.44-.14,1.62,2.36,2,3.47,2.35,6.87,4.46,14.49,6.48,21.51,10.33,36.04,18.92,72.81,24.48,109.91Z" fill="#83300e"/><path d="M587.08,254.17c-.33-.02-.67.01-1,0-9.2-44.82-22.03-89.03-40.48-130.88,25.54,38.38,42.21,84.25,41.48,130.88Z" fill="#83300e"/><path d="M519.14,256.17c-8.56-35.5-17.48-71.25-29.71-105.69-2.23-6.29-5.93-13.04-7.83-19.15-.4-1.28-1.05-2.74,1.06-2.07,1.31.42,11.33,21.36,12.68,24.31,8.35,18.27,15.06,37.94,19.35,57.59,3.21,14.73,6.02,29.88,5.46,45-.33.03-.67-.03-1,0Z" fill="#83300e"/><path d="M706.99,277.15c1.95-5.84.76-14.25-.1-20.38-3.39-24.07-12.01-55.63-20.43-78.49-1.48-4.03-6.67-13.16-6.46-16.52.06-.94,1.17-.47,1.99-.51,14.4,27.95,27.47,58.49,28.99,90.43.42,8.92-.87,17.6-.99,26.47-.84-.32-1.94-.61-3-1Z" fill="#83300e"/><path d="M732.97,187.22c0,.67,0,1.33,0,2-.45-.69-1.67-2.56-2-3,.92-.06,1.36.55,2,1Z" fill="#83300e"/><path d="M757.95,301.13h-1c-1.78-27.78-6.35-55.47-14.27-82.15-2.31-7.78-9.66-22.64-9.71-29.76,14.59,22.44,28.08,62.64,27.98,89.43-.03,6.82-2.95,16.17-3,22.48Z" fill="#83300e"/><path d="M247.35,358.09c-2.57-2-4.21-6.86-5.47-10.01-5.05-12.63-9.35-28.42-12.2-41.76-6.21-29.16-8.06-59.45-5.29-89.11l1.98,9.5c.56,16.47,2.79,33.33,5.28,49.67,4.18,27.4,10.71,54.48,15.7,81.71Z" fill="#83300e"/><path d="M309.3,319.11l-4.47-8c-15.76-41.61-22.59-86.29-21.49-130.87l25.96,138.88Z" fill="#83300e"/><path d="M449.18,263.16l-36.95-127.89c3.23,3.2,5.58,8.77,7.47,13.01,8.53,19.16,16.34,42.33,21.21,62.72,4.07,17.05,7.05,34.65,8.27,52.16Z" fill="#83300e"/><path d="M619.04,141.26c20.6,36.37,34.09,76.51,31.98,118.9l-5.85-27.6c-5.46-19.02-9.24-38.73-15.41-57.53-3.28-10-10.12-22.1-12.51-31.46-.55-2.13-.49-2.64,1.8-2.3Z" fill="#83300e"/><path d="M614.07,135.27c.47-.97,1.93,1.98,1.5,2.97-1.08-.89-1.83-1.51-1.5-2.97Z" fill="#83300e"/><path d="M543.61,120.3c.55.64,2.01,1.3,1.02,1.96-.48-.59-2.01-1.26-1.02-1.96Z" fill="#83300e"/><path d="M678.51,157.25c.65.33.65.67,0,1v-1Z" fill="#83300e"/><path d="M679.51,159.24c.65.33.65.67,0,1v-1Z" fill="#83300e"/><path d="M677.51,155.25c.65.33.65.67,0,1v-1Z" fill="#83300e"/><path d="M616.56,139.26c.65.33.65.67,0,1v-1Z" fill="#83300e"/><path d="M480.67,127.27c.65.33.65.67,0,1v-1Z" fill="#83300e"/><path d="M648.05,98.29l1.45-.02c24.61-22.99,52.05-46.54,81.16-63.74,34.79-20.56,55.94-28.71,66.96,18.59,9.08,38.99,6.27,89.84,0,129.31-1.61,10.15-10.37,41.1-9.69,48.16.29,2.98,5.01,10.09,6.45,13.61,14.31,35.08,23.48,76.76,9.55,113.4-1.13,2.96-4.86,7.99-5,10.03-.2,2.96,5.58,19.27,6.66,24.24,7.58,34.71,9.31,69.87,6.3,105.11,26.56-1.84,53.18-2.06,78.94,5.49,2.65.77,19.57,6.71,19.99,8,.79,2.4-1.14,1.07-2.02,1.02-10.06-.65-20.28-3.08-30.42-3.57-22.65-1.09-45.39.76-67.84,3.18-.9.17-1.2.71-1.47,1.52-1.92,5.69-1.32,14.82-4.18,20.8,31.91,5.87,72.52,17.71,96.95,39.97.9.82,6.08,5.47,4.98,6.5-33.79-15.08-68.72-28.81-105.82-32.89l-8.01,21.3c11.02,5.73,22.55,10.32,33.21,16.78,14.38,8.71,30.03,21.31,40.07,34.87,3.17,4.27,7.16,9.67,8.09,14.88-26.03-22.22-55.09-40.84-86.84-53.86-50.79,92.62-157.78,145.43-259.18,161.5-135.46,21.47-341.07-26.91-426.69-141.28-2.01-2.69-10.05-16.11-11.18-16.8-2.57-1.56-5.52.4-8.23.24-20-1.21-32.93-35.46-38-51.94-16.22-52.71-11.83-108.18,11.22-158.04C22.42,283.74,2.98,186.86.54,89.81c-.27-10.95-1.08-21.86.02-32.97C5.53,6.61,31.14,8.36,71.48,23.87c44.36,17.06,85.85,45.18,124.42,72.46,2.05.01,18.24-17.61,21.47-20.53,114.92-103.86,300.97-99.67,414.21,4.48,5.66,5.2,12.44,11.72,16.48,18.01ZM645.04,119.27c-40.52-50.06-100.1-83.85-163.05-97.23-79.1-16.82-165.4.29-230.95,47.46-14.94,10.75-30.7,23.48-41.65,38.25,21.09,17.12,41.44,35.48,58.59,56.57,12.22-5.04,23.62-11.79,35.66-17.25,90.9-41.19,196.79-56.37,295.46-38.32,15.51,2.84,30.59,7.07,45.94,10.5ZM97.47,193.23c24.92,5.06,48.7,14.82,71.45,25.95-6.63-16.87-16.65-33.13-26.47-48.46-22.52-35.14-57.2-81.03-88.94-107.91-5.8-4.91-17.87-15.5-24-6.99-7.09,9.84-4.84,51.54-3.98,64.94,3.84,59.74,17.13,125,34.7,182.13,2.87,9.34,8.6,30.67,12.77,38.19.29.52,1.45,1.71,1.47.49,9.74-16.41,21.12-32.02,33.01-46.91,1.62-2.03,9.54-10,9.96-11.03.83-2.01-1.21-1.47-2.38-1.38-6.16.44-13.06,2.35-19.21,2.79-5.82.42,1.42-5.34,3.14-6.86,7.87-6.95,18.37-12.93,28.44-16.03l-37.96-15.47c14.46-7.15,31.86-9.52,47.96-9.51l-39.97-43.94ZM774.92,57.33c-1.51-1.14-5.3,5.05-6.2,6.27-19.57,26.34-33.44,60.76-47.76,90.24l.94,2.97c17.3,11.56,31.44,25.38,44.43,41.51,1.57,1.95,4.43,8.54,5.63,4.44,2.06-7.04,3.45-15.98,4.68-23.32,6.56-39.28,9.35-83.62-1.72-122.11ZM173.41,252.17c-.35.31-.65.69-1,1-36.69,32.99-64.23,63.79-88.93,106.91-.16.29-1.36.86-2,2-27.08,48.54-38.46,96.39-25.3,151.7,3.5,14.7,9.35,28.82,16.32,42.14,1.22.84,7-12.24,7.81-13.66,6.93-12.03,17.23-29.45,25.15-40.3,61.32-83.96,175.02-172.65,271.78-211.83.78-.31,1.43-.77,2-1,44.69-17.75,91.98-28.57,139.89-32.97.33-.03.67.03,1,0,21.82-1.91,43.98-2.94,65.95-2,.33.01.67-.02,1,0,39.43,1.83,82.68,9.37,119.9,22.98,1.06.39,2.15.68,3,1,15.66,5.95,30.88,14.67,45.01,23.6l1.96-.62h1c-.03,4.84,5.78,6.54,9,9.48,9.19,8.4,16.28,16.94,21.88,28.07.54,1.07-.52,1.88,2.09,1.42,4.06-19.49,2.73-38.57-1.48-57.96-6.49-29.84-31.27-77.03-56.46-94.91-.64-.45-1.07-1.06-2-1-18.41-24.36-78.05-47.93-107.7-55.67-159.59-41.64-329.84,14.7-449.86,121.62ZM366.26,549.93c-51.16,2.84-108.27,22.5-151.01,50.33l-19.85,14.61c10.93-4.2,20.95-10.79,31.61-15.84,51.99-24.63,108.97-42.1,167.22-40.1l-32.99,15.46c-44.91,24.85-85.77,66.34-95.78,118.3,99.71,38.85,210.75,50.03,314.39,19.38,66.07-19.54,140.22-61.52,178.51-120.26,1.79-2.74,11.83-18.93,10.51-20.81l-24.9-11.07c6.76-2.21,24.19,4.54,29.3,2.85,1.86-.62,9.15-18.54,7.09-19.95-2.64-1.81-20.95-2.28-25.78-3.02-2.59-.4-7.42-.43-8.62-2.86l38.97-3.01c-.11-1.17.54-2.16-.62-3.07-2.17-1.71-24.07-10.52-26.95-10.84-3.07-.34-4.6.39-7.2.64-1.1.11-3.4,1.17-3.19-.71,14.23-4.37,28.63-8.25,43.3-10.95l1.67-5.53c.21-3.72-45.57,11.16-48.97,10.47l1.99-1.98c-7.62-3.07-15.38-6.6-21.97-11.51,34.31.37,58.86-23.96,63.83-57.07,1.49-9.92.99-25.95-.9-35.83-.23-1.17-.45-1.8-1.48-2.5-3.14,3.22-7.78,4.36-12.12,4.85-6.13.7-43.56,1.27-45.23,3.23,1.19,18.61-6.4,53.8-29.54,54.89-22.31,1.05-30.12-23.79-31.03-42.02-1.03.77-6.15,1.87-6.37,2.12-1.86,2.1,2.33,20.15,3.38,23.87,1.47,5.16,3.69,9.97,5.49,14.98-20.17-6.31-39.67-6.74-59.96-.51-3.68,1.13-12.56,5.99-15.22,5.33l-28.31-16.82c2.9-45.06-8.37-94.6-46.67-122.12-55.82-40.09-141.06-11.97-191.88,24.39-26.86,19.21-37.21,30.78-21.84,64.43,24.67,54.03,90.16,72.26,144.57,74.27,1.21.04,3.72-.75,3.48.99l-54.42,20.83c-78.56-16.67-160.41-13.57-234.33,19.17-.18,1.87,3.24.96,4.25.75,16.26-3.36,32.75-9.23,49.5-12.46,48.77-9.41,98.15-10.52,147.47-4.17,11.6,1.49,23.04,4.17,34.6,5.88-2.15,4.6-6.46,2.06-9.32,2.36-5.25.55-13.68.3-17.68,1.02-5.19.93-20.63,9.12-25.98,12.08-1.26.69-13.74,7.95-12.97,8.5,5.27-.39,10.59-.83,15.97-1.3,5.4-.47,10.73-.97,16.01-1.5,2.64-.11,5.5-.11,8.55.04,4.2.21,8.03.68,11.45,1.27-.47.16-1.17.39-2.04.58-3.51.77-6.32.22-7.75,0-2.3-.36-5.67-.62-10.2-.08ZM784.92,403.04c-4.98-24.38-11.65-51.3-32.64-66.77-40.91-30.15-76.89,1.18-87.97,42.58-3.53,13.19-5.14,27.53-5.27,41.18,36.52-23.1,84.5-29.66,125.89-16.99Z" fill="#0f110f"/><path d="M350.25,549.63c-6.77.65-12.32,1.05-15.97,1.3-.77-.56,11.71-7.81,12.97-8.5,5.35-2.96,20.78-11.14,25.98-12.08,4-.72,12.43-.46,17.68-1.02,2.86-.3,7.17,2.23,9.32-2.36-11.55-1.71-23-4.39-34.6-5.88-49.31-6.35-98.7-5.24-147.47,4.17-16.74,3.23-33.24,9.09-49.5,12.46-1.01.21-4.43,1.12-4.25-.75,73.92-32.74,155.77-35.83,234.33-19.17l54.42-20.83c.24-1.74-2.27-.94-3.48-.99-54.41-2.01-119.89-20.24-144.57-74.27-15.37-33.66-5.02-45.22,21.84-64.43,50.82-36.35,136.06-64.48,191.88-24.39,38.31,27.51,49.57,77.06,46.67,122.12l28.31,16.82c2.66.66,11.54-4.2,15.22-5.33,20.29-6.24,39.79-5.8,59.96.51-1.8-5.01-4.02-9.83-5.49-14.98-1.06-3.71-5.25-21.77-3.38-23.87.22-.25,5.34-1.35,6.37-2.12.91,18.23,8.72,43.07,31.03,42.02,23.14-1.09,30.73-36.28,29.54-54.89,1.67-1.96,39.09-2.53,45.23-3.23,4.33-.49,8.98-1.63,12.12-4.85,1.03.7,1.25,1.33,1.48,2.5,1.89,9.88,2.39,25.91.9,35.83-4.96,33.11-29.52,57.44-63.83,57.07,6.6,4.91,14.35,8.44,21.97,11.51l-1.99,1.98c3.4.69,49.18-14.19,48.97-10.47l-1.67,5.53c-14.67,2.71-29.07,6.58-43.3,10.95-.21,1.87,2.09.81,3.19.71,2.59-.25,4.13-.98,7.2-.64,2.88.32,24.78,9.13,26.95,10.84,1.16.91.52,1.89.62,3.07l-38.97,3.01c1.2,2.43,6.03,2.46,8.62,2.86,4.82.74,23.14,1.21,25.78,3.02,2.06,1.41-5.23,19.33-7.09,19.95-5.11,1.69-22.54-5.05-29.3-2.85l24.9,11.07c1.32,1.88-8.72,18.07-10.51,20.81-38.29,58.74-112.43,100.72-178.51,120.26-103.64,30.65-214.69,19.47-314.39-19.38,10.01-51.96,50.87-93.44,95.78-118.3l32.99-15.46c-58.25-2-115.23,15.47-167.22,40.1-10.66,5.05-20.68,11.64-31.61,15.84l19.85-14.61c42.74-27.83,99.85-47.49,151.01-50.33,2.12-.12,19.99.5,19.99-.5-8.43-1.43-15.26-1.51-19.99-1.31-4.59.2-7.18.65-16.01,1.5ZM463.19,404.05c13.42,1.83,26.77,4.47,39.97,7.48,8.04,1.83,32.62,10.09,38.47,9.59,10.11-.87-5.81-10.87-8.58-12.5-9.74-5.7-22.09-9.78-32.9-13.07-58.18-17.7-121.36-19.38-181.85-21.48-4.04,3.81,16.41,10.92,18.02,11.45,10.62,3.5,21.83,5.47,32.94,6.54-3.52,28.55,13.68,59.16,42.92,65.48,32.48,7.03,52.45-24.43,51-53.49ZM637.03,561.93c9.61,23.73,39.02,28.87,47.95,1.48-8.92,2.92-13.57,10.07-23.95,5.99-6.26-2.46-16.51-15.6-16.96-22.08-.28-4.05,2.25-10.58,2.84-14.99.63-4.79.32-13.38,1.57-17.42s11.51-9.53,15.07-12.91c5.76-5.48,17.88-20.06,7.17-26.21-14.07-8.09-52.47-7.34-66.35,1-11.45,6.88,2.98,18.21,9.37,23.02,4.15,3.13,19.86,11.41,21.07,14.89,1.45,4.18.62,12-.03,16.48-5.83,40.42-54.74,54.51-90.03,50.6-16.76-1.86-33.99-8.84-48.11-17.85-1.48-.27-1.78,0-1.5,1.5,1.72,9.16,22.33,21.31,30.71,24.25,33.57,11.77,75.16,5.42,101.69-18.77,1.42-1.29,7.45-10.48,9.48-8.98Z" fill="#f9eee0"/><path d="M784.92,403.04c-41.39-12.66-89.37-6.1-125.89,16.99.13-13.66,1.74-27.99,5.27-41.18,11.09-41.4,47.07-72.73,87.97-42.58,20.99,15.47,27.66,42.39,32.64,66.77Z" fill="#f9eee0"/><path d="M366.26,548.93c6.66.17,13.33.33,19.99.5,0,1-17.88.38-19.99.5v-1Z"/><path d="M463.19,404.05c1.45,29.07-18.51,60.52-51,53.49-29.24-6.32-46.45-36.93-42.92-65.48-11.11-1.06-22.32-3.04-32.94-6.54-1.61-.53-22.06-7.64-18.02-11.45,60.49,2.1,123.66,3.78,181.85,21.48,10.81,3.29,23.15,7.37,32.9,13.07,2.77,1.62,18.69,11.62,8.58,12.5-5.85.5-30.43-7.76-38.47-9.59-13.2-3.01-26.55-5.65-39.97-7.48Z" fill="#0f110f"/><path d="M637.03,561.93c-2.04-1.5-8.07,7.69-9.48,8.98-26.53,24.19-68.12,30.54-101.69,18.77-8.39-2.94-28.99-15.08-30.71-24.25-.28-1.49.02-1.77,1.5-1.5,14.12,9.01,31.35,15.99,48.11,17.85,35.29,3.91,84.2-10.18,90.03-50.6.64-4.47,1.48-12.3.03-16.48-1.21-3.49-16.92-11.77-21.07-14.89-6.38-4.81-20.82-16.14-9.37-23.02,13.88-8.34,52.28-9.08,66.35-1,10.71,6.15-1.41,20.73-7.17,26.21-3.56,3.38-13.83,8.88-15.07,12.91s-.93,12.63-1.57,17.42c-.58,4.41-3.11,10.94-2.84,14.99.44,6.49,10.7,19.62,16.96,22.08,10.38,4.08,15.03-3.07,23.95-5.99-8.94,27.38-38.35,22.24-47.95-1.48Z" fill="#0f110f"/></g></svg>