<?xml version="1.0" encoding="UTF-8"?><svg id="b" xmlns="http://www.w3.org/2000/svg" width="198.93" height="198.93" viewBox="0 0 198.93 198.93"><g id="c"><circle cx="99.46" cy="99.46" r="99.46" fill="#f9ece8"/><path d="M109.87,30.35c11.58-1.04,29.07-1.37,29.72,14.04.39,9.23-12.76,36.07-24.32,27.75-2.96-2.13-2.1-6.56-4.03-7.24-12.63-2.64-36.3,18.78-15.08,24.62,15.88,4.38,37.01.18,47.03,18.02,20.64,36.74-46.39,68.61-73.92,60.05-24.28-7.55-4.95-42.69,11.7-39.46,7.71,1.5.72,13.82,12.83,11.92,6.52-1.02,19.01-6.92,17.97-14.89-1.34-10.36-22.92-9.53-30.57-11.12-32.12-6.69-37.5-36.18-17.96-60.05,11.08-13.54,29.35-22.07,46.64-23.62Z"/></g></svg>