<?xml version="1.0" encoding="UTF-8"?><svg id="b" xmlns="http://www.w3.org/2000/svg" width="1233.37" height="1186.76" viewBox="0 0 1233.37 1186.76"><g id="c"><path d="M0,566.2v6h5.44c-.01-2-.01-4,0-6H0ZM13.71,756.66c-1.51-.13-3.02-.26-4.53-.4l-.55,5.98c1.88.17,3.75.34,5.63.51-.19-2.03-.38-4.06-.55-6.09ZM39.23,946.93c-1.02-.19-2.03-.39-3.05-.58l-1.12,5.9c1.77.34,3.55.67,5.32,1.01-.38-2.11-.77-4.22-1.15-6.33ZM81,0c-.02,2.49-.03,4.97-.05,7.46.54-2.01,1.09-4.01,1.65-6.02,1.57-.48,3.15-.96,4.72-1.44h-6.32ZM979.14,1182.6c-.17,1.05-.35,2.1-.53,3.15l5.91,1.01c.31-1.81.62-3.62.92-5.43-2.1.43-4.2.86-6.3,1.27ZM1154.68,0c1.57.48,3.15.96,4.72,1.44.54,1.94,1.07,3.89,1.6,5.83V0h-6.32ZM1227.74,375.67c.2,2.03.38,4.05.55,6.07,1.51.13,3.02.26,4.53.4l.55-5.97c-1.88-.17-3.75-.34-5.63-.5Z" fill="#303030"/><path d="M39.23,946.93c.38,2.11.77,4.22,1.15,6.33-1.77-.34-3.55-.67-5.32-1.01l1.12-5.9c1.02.19,2.03.39,3.05.58Z" fill="#303030"/><path d="M1161,954.54v6.08c-48.92,8.54-98.08,15.93-147.39,22.15-2.05.26-4.09.52-6.13.77-62.71,7.79-125.66,13.69-188.66,17.69-2.01.13-4.02.25-6.03.37-62.94,3.88-125.93,5.86-188.79,5.92h-6c-62.86-.06-125.85-2.04-188.79-5.92-2.01-.12-4.02-.24-6.03-.37-63-4-125.95-9.9-188.66-17.69-2.04-.25-4.08-.51-6.13-.77-51.55-6.5-102.93-14.28-154.05-23.32.01-2.03.03-4.05.04-6.08,51.03,9.05,102.14,16.84,153.32,23.35,2.05.25,4.1.51,6.14.77,62.93,7.88,125.95,13.83,189.02,17.85,2.01.13,4.02.26,6.03.38,63.01,3.91,126.06,5.89,189.11,5.95h6c63.05-.06,126.1-2.04,189.11-5.95,2.01-.12,4.02-.25,6.03-.38,63.07-4.02,126.09-9.97,189.02-17.85,2.04-.26,4.09-.52,6.14-.77,48.96-6.23,97.87-13.63,146.7-22.18Z" fill="#303030"/><path d="M13.71,756.66c.17,2.03.36,4.06.55,6.09-1.88-.17-3.75-.34-5.63-.51l.55-5.98c1.51.14,3.02.27,4.53.4Z" fill="#303030"/><path d="M1161,762.4v6.02c-43.22,3.46-86.5,6.5-129.82,9.12-2.01.13-4.02.25-6.03.36-65.76,3.94-131.63,6.9-197.54,8.9-2.01.07-4.01.13-6.01.18-65.84,1.95-131.72,2.94-197.6,2.97h-6c-65.88-.03-131.76-1.02-197.6-2.97-2-.05-4-.11-6.01-.18-65.91-2-131.78-4.96-197.54-8.9-2.01-.11-4.02-.23-6.03-.36-45.1-2.72-90.16-5.91-135.15-9.55.02-2.01.03-4.01.04-6.02,44.86,3.64,89.79,6.82,134.77,9.53,2.01.14,4.02.26,6.03.37,65.82,3.95,131.75,6.92,197.72,8.93,2.01.06,4.01.12,6.01.18,65.89,1.95,131.82,2.94,197.76,2.97h6c65.94-.03,131.87-1.02,197.76-2.97,2-.06,4-.12,6.01-.18,65.97-2.01,131.9-4.98,197.72-8.93,2.01-.11,4.02-.23,6.03-.37,43.21-2.61,86.37-5.65,129.48-9.1Z" fill="#303030"/><path d="M0,566.2h5.44c-.01,2-.01,4,0,6H0v-6Z" fill="#303030"/><path d="M1161,566.2v6H77.03c.02-2,.03-4,.04-6h1083.93Z" fill="#303030"/><path d="M1031.18,360.87c43.32,2.62,86.6,5.66,129.82,9.12v6.01c-43.11-3.45-86.27-6.49-129.48-9.1-2.01-.13-4.02-.26-6.03-.37-65.82-3.94-131.75-6.91-197.72-8.92-2.01-.06-4.01-.12-6.01-.18-65.89-1.95-131.82-2.94-197.76-2.97h-6c-65.94.03-131.87,1.02-197.76,2.97-2,.06-4,.12-6.01.18-65.97,2.01-131.9,4.98-197.72,8.92-2.01.11-4.02.24-6.03.37-44.08,2.66-88.12,5.77-132.09,9.31.02-2,.03-4.01.04-6.01,44.07-3.55,88.21-6.66,132.39-9.33,2.01-.13,4.02-.25,6.03-.36,65.76-3.94,131.63-6.9,197.54-8.9,2.01-.07,4.01-.13,6.01-.18,65.84-1.95,131.72-2.94,197.6-2.97h6c65.88.03,131.76,1.02,197.6,2.97,2,.05,4,.11,6.01.18,65.91,2,131.78,4.96,197.54,8.9,2.01.11,4.02.23,6.03.36Z" fill="#303030"/><path d="M1233.37,376.17l-.55,5.97c-1.51-.14-3.02-.27-4.53-.4-.17-2.02-.35-4.04-.55-6.07,1.88.16,3.75.33,5.63.5Z" fill="#303030"/><path d="M1161,177.78v6.08c-48.83-8.55-97.74-15.95-146.7-22.18-2.05-.25-4.1-.51-6.14-.77-62.93-7.88-125.95-13.83-189.02-17.85-2.01-.13-4.02-.26-6.03-.38-63.01-3.91-126.06-5.89-189.11-5.95h-6c-63.05.06-126.1,2.04-189.11,5.95-2.01.12-4.02.25-6.03.38-63.07,4.02-126.09,9.97-189.02,17.85-2.04.26-4.09.52-6.14.77-49.39,6.29-98.73,13.75-147.98,22.41.02-2.03.03-4.06.04-6.09,49.33-8.64,98.91-16.1,148.64-22.37,2.04-.26,4.08-.51,6.12-.76,62.71-7.79,125.66-13.69,188.66-17.69,2.01-.13,4.02-.25,6.03-.37,62.94-3.88,125.93-5.86,188.79-5.92h6c62.86.06,125.85,2.04,188.79,5.92,2.01.12,4.02.24,6.03.37,63,4,125.95,9.9,188.66,17.69,2.04.25,4.08.5,6.12.76,49.31,6.22,98.48,13.61,147.4,22.15Z" fill="#303030"/><path d="M979.14,1182.6c2.1-.41,4.2-.84,6.3-1.27-.3,1.81-.61,3.62-.92,5.43l-5.91-1.01c.18-1.05.36-2.1.53-3.15Z" fill="#303030"/><path d="M1037.15,566.2c0,2,0,4,0,6-.06,66.45-1.93,132.9-5.63,199.3-.11,2.01-.22,4.03-.34,6.04-3.8,66.46-9.43,132.87-16.88,199.18-.23,2.02-.46,4.03-.69,6.05-4.08,35.73-8.68,71.44-13.82,107.11-2.15,1.01-4.32,2.02-6.5,3.02,5.29-36.42,10.02-72.87,14.19-109.36.24-2.02.46-4.03.68-6.05,7.51-66.45,13.17-132.99,16.99-199.59.12-2.01.24-4.02.34-6.03,3.72-66.52,5.6-133.1,5.66-199.67,0-2,0-4,0-6-.06-66.57-1.94-133.15-5.66-199.67-.11-2.01-.22-4.02-.34-6.02-3.82-66.6-9.48-133.15-16.99-199.6-.22-2.01-.44-4.03-.68-6.04-5.91-51.69-12.94-103.32-21.08-154.87h6.07c8.17,51.8,15.21,103.68,21.13,155.63.24,2.02.47,4.03.7,6.05,7.45,66.32,13.08,132.73,16.88,199.19.12,2.01.23,4.02.34,6.03,3.7,66.4,5.57,132.85,5.63,199.3Z" fill="#303030"/><path d="M830.59,566.2v6c-.03,69.55-.97,139.1-2.82,208.6-.05,2-.11,4-.16,6-1.91,69.58-4.73,139.11-8.47,208.54-.1,1.96-.21,3.93-.32,5.89-2.8,51.34-6.1,102.62-9.9,153.82-2.03.45-4.07.89-6.11,1.33,3.83-51.52,7.16-103.12,9.98-154.78.11-1.96.22-3.92.32-5.88,3.75-69.49,6.58-139.09,8.49-208.74.06-2,.11-4,.16-6,1.86-69.56,2.8-139.17,2.83-208.78v-6c-.03-69.61-.97-139.21-2.83-208.77-.05-2-.1-4-.16-6-1.91-69.65-4.74-139.25-8.49-208.75-.1-1.96-.21-3.91-.32-5.87-2.49-45.65-5.38-91.26-8.67-136.81h6.02c3.29,45.67,6.19,91.4,8.68,137.18.11,1.96.22,3.92.32,5.88,3.74,69.43,6.56,138.96,8.47,208.55.05,2,.11,4,.16,6,1.85,69.5,2.79,139.04,2.82,208.59Z" fill="#303030"/><path d="M618,0h6v1175.76c-2,.02-4,.02-6,.02V0Z" fill="#303030"/><path d="M429.21,1001.6c2.84,52.02,6.19,103.98,10.07,155.86-2.05-.42-4.09-.85-6.12-1.29-3.83-51.57-7.16-103.23-9.98-154.94-.11-1.96-.22-3.93-.32-5.89-3.74-69.43-6.56-138.96-8.47-208.54-.05-2-.11-4-.16-6-1.85-69.5-2.79-139.05-2.82-208.6v-6c.03-69.55.97-139.09,2.82-208.59.05-2,.11-4,.16-6,1.91-69.59,4.73-139.12,8.47-208.55.1-1.96.21-3.92.32-5.88,2.49-45.78,5.39-91.51,8.68-137.18h6.02c-3.29,45.55-6.18,91.16-8.67,136.81-.11,1.96-.22,3.91-.32,5.87-3.75,69.5-6.58,139.1-8.49,208.75-.06,2-.11,4-.16,6-1.86,69.56-2.8,139.16-2.83,208.77v6c.03,69.61.97,139.22,2.83,208.78.05,2,.1,4,.16,6,1.91,69.65,4.74,139.25,8.49,208.74.1,1.96.21,3.92.32,5.88Z" fill="#303030"/><path d="M210.85,566.2c-.01,2-.01,4,0,6,.06,66.57,1.94,133.15,5.66,199.67.1,2.01.22,4.02.34,6.03,3.82,66.6,9.48,133.14,16.99,199.59.22,2.02.44,4.03.68,6.05,4.27,37.29,9.11,74.56,14.54,111.78-2.18-.99-4.35-1.98-6.49-2.98-5.28-36.49-10.01-73.01-14.18-109.57-.23-2.02-.46-4.03-.69-6.05-7.45-66.31-13.08-132.72-16.88-199.18-.12-2.01-.23-4.03-.34-6.04-3.7-66.4-5.57-132.85-5.63-199.3-.01-2-.01-4,0-6,.06-66.45,1.93-132.9,5.63-199.3.11-2.01.22-4.02.34-6.03,3.8-66.46,9.43-132.87,16.88-199.19.23-2.02.46-4.03.7-6.05,5.92-51.95,12.96-103.83,21.13-155.63h6.07c-8.14,51.55-15.17,103.18-21.08,154.87-.24,2.01-.46,4.03-.68,6.04-7.51,66.45-13.17,133-16.99,199.6-.12,2-.23,4.01-.34,6.02-3.72,66.52-5.6,133.1-5.66,199.67Z" fill="#303030"/></g></svg>